<svg width="50" height="50" viewBox="0 0 50 50" fill="none" xmlns="http://www.w3.org/2000/svg"><rect width="50" height="50" rx="3" fill="#217346"/><path d="M12.04 26.04l-2.813-4.274h2.703l1.695 2.78 1.71-2.78h2.704l-2.844 4.273 2.977 4.461H15.46l-1.836-2.992L11.78 30.5H9.078l2.961-4.46zm9.843 4.46H19.5V18.344h2.383V30.5zm8.601-2.594c0 .594-.14 1.097-.422 1.508-.276.406-.69.716-1.242.93-.552.208-1.24.312-2.062.312-.61 0-1.133-.039-1.57-.117a6.472 6.472 0 01-1.313-.39v-1.97c.474.214.982.391 1.523.532.547.135 1.026.203 1.438.203.463 0 .794-.068.992-.203.203-.14.305-.323.305-.547a.648.648 0 00-.125-.39c-.078-.12-.25-.253-.516-.399a12.844 12.844 0 00-1.25-.586 8.268 8.268 0 01-1.351-.695 2.354 2.354 0 01-.782-.828c-.166-.323-.25-.732-.25-1.227 0-.807.313-1.414.938-1.82.63-.412 1.471-.617 2.523-.617.542 0 1.058.054 1.547.164a7.57 7.57 0 011.524.523l-.72 1.719a12.2 12.2 0 00-1.226-.461c-.38-.12-.768-.18-1.164-.18-.349 0-.612.047-.789.14a.458.458 0 00-.265.43.58.58 0 00.132.375c.094.11.271.232.532.368.265.13.653.3 1.164.508a9.05 9.05 0 011.289.64c.364.219.646.492.843.82.198.323.297.743.297 1.258zm3.649-1.867l-2.813-4.273h2.703l1.696 2.78 1.71-2.78h2.704l-2.844 4.273 2.977 4.461h-2.711l-1.836-2.992-1.844 2.992h-2.703l2.96-4.46z" fill="#fff"/></svg>