<svg width="211" height="65" viewBox="0 0 211 65" fill="none" xmlns="http://www.w3.org/2000/svg"><path d="M55.027 19.59h21.18v3.947h-8.34v22.254h-4.57V23.537h-8.305l.035-3.947zM75.3 26.82h3.908v3.668h.07c.14-.524.384-1.013.732-1.502.35-.489.768-.943 1.292-1.327a5.71 5.71 0 011.674-.979 4.871 4.871 0 011.85-.384c.488 0 .837.035 1.012.035.174.035.384.07.558.07v4.017a7.039 7.039 0 00-.907-.14c-.314-.034-.594-.07-.907-.07-.698 0-1.361.14-1.99.42-.627.28-1.15.699-1.64 1.223a6.629 6.629 0 00-1.116 2.026c-.28.803-.419 1.747-.419 2.795v9.013H75.23l.07-18.865zm30.287 18.97h-4.117v-2.655h-.07c-.523.978-1.291 1.711-2.303 2.305-1.012.594-2.059.874-3.105.874-2.478 0-4.292-.594-5.409-1.852-1.117-1.223-1.675-3.109-1.675-5.59v-12.05h4.187v11.633c0 1.677.314 2.865.977 3.529.629.699 1.536 1.048 2.687 1.048.873 0 1.605-.14 2.198-.42.594-.279 1.082-.628 1.431-1.082.384-.455.628-1.014.803-1.642.174-.63.244-1.328.244-2.061V26.82h4.187v18.97h-.035zm7.118-6.079c.14 1.223.593 2.061 1.396 2.585.803.49 1.78.734 2.896.734.384 0 .838-.035 1.326-.105.489-.07.977-.175 1.396-.35a2.461 2.461 0 001.082-.768c.279-.35.418-.768.383-1.292-.035-.524-.209-.979-.593-1.328-.384-.35-.837-.594-1.396-.838a12.073 12.073 0 00-1.954-.524c-.732-.14-1.465-.315-2.233-.49a24.198 24.198 0 01-2.268-.628 6.529 6.529 0 01-1.954-1.013c-.558-.42-1.047-.944-1.361-1.607-.349-.664-.523-1.433-.523-2.41 0-1.049.244-1.887.768-2.586.488-.699 1.151-1.258 1.919-1.677a8.699 8.699 0 012.582-.908 14.77 14.77 0 012.687-.245c.977 0 1.919.105 2.791.315.872.21 1.71.524 2.408 1.013a5.532 5.532 0 011.779 1.816c.489.734.768 1.642.907 2.69h-4.361c-.21-1.013-.663-1.676-1.361-2.026-.733-.35-1.535-.524-2.477-.524-.28 0-.663.035-1.047.07-.419.07-.768.14-1.152.28-.349.14-.663.349-.907.593-.244.245-.384.594-.384 1.014 0 .523.175.908.524 1.222.349.315.802.56 1.395.804.559.21 1.222.384 1.954.524.733.14 1.501.314 2.268.489.768.174 1.501.384 2.234.629.732.244 1.395.559 1.954 1.013a5.034 5.034 0 011.395 1.572c.349.629.524 1.432.524 2.34 0 1.118-.245 2.062-.768 2.865a6.518 6.518 0 01-1.989 1.921c-.802.49-1.745.839-2.722 1.083-1.011.21-1.988.35-2.965.35-1.187 0-2.303-.14-3.315-.42-1.012-.279-1.919-.698-2.652-1.222-.733-.56-1.326-1.223-1.745-2.061-.419-.804-.663-1.782-.698-2.935h4.222v.035h.035zm13.783-12.89h3.175v-5.73h4.188v5.694h3.768v3.11h-3.768v10.13c0 .455.034.804.069 1.153.035.315.14.594.245.804.139.21.348.384.593.489.279.105.628.175 1.116.175.279 0 .593 0 .873-.035.279-.035.593-.07.872-.14v3.249c-.454.07-.907.105-1.361.14-.453.07-.872.07-1.361.07-1.116 0-1.989-.105-2.652-.315-.663-.21-1.186-.524-1.57-.908-.384-.42-.628-.909-.767-1.502-.14-.594-.21-1.328-.245-2.097V29.93h-3.175v-3.179.07zm14.062 0h3.943v2.584h.07c.593-1.117 1.395-1.886 2.442-2.375 1.047-.49 2.164-.734 3.42-.734 1.5 0 2.791.245 3.908.804 1.116.524 2.024 1.222 2.756 2.166a9.035 9.035 0 011.64 3.214 14.32 14.32 0 01.559 3.912 14.36 14.36 0 01-.489 3.703c-.349 1.188-.837 2.271-1.5 3.18a7.427 7.427 0 01-2.548 2.2c-1.046.56-2.233.839-3.628.839-.594 0-1.222-.07-1.815-.175a7.734 7.734 0 01-1.745-.524 6.27 6.27 0 01-1.535-.943 5.329 5.329 0 01-1.186-1.328h-.07v9.467h-4.187v-25.99h-.035zm14.62 9.501a8.53 8.53 0 00-.349-2.48 6.316 6.316 0 00-1.012-2.13 5.577 5.577 0 00-1.64-1.503c-.663-.384-1.43-.56-2.268-.56-1.744 0-3.07.595-3.977 1.818-.873 1.222-1.326 2.864-1.326 4.89 0 .979.104 1.852.349 2.655.244.804.558 1.503 1.046 2.096a4.992 4.992 0 001.675 1.398c.663.35 1.396.524 2.268.524.977 0 1.745-.21 2.408-.594.663-.384 1.186-.908 1.64-1.502a6.137 6.137 0 00.907-2.131c.174-.839.279-1.642.279-2.48zm7.363-16.733h4.187v3.947h-4.187V19.59zm0 7.231h4.187v18.97h-4.187V26.82zm7.92-7.231h4.187v26.2h-4.187v-26.2zm16.958 26.725c-1.5 0-2.861-.245-4.047-.769-1.187-.524-2.164-1.188-3.001-2.061-.803-.873-1.431-1.956-1.849-3.18a12.424 12.424 0 01-.663-4.017c0-1.432.209-2.76.663-3.982a9.274 9.274 0 011.849-3.18c.803-.872 1.814-1.571 3.001-2.06 1.186-.49 2.547-.769 4.047-.769 1.501 0 2.862.245 4.048.769a8.695 8.695 0 013.001 2.06c.802.874 1.43 1.957 1.849 3.18.419 1.223.663 2.55.663 3.983 0 1.467-.209 2.794-.663 4.017-.454 1.223-1.047 2.27-1.849 3.179-.803.873-1.815 1.572-3.001 2.061-1.186.49-2.512.769-4.048.769zm0-3.32c.908 0 1.745-.209 2.408-.593.698-.384 1.221-.908 1.675-1.537.453-.629.767-1.363.977-2.131a9.542 9.542 0 000-4.856c-.21-.803-.524-1.502-.977-2.131a5.308 5.308 0 00-1.675-1.502c-.698-.384-1.5-.594-2.408-.594-.907 0-1.744.21-2.407.594-.698.384-1.222.908-1.675 1.502-.454.629-.768 1.328-.977 2.131a9.564 9.564 0 000 4.856c.209.803.523 1.502.977 2.13a5.408 5.408 0 001.675 1.538c.698.42 1.5.594 2.407.594zm10.817-16.174h3.175v-5.729h4.188v5.694h3.768v3.11h-3.768v10.13c0 .455.035.804.069 1.153.035.315.14.594.245.804.139.21.349.384.593.489.279.105.628.175 1.116.175.28 0 .594 0 .873-.035s.593-.07.872-.14v3.249c-.454.07-.907.105-1.361.14-.453.07-.872.07-1.361.07-1.116 0-1.988-.105-2.651-.315-.663-.21-1.187-.524-1.571-.908-.383-.42-.628-.909-.767-1.502-.14-.594-.21-1.328-.245-2.097V29.93h-3.175v-3.179.07z" fill="#000"/><path d="M50.141 19.59H30.985L25.088 1.354 19.156 19.59 0 19.555l15.492 11.284-5.931 18.236L25.053 37.79l15.493 11.284-5.897-18.236 15.492-11.25z" fill="#00B67A"/><path d="M35.977 34.961l-1.326-4.122-9.561 6.952 10.887-2.83z" fill="#005128"/></svg>