<svg width="196" height="65" viewBox="0 0 196 65" fill="none" xmlns="http://www.w3.org/2000/svg"><path fill-rule="evenodd" clip-rule="evenodd" d="M0 52.726c0 2.517 1.63 4.149 4.143 4.149H16.25c7.221 0 13.129-2.447 17.145-6.73H0v2.581zm16.249-41.892H4.143C1.63 10.833 0 12.465 0 14.981v2.582h33.394c-4.016-4.284-9.924-6.73-17.145-6.73zm10.564 29.58c0 2.036 1.325 3.357 3.367 3.357h7.253c.823-2.043 1.375-4.29 1.632-6.713H30.18c-2.042 0-3.367 1.32-3.367 3.356zM16.76 27.31c0 2.037 1.324 3.357 3.366 3.357h18.94c-.257-2.424-.81-4.67-1.632-6.714H20.125c-2.042 0-3.366 1.321-3.366 3.357zm3.364 13.104c0-2.036-1.325-3.356-3.367-3.356H0v6.713h16.756c2.043 0 3.367-1.32 3.367-3.357zM10.069 27.31c0-2.036-1.325-3.357-3.367-3.357H0v6.714h6.702c2.042 0 3.367-1.32 3.367-3.357zm75.119 5.851c.54-2.627 2.281-3.963 4.572-3.963 2.27 0 3.93 1.396 4.46 3.963h-9.032zm4.696-8.515c-5.831 0-9.458 4.677-9.458 10.399 0 5.925 3.876 10.32 9.636 10.32 3.973 0 6.383-1.845 7.874-4.167l-3.708-2.379c-.933 1.28-2.425 1.955-4.024 1.955-2.616 0-4.367-1.23-4.964-3.689h9.788l-.002.01 3.568.021a9.925 9.925 0 00.215-2.071c0-4.984-3.058-10.399-8.925-10.399zM65.49 40.76c-3.589 0-5.746-2.576-5.746-5.755 0-3.178 2.199-5.755 5.745-5.755 3.547 0 5.745 2.577 5.745 5.755 0 3.179-2.157 5.756-5.745 5.756zm5.353-13.072c-1.433-1.724-3.467-2.78-5.992-2.78-5.644 0-9.703 4.58-9.703 10.228 0 5.65 4.02 10.229 9.703 10.229 2.525 0 4.56-1.057 5.992-2.78v2.276h4.987V17.74h-4.987v9.948zm43.215 6.978c1.353.947 2.211 2.368 2.211 4.243 0 3.789-2.549 6.418-7.315 6.418-4.486 0-6.891-2.303-7.849-4.628l4.117-2.409s.555 2.513 3.658 2.513c1.921 0 2.512-.85 2.512-1.602 0-.348-.11-.988-1.477-1.53-2.746-1.087-8.055-1.574-8.055-6.533 0-4.06 3.176-6.224 7.094-6.224 3.663 0 6.016 2.283 6.91 4.06l-4.028 2.357s-.776-1.972-2.845-1.972-2.254 1.2-2.254 1.547c0 1.015 1.033 1.431 3.251 2.088 1.314.388 2.663.741 4.074 1.668a.014.014 0 00-.004.004zm81.263-4.417h-4.175v8.041c0 2.513 2.438 1.972 4.175 1.972v4.523s-.915.155-2.513.155c-3.546 0-6.428-1.083-6.428-6.65v-8.041h-3.215v-4.794h3.215v-5.413h4.766v5.413h4.175v4.794zm-67.203 10.206c1.978 0 3.499-.987 4.267-2.606l4.132 2.478c-1.619 2.971-4.635 5.038-8.399 5.038-5.708 0-9.698-4.57-9.698-10.206 0-5.637 4.027-10.207 9.698-10.207 3.708 0 6.713 2.033 8.35 4.965l-4.123 2.535c-.783-1.598-2.292-2.59-4.227-2.59-2.884 0-4.932 2.371-4.932 5.297 0 2.925 2.029 5.296 4.932 5.296zm43.815-.053c-3.104 0-4.971-2.425-4.971-5.416 0-2.99 1.903-5.416 4.971-5.416 3.069 0 4.972 2.425 4.972 5.416 0 2.991-1.867 5.416-4.972 5.416zm.593-15.556c5.24 0 9.009 4.54 9.009 10.14 0 5.6-3.733 10.14-9.009 10.14-2.345 0-4.233-1.047-5.564-2.756v9.901h-4.63V25.384h4.63v2.218c1.331-1.709 3.219-2.756 5.564-2.756zm-19.095 19.781V25.422h4.63v19.205h-4.63zm-8.629-15.925c.894-2.327 2.714-3.658 5.456-3.664v5.531c-3.215-.325-5.537 1.385-5.452 5.425a.03.03 0 01-.004-.009v8.642h-4.63V25.422h4.63v3.28zm8.629-5.843v-5.12h4.783v5.12h-4.783z" fill="#0062FF"/></svg>