<svg width="198" height="75" viewBox="0 0 198 75" fill="none" xmlns="http://www.w3.org/2000/svg"><path fill-rule="evenodd" clip-rule="evenodd" d="M191.697 49.97c.119 1.358 1.203 3.087 3.083 3.087h1.098c.427 0 .776-.35.776-.777V28.052h-.005a.775.775 0 00-.771-.735h-3.405a.774.774 0 00-.77.735h-.006v1.969c-2.087-2.578-5.377-3.648-8.676-3.648-7.499 0-13.579 6.098-13.579 13.62 0 7.522 6.08 13.62 13.579 13.62 3.299 0 6.896-1.283 8.676-3.647v.003zm-8.663-1.124c-4.769 0-8.636-3.963-8.636-8.853s3.867-8.853 8.636-8.853c4.771 0 8.637 3.964 8.637 8.853 0 4.89-3.866 8.853-8.637 8.853zm-17.899-10.58c0-7.067-4.445-11.835-11.533-11.835-3.384 0-6.157 1.963-7.137 3.648-.212-1.318-.909-2.703-3.073-2.703h-1.103a.778.778 0 00-.775.777v24.23h.004c.023.408.36.735.771.735h3.406a.793.793 0 00.153-.016c.023-.004.044-.013.066-.02.025-.007.051-.013.075-.023.031-.013.058-.03.086-.045.014-.009.029-.015.042-.024a.768.768 0 00.095-.075l.016-.013a.792.792 0 00.238-.519h.004V38.071c0-3.795 3.068-6.872 6.853-6.872 3.784 0 6.852 3.077 6.852 6.872l.003 11.963.001-.004.002.033v2.32h.004a.777.777 0 00.771.735h3.406a.802.802 0 00.153-.016c.02-.004.038-.012.058-.017.028-.008.057-.015.084-.026.027-.012.053-.028.079-.043.016-.009.033-.015.048-.026a.777.777 0 00.089-.07l.022-.019a.815.815 0 00.087-.1l.006-.007a.774.774 0 00.145-.409v-.002h.005l-.003-14.117zM129.664 49.97c.119 1.358 1.204 3.087 3.082 3.087h1.099c.427 0 .775-.35.775-.777V28.052h-.004a.776.776 0 00-.771-.735h-3.406a.777.777 0 00-.771.735h-.004v1.969c-2.087-2.578-5.377-3.648-8.676-3.648-7.5 0-13.579 6.098-13.579 13.62 0 7.522 6.079 13.62 13.579 13.62 3.299 0 6.895-1.283 8.676-3.647v.003zm-8.663-1.124c-4.769 0-8.636-3.963-8.636-8.853s3.867-8.853 8.636-8.853c4.77 0 8.636 3.964 8.636 8.853 0 4.89-3.866 8.853-8.636 8.853zM87.267 46.5c2.274 1.58 4.756 2.347 7.141 2.347 2.272 0 4.621-1.182 4.621-3.238 0-2.746-5.118-3.173-8.334-4.27-3.217-1.095-5.987-3.362-5.987-7.032 0-5.615 4.989-7.934 9.645-7.934 2.95 0 5.994.975 7.967 2.373.68.517.266 1.11.266 1.11l-1.884 2.698c-.211.304-.582.567-1.113.238-.531-.33-2.395-1.652-5.236-1.652-2.841 0-4.552 1.316-4.552 2.946 0 1.956 2.224 2.571 4.829 3.238 4.54 1.227 9.492 2.703 9.492 8.285 0 4.947-4.614 8.005-9.714 8.005-3.865 0-7.155-1.105-9.914-3.136-.575-.577-.174-1.113-.174-1.113l1.875-2.685c.381-.502.862-.326 1.072-.18zm-13.094 3.47c.12 1.358 1.204 3.087 3.082 3.087h1.1c.426 0 .775-.35.775-.777V28.052h-.005a.776.776 0 00-.77-.735h-3.406a.777.777 0 00-.772.735h-.004v1.969c-2.087-2.578-5.377-3.648-8.676-3.648-7.5 0-13.579 6.098-13.579 13.62 0 7.522 6.08 13.62 13.579 13.62 3.3 0 6.895-1.283 8.676-3.647v.003zm-8.663-1.124c-4.77 0-8.636-3.963-8.636-8.853s3.867-8.853 8.636-8.853c4.77 0 8.636 3.964 8.636 8.853 0 4.89-3.866 8.853-8.636 8.853z" fill="#0D0E10"/><path fill-rule="evenodd" clip-rule="evenodd" d="M32.88 40.919c-5.047 0-9.138 4.1-9.138 9.159 0 5.058 4.091 9.158 9.138 9.158s9.138-4.1 9.138-9.158c0-5.059-4.091-9.16-9.138-9.16zm-23.742 0C4.091 40.92 0 45.02 0 50.079c0 5.058 4.091 9.158 9.138 9.158s9.139-4.1 9.139-9.158c0-5.059-4.092-9.158-9.139-9.158zm21.009-11.448c0 5.058-4.091 9.159-9.138 9.159s-9.138-4.101-9.138-9.16c0-5.057 4.091-9.157 9.138-9.157s9.138 4.1 9.138 9.158z" fill="#F06A6A"/></svg>