<svg width="187" height="70" viewBox="0 0 187 70" fill="none" xmlns="http://www.w3.org/2000/svg"><g clip-path="url(#clip0_306_3422)" fill-rule="evenodd" clip-rule="evenodd"><path d="M145.497 46.109c4.82 0 8.74-3.835 8.74-8.55 0-4.714-3.92-8.55-8.74-8.55-4.818 0-8.739 3.836-8.739 8.55 0 4.715 3.921 8.55 8.739 8.55zm8.74-29.797h4.141v33.876h-4.141v-3.382c-2.39 2.166-5.471 3.353-8.74 3.353-7.101 0-12.879-5.652-12.879-12.6 0-6.948 5.778-12.6 12.879-12.6 3.269 0 6.35 1.187 8.74 3.354V16.312zM59.63 45.96c4.82 0 8.74-3.836 8.74-8.55s-3.92-8.55-8.74-8.55c-4.819 0-8.74 3.836-8.74 8.55s3.921 8.55 8.74 8.55zm-8.74-17.796c2.39-2.167 5.472-3.354 8.74-3.354 7.102 0 12.88 5.652 12.88 12.6 0 6.948-5.778 12.6-12.88 12.6-3.268 0-6.35-1.186-8.74-3.354v12.001h-4.14V24.781h4.14v3.383zm29.52 7.279c.932-3.829 4.404-6.578 8.365-6.578 3.909 0 7.183 2.69 8.055 6.578H80.41zm8.365-10.662c-6.996 0-12.687 5.699-12.687 12.704 0 7.004 5.691 12.703 12.687 12.703 3.917 0 7.513-1.468 9.866-4.029l1.222-1.331.158-.172-.172-.158-2.657-2.448-.172-.158-.158.171-1.223 1.332c-1.559 1.696-4.125 2.71-6.864 2.71-3.96 0-7.433-2.75-8.365-6.579h20.722v-2.041c0-7.124-5.428-12.704-12.357-12.704zm94.084 12.704c0 4.753-3.92 8.62-8.74 8.62-4.818 0-8.739-3.867-8.739-8.62 0-4.754 3.921-8.62 8.739-8.62 4.82 0 8.74 3.866 8.74 8.62zm-8.74-12.704c-7.101 0-12.879 5.699-12.879 12.704 0 7.004 5.778 12.703 12.879 12.703 7.103 0 12.881-5.699 12.881-12.703 0-7.005-5.778-12.704-12.881-12.704zm-57.602 0c-2.877 0-5.618 1.094-7.776 3.091v-3.091h-4.031v25.407h4.031V37.222c0-4.625 3.488-8.389 7.776-8.389s7.777 3.764 7.777 8.39v12.965h4.03V37.222c0-6.86-5.297-12.441-11.807-12.441z" fill="#1A2022"/><path d="M0 40.51h19.48v19.012l19.478-19.013V21.497H19.48L0 40.509z" fill="#FF4876"/></g><defs><clipPath id="clip0_306_3422"><path fill="#fff" d="M0 0h187v70H0z"/></clipPath></defs></svg>