<svg width="131" height="65" viewBox="0 0 131 65" fill="none" xmlns="http://www.w3.org/2000/svg"><g clip-path="url(#clip0_306_3408)"><path d="M93.545 19.483h-2.098c-2.758 0-6.02.15-9.843 0h-.611c-.826 0-2.577-.157-2.602-.157l-1.222-.108a62.586 62.586 0 01-5.161-.662l-1.338-.232-.727-.108c-.462-.09-2.41-.521-2.849-.629-.437-.107-.76-.182-1.147-.281a63.147 63.147 0 01-2.114-.58l-.991-.298a47.66 47.66 0 01-2.04-.646l-1.239-.422a71.054 71.054 0 01-1.825-.663l13.618-9.936 22.189 14.722z" fill="#C6EBF4"/><path d="M38.905 61.621c-2.202 0-3.804-.662-4.806-1.987-1.002-1.325-1.514-3.414-1.536-6.268v-4.14c0-2.915.512-5.026 1.536-6.334 1.024-1.309 2.659-1.963 4.905-1.963a6.412 6.412 0 013.989 1.118 3.647 3.647 0 011.601 2.724.207.207 0 00.199.166h3.435a.206.206 0 00.206-.207 6.46 6.46 0 00-1.808-4.43c-1.619-1.822-4.228-2.733-7.828-2.733-3.337 0-5.864.977-7.581 2.932-1.718 1.954-2.574 4.868-2.569 8.743v4.919c0 3.588.86 6.29 2.577 8.106 1.718 1.816 4.247 2.727 7.589 2.733 4.03 0 6.807-1.143 8.332-3.428a8.182 8.182 0 001.066-2.112c.194-.76.291-1.542.288-2.326a.207.207 0 00-.198-.207h-3.501a.206.206 0 00-.198.165c-.537 2.766-2.387 4.53-5.698 4.53zm68.359-20.518a.198.198 0 00.198-.199v-3.138a.19.19 0 00-.121-.186.189.189 0 00-.077-.013h-5.781V31.15a.197.197 0 00-.198-.199l-3.518 1.077a.198.198 0 00-.198.199v5.34h-3.84a.198.198 0 00-.198.2v3.137a.199.199 0 00.198.199h3.84v16.56c0 2.286.512 3.959 1.536 5.018 1.024 1.06 2.673 1.601 4.947 1.623h3.22a.197.197 0 00.198-.198v-3.08a.195.195 0 00-.058-.141.196.196 0 00-.14-.058h-2.874a2.6 2.6 0 01-2.204-.828 4.845 4.845 0 01-.669-2.907V41.103h5.739zm-35.244 3.61a4.28 4.28 0 00-.174-1.002 8.908 8.908 0 00-1.71-3.212c-1.717-1.955-4.244-2.932-7.58-2.932-3.6 0-6.213.911-7.837 2.733a6.294 6.294 0 00-1.652 4.405.207.207 0 00.207.207h3.435a.206.206 0 00.198-.174 3.518 3.518 0 011.487-2.724 6.461 6.461 0 013.996-1.118c2.246 0 3.882.654 4.906 1.962.471.623.757 1.366.825 2.145v3.759a48.203 48.203 0 00-3.072-.298 40.55 40.55 0 00-2.527-.1c-3.605 0-6.25.68-7.935 2.038-1.685 1.358-2.527 3.513-2.527 6.467 0 2.76.8 4.772 2.403 6.036 1.412 1.093 4.376 1.656 7.366 1.822a15.04 15.04 0 002.362-.083 30.54 30.54 0 007.39-1.582.636.636 0 00.455-.588v-16.71c.024-.38.008-.736-.017-1.05zM58.32 60.72a3.07 3.07 0 01-1.892-1.805 5.743 5.743 0 01-.33-2.062c0-1.86.487-3.188 1.462-3.983.974-.795 2.736-1.192 5.284-1.192.554 0 3.849.281 5.08.422a.247.247 0 01.222.249v7.783a.266.266 0 01-.173.248 15.032 15.032 0 01-9.654.34zm72.264-16.007a4.212 4.212 0 00-.19-.969 8.9 8.9 0 00-1.709-3.212c-1.718-1.954-4.245-2.931-7.581-2.931-3.611 0-6.223.91-7.837 2.732a6.298 6.298 0 00-1.651 4.405.21.21 0 00.06.146c.039.04.092.061.146.061h3.436a.205.205 0 00.198-.174 3.515 3.515 0 011.486-2.724 6.446 6.446 0 013.997-1.118c2.246 0 3.881.654 4.905 1.962a4.07 4.07 0 01.826 2.145c0 .273.041.555.041.828v2.931a48.13 48.13 0 00-3.072-.298 40.765 40.765 0 00-2.535-.1c-3.6 0-6.243.68-7.927 2.038-1.685 1.358-2.525 3.513-2.519 6.467 0 2.76.801 4.772 2.403 6.036 1.412 1.093 4.377 1.656 7.366 1.822a15.02 15.02 0 002.362-.083c2.519-.22 5.002-.75 7.391-1.582a.635.635 0 00.454-.587V45.764a18.346 18.346 0 00-.05-1.052zm-13.7 16.006a3.071 3.071 0 01-1.891-1.805 5.741 5.741 0 01-.33-2.062c0-1.86.487-3.188 1.462-3.983.974-.795 2.736-1.192 5.285-1.192.553 0 3.848.281 5.078.422a.257.257 0 01.223.249v7.783a.277.277 0 01-.173.248 15.033 15.033 0 01-9.654.34zM90.195 41.401a.19.19 0 00.181-.19v-3.453c0-.663-4.533.356-4.954.488a6.763 6.763 0 00-4.493 3.445v-3.138a.216.216 0 00-.214-.216h-3.411a.214.214 0 00-.215.216v25.553a.224.224 0 00.215.223h3.518a.223.223 0 00.215-.223V49.789a11.302 11.302 0 01.99-4.885 5.791 5.791 0 012-2.407 5.77 5.77 0 012.955-1.013 17.944 17.944 0 012.304-.14l.909.057z" fill="#25314C"/><path d="M91.589 21.048C38.903 37.261 0 21.048 0 21.048L28.985 0c11 8.09 20.563 13.108 28.754 16.204.62.232 1.223.456 1.825.663l1.24.422c.693.232 1.37.456 2.039.646l.99.298c.72.207 1.421.406 2.115.58.388.1.768.199 1.148.281.38.083 3.36.729 3.617.779l1.337.232c1.809.306 3.527.521 5.162.662l1.222.108s1.775.124 2.601.157h.611c3.824.14 7.085 0 9.844 0l.099.016z" fill="#1B98ED"/></g><defs><clipPath id="clip0_306_3408"><path fill="#fff" d="M0 0h131v65H0z"/></clipPath></defs></svg>