<svg width="221" height="65" viewBox="0 0 221 65" fill="none" xmlns="http://www.w3.org/2000/svg"><g clip-path="url(#clip0_306_3416)"><path d="M13.53 43.334a12.466 12.466 0 01-2.705-4.066 12.407 12.407 0 01-.93-4.784c-.004-1.64.321-3.265.956-4.78a12.336 12.336 0 012.741-4.038 4.921 4.921 0 001.659-3.526 4.892 4.892 0 00-1.44-3.62 4.95 4.95 0 00-3.635-1.446 4.972 4.972 0 00-3.554 1.633A22.25 22.25 0 000 34.465a22.248 22.248 0 006.526 15.798 4.946 4.946 0 003.543 1.636 4.973 4.973 0 003.633-1.43 4.917 4.917 0 001.456-3.605 4.896 4.896 0 00-1.629-3.53z" fill="#FFDA00"/><path d="M13.59 25.666a12.625 12.625 0 018.9-3.62 12.624 12.624 0 018.873 3.683 4.945 4.945 0 003.55 1.661 4.973 4.973 0 003.65-1.43 4.916 4.916 0 001.455-3.622 4.894 4.894 0 00-1.654-3.536 22.38 22.38 0 00-7.25-4.877 22.485 22.485 0 00-17.17-.07 22.38 22.38 0 00-7.29 4.819 4.92 4.92 0 00-1.674 3.518 4.892 4.892 0 001.422 3.625 4.95 4.95 0 003.627 1.464 4.973 4.973 0 003.562-1.615z" fill="#67B3FF"/><path d="M31.335 43.396a12.561 12.561 0 01-4.09 2.695 12.622 12.622 0 01-4.816.93 12.474 12.474 0 01-4.809-.955 12.417 12.417 0 01-4.06-2.733 4.946 4.946 0 00-3.548-1.648 4.974 4.974 0 00-3.641 1.43 4.915 4.915 0 00-1.455 3.614 4.894 4.894 0 001.643 3.533 22.42 22.42 0 007.26 4.876 22.527 22.527 0 0017.185.068 22.422 22.422 0 007.298-4.818 4.92 4.92 0 001.467-3.473 4.898 4.898 0 00-1.434-3.486 4.952 4.952 0 00-3.493-1.458 4.975 4.975 0 00-3.507 1.425z" fill="#EB5A68"/><path d="M13.592 25.666a4.975 4.975 0 01-5.4 1.06 4.94 4.94 0 01-2.22-1.822 4.897 4.897 0 01.025-5.472A4.941 4.941 0 018.23 17.63a4.975 4.975 0 015.392 1.106 4.903 4.903 0 011.42 3.471 4.903 4.903 0 01-1.45 3.459z" fill="#47A1FF"/><path d="M13.497 50.263a4.975 4.975 0 01-5.401 1.057 4.942 4.942 0 01-2.218-1.822 4.898 4.898 0 01.026-5.472 4.942 4.942 0 012.235-1.8 4.975 4.975 0 015.391 1.107 4.903 4.903 0 011.42 3.472 4.904 4.904 0 01-1.453 3.458z" fill="#D5465F"/><path d="M60.38 39.303c1.426-1.07 1.616-.472 2.82.724.602.599 2.248 1.64 1.17 2.52-2.247 1.825-4.276 2.645-7.145 2.645-6.495-.03-11.088-4.85-10.72-11.244.157-2.864 1.297-5.574 3.548-7.432 2.06-1.732 4.624-2.487 7.317-2.424a10.04 10.04 0 013.848.754 9.106 9.106 0 012.312 1.23c1.426 1.093.761 1.732-.35 2.833-.252.252-.505.506-.728.757-.569.566-.95.976-1.71.44-1.456-1.008-3.297-1.544-5.037-1.093-5.608 1.416-5.355 11.337 1.522 11.37a5.345 5.345 0 003.153-1.08zm155.865 6.012a1.716 1.716 0 01-1.213-.496 1.699 1.699 0 01-.5-1.204l.097-21.982a1.677 1.677 0 01.498-1.205 1.712 1.712 0 011.211-.497h1.839a1.712 1.712 0 011.583 1.052 1.7 1.7 0 01.127.653l-.097 21.982a1.675 1.675 0 01-.498 1.204 1.701 1.701 0 01-1.211.495l-1.836-.002zm-9.62-2.55c-1.996 1.858-3.898 2.834-6.718 2.834-5.701-.033-8.427-4.725-8.427-9.984l.033-8.943a1.675 1.675 0 01.5-1.204 1.7 1.7 0 011.212-.493h1.839a1.712 1.712 0 011.211.495 1.699 1.699 0 01.499 1.204l-.031 8.943c0 2.93 1.584 5.227 4.69 5.227 3.105 0 5.005-2.582 5.035-5.464v-3.195a1.59 1.59 0 01-.03-.377l.03-5.07a1.676 1.676 0 01.498-1.205 1.704 1.704 0 011.212-.495h1.814a1.711 1.711 0 011.211.495 1.681 1.681 0 01.498 1.204l-.06 16.88a1.682 1.682 0 01-.508 1.187c-.32.313-.752.487-1.202.483h-1.553a1.739 1.739 0 01-1.172-.504 1.72 1.72 0 01-.507-1.165l-.074-.853zm-21.871-17.727h3.548a1.713 1.713 0 011.203.518 1.7 1.7 0 01.477 1.214v1.164a1.709 1.709 0 01-.503 1.196c-.319.318-.75.498-1.201.504h-3.557l-.063 13.888a1.696 1.696 0 01-1.71 1.702h-1.836a1.715 1.715 0 01-1.212-.497 1.685 1.685 0 01-.5-1.205l.063-19.208c0-4.19 2.408-7.498 6.718-7.875.126 0 .219-.03.346-.03.253-.017.508-.017.761 0h1.649a1.713 1.713 0 011.202.517 1.695 1.695 0 01.478 1.213v1.07c-.003.45-.184.882-.504 1.2-.32.319-.753.5-1.206.503h-1.33c-2.029 0-2.883 1.54-2.916 3.432l.093.694zm-12.734-.063h3.889a1.7 1.7 0 011.193.504c.315.319.49.749.486 1.195v1.164a1.677 1.677 0 01-.507 1.187 1.7 1.7 0 01-1.202.483h-3.892l-.03 8.497c0 1.64.791 2.582 2.438 2.582h.791c.45.005.879.188 1.194.507.315.319.489.749.486 1.196v1.18a1.686 1.686 0 01-.509 1.186c-.32.313-.752.486-1.201.484h-1.49a6.935 6.935 0 01-.824-.033c-4.214-.273-6.083-2.99-6.083-7.085.033-5.511.033-10.99.063-16.5a1.683 1.683 0 011.062-1.547c.207-.084.428-.125.651-.123h1.805c.45.004.879.185 1.194.504.315.319.489.748.486 1.195v3.424zm-56.346-.222h3.889a1.7 1.7 0 011.193.505c.315.319.49.748.486 1.195v1.17a1.685 1.685 0 01-.508 1.185c-.32.313-.752.487-1.201.484h-3.903v8.5c0 1.64.791 2.582 2.438 2.582h.794a1.707 1.707 0 011.192.505 1.677 1.677 0 01.485 1.195v1.164a1.682 1.682 0 01-.508 1.186 1.7 1.7 0 01-1.202.483h-1.171c-4.596-.03-7.256-1.983-7.256-7.104.033-5.51.033-10.992.063-16.503.005-.447.188-.874.509-1.187a1.705 1.705 0 011.203-.483h1.806c.449.005.878.188 1.193.507.314.319.488.749.484 1.196l.014 3.42zm-22.872 2.394c1.87-1.732 3.898-2.833 6.526-2.833 5.703.03 8.649 4.645 8.616 9.98l-.03 8.944a1.68 1.68 0 01-.5 1.205 1.706 1.706 0 01-1.212.497h-1.836a1.715 1.715 0 01-1.584-1.05 1.698 1.698 0 01-.129-.652l.033-8.88c0-2.93-1.583-5.227-4.689-5.227s-5.005 2.552-5.035 5.448l-.033 8.659a1.681 1.681 0 01-.508 1.186 1.7 1.7 0 01-1.202.483h-1.806a1.7 1.7 0 01-1.193-.504 1.681 1.681 0 01-.486-1.195c.03-5.386.03-10.801.063-16.187v-.724c.002-.446.181-.873.499-1.188a1.701 1.701 0 011.197-.492h1.553a1.722 1.722 0 011.68 1.669l.076.861zm56.454.219c1.869-1.73 3.895-2.834 6.525-2.834 5.703.033 8.647 4.662 8.617 9.984l-.033 8.954a1.678 1.678 0 01-.498 1.205 1.705 1.705 0 01-1.212.497h-1.836a1.715 1.715 0 01-1.212-.497 1.7 1.7 0 01-.5-1.205l.033-8.88c0-2.93-1.586-5.227-4.689-5.227-3.103 0-5.005 2.55-5.038 5.448l-.044 8.66a1.684 1.684 0 01-.51 1.186 1.703 1.703 0 01-1.203.483h-1.806a1.7 1.7 0 01-1.191-.506 1.676 1.676 0 01-.485-1.194l.063-16.913a1.693 1.693 0 01.504-1.195 1.702 1.702 0 011.208-.486h1.553a1.74 1.74 0 011.175.51c.312.313.492.733.502 1.173l.077.837zm-73.701-3.21c-6.179-.034-10.55 4.406-10.582 10.516-.03 6.172 4.277 10.552 10.519 10.582 6.242.03 10.612-4.314 10.642-10.527.033-6.069-4.433-10.542-10.579-10.572zm51.289 12.628c.442 2.834 3.169 3.998 5.83 4.03a9.587 9.587 0 003.864-.85c.195-.079.385-.17.569-.273.635-.347 1.204-.565 1.776 0 .316.314.602.631.918.913.298.283.574.59.824.915.855 1.069.253 1.323-.728 1.984-2.092 1.385-4.816 2.077-7.32 2.077-6.714-.03-11.151-4.099-11.151-10.831.033-6.364 4.467-10.583 10.866-10.553 6.527.033 10.233 3.845 10.329 10.331.03 1.762.093 2.33-1.743 2.33l-14.034-.073zM75.555 28.91c3.2 0 5.321 2.774 5.321 5.828 0 3.181-1.995 5.738-5.354 5.738s-5.321-2.582-5.321-5.762c0-3.18 2.028-5.804 5.354-5.804zm51.429 3.498l10.519.03c-.382-2.615-2.567-3.653-5.069-3.653-2.501 0-4.672 1.166-5.45 3.623z" fill="#29303A"/></g><defs><clipPath id="clip0_306_3416"><path fill="#fff" d="M0 0h221v65H0z"/></clipPath></defs></svg>