<svg width="167" height="70" viewBox="0 0 167 70" fill="none" xmlns="http://www.w3.org/2000/svg"><g clip-path="url(#clip0_306_3406)"><path d="M135.196 21.233c2.166 0 3.846-1.722 3.846-3.886a3.82 3.82 0 00-3.846-3.843c-2.122 0-3.89 1.723-3.89 3.843-.044 2.164 1.768 3.886 3.89 3.886zm-33.152 2.695h5.79v3.533c1.459-2.12 4.686-4.063 8.487-4.063 7.205 0 12.687 6.139 12.687 13.692 0 7.508-5.482 13.692-12.687 13.692-3.801 0-6.984-1.943-8.487-4.063v14.53h-5.79v-37.32zm13.216 4.726c-4.685 0-7.912 3.665-7.912 8.436 0 4.726 3.227 8.436 7.912 8.436 4.642 0 7.869-3.666 7.869-8.436 0-4.726-3.227-8.436-7.869-8.436zm27.097-4.726h5.791v3.577c1.591-2.65 4.597-4.107 8.001-4.107 6.099 0 10.078 4.328 10.078 10.997v15.857h-5.791V35.367c0-4.152-2.122-6.67-5.481-6.67-3.846 0-6.807 3.004-6.807 8.613v12.942h-5.791V23.928zm-84.429-.53c-3.403 0-6.41 1.457-8 4.107V13.504h-5.791v36.748h5.79V37.311c0-5.61 2.962-8.613 6.808-8.613 3.36 0 5.48 2.517 5.48 6.67v14.884h5.792V34.396c-.044-6.67-3.979-10.998-10.079-10.998zm80.097.53h-5.79v26.324h5.79V23.928zm-53 26.854c-7.78 0-13.791-6.051-13.791-13.692s6.012-13.692 13.791-13.692c7.78 0 13.792 6.05 13.792 13.692 0 7.641-6.012 13.692-13.792 13.692zm0-5.388c4.642 0 7.913-3.622 7.913-8.304s-3.271-8.304-7.913-8.304c-4.685 0-7.956 3.622-7.956 8.304s3.27 8.303 7.956 8.303z" fill="#2C3242"/><path d="M23.048 20.543c-.044 1.76-1.279 4.268-3.352 4.268a2.35 2.35 0 01-2.338-2.332v-.044c-.044-2.068-.97-3.871-2.426-5.147a7.545 7.545 0 00-3.97-1.716c1.279-1.32 3.087-2.112 5.072-2.112 2.515 0 4.809 1.452 6.132 3.563a6.64 6.64 0 01.882 3.52zm-8.204.177c1.102 1.407 1.764 4.091.176 5.411a2.366 2.366 0 01-3.308-.264 7.103 7.103 0 00-5.162-2.376c-1.455-.044-2.91.396-4.146 1.232a6.997 6.997 0 012.514-4.884c1.985-1.628 4.764-2.111 7.147-1.144a6.089 6.089 0 012.779 2.024zm-6.176 5.367c1.72.352 4.014 2.024 3.661 4.048-.22 1.276-1.456 2.112-2.735 1.892H9.55a7.02 7.02 0 00-5.47 1.496 7.059 7.059 0 00-2.382 3.608C.639 35.635.154 33.743.463 31.763a7.225 7.225 0 014.764-5.456c1.103-.352 2.338-.44 3.44-.22zm-1.28 8.096c1.544-.836 4.368-1.012 5.382.748.662 1.1.265 2.552-.838 3.212-1.764 1.056-2.867 2.772-3.264 4.664-.265 1.408-.133 2.904.53 4.268-1.765-.44-3.398-1.584-4.368-3.3a7.157 7.157 0 01.088-7.216c.618-1.012 1.456-1.848 2.47-2.376zm4.235 6.996c.662-1.628 2.69-3.564 4.588-2.86a2.332 2.332 0 011.411 2.992c-.662 1.936-.397 3.96.53 5.632a7.004 7.004 0 003.132 2.948c-1.677.791-3.618.968-5.47.264a7.12 7.12 0 01-4.588-5.588 7.337 7.337 0 01.397-3.388zm7.764 2.64c-.573-1.672-.265-4.444 1.676-5.148 1.235-.44 2.559.176 3 1.408.75 1.892 2.25 3.3 4.058 4.004 1.324.527 2.867.615 4.323.264-.75 1.671-2.161 3.035-4.014 3.74-2.426.88-5.205.351-7.102-1.365-.882-.836-1.588-1.804-1.941-2.904zm7.675-2.949c-1.5-.923-3.088-3.255-2.029-5.015a2.417 2.417 0 013.22-.88 7.168 7.168 0 005.69.484 7.241 7.241 0 003.486-2.596c.485 1.76.308 3.696-.706 5.412a7.038 7.038 0 01-6.308 3.52c-1.235 0-2.426-.308-3.353-.924zm3.97-7.171c-1.764.264-4.455-.528-4.808-2.552-.264-1.232.618-2.464 1.897-2.684h.044a6.91 6.91 0 004.632-3.256 6.85 6.85 0 00.97-4.18c1.5 1.012 2.647 2.64 2.956 4.576.441 2.508-.573 5.148-2.559 6.732-.926.704-2.029 1.232-3.132 1.364zm-1.587-8.008c-1.192 1.32-3.75 2.464-5.338 1.144a2.316 2.316 0 01-.309-3.3 6.986 6.986 0 001.456-5.5 7.212 7.212 0 00-1.941-3.871 7.143 7.143 0 015.25 1.628c1.984 1.628 2.91 4.312 2.381 6.82-.22 1.143-.75 2.243-1.5 3.08z" fill="#175FFF"/></g><defs><clipPath id="clip0_306_3406"><path fill="#fff" d="M0 0h167v70H0z"/></clipPath></defs></svg>