<svg width="241" height="65" viewBox="0 0 241 65" fill="none" xmlns="http://www.w3.org/2000/svg"><g clip-path="url(#clip0_306_3412)"><path d="M100.992 39.205V29.58c0-.25-.169-.418-.421-.418h-3.2v-3.766h3.2c.252 0 .421-.168.421-.419v-6.025h4.547v6.025c0 .251.168.419.421.419h4.463v3.766h-4.463c-.253 0-.421.167-.421.418v8.537c0 4.017 1.431 4.352 3.284 4.352.674 0 1.684-.084 2.273-.168v3.933c-.757.084-2.02.252-3.452.252-1.769-.084-6.652-.084-6.652-7.281zm123.617 2.343l3.705-1.925c.842 1.925 2.442 3.18 4.294 3.18 1.432 0 3.032-.586 3.032-2.343 0-1.172-.758-1.841-2.526-2.427l-2.526-.837c-3.537-1.088-5.306-3.096-5.306-5.942 0-3.599 3.032-6.277 7.158-6.277 3.284 0 6.063 1.758 7.41 4.52l-3.705 2.008c-.842-1.758-2.189-2.762-3.789-2.762s-2.695.837-2.695 2.093c0 1.087.842 1.925 2.526 2.427l2.527.837c3.705 1.171 5.473 3.18 5.473 5.941 0 4.352-3.789 6.612-7.579 6.612-3.789-.084-6.82-2.009-7.999-5.105zm-13.979-3.766c-.084.084-.168.167-.168.25v8.035h-4.632v-29.71h4.632v16.236c0 .167.084.335.252.335.169.084.337 0 .422-.084l7.494-7.532h5.642l-8.758 8.787c-.168.168-.168.335 0 .503l9.516 11.465h-5.642l-7.326-9.038c-.085-.084-.169-.168-.253-.168-.084 0-.168 0-.252.084l-.927.837zm-7.073-9.624l-2.948 2.761c-1.684-1.255-3.368-1.84-5.22-1.84-3.874 0-6.737 2.844-6.737 6.694s2.863 6.695 6.737 6.695c1.684 0 3.452-.585 5.305-1.84l2.61 2.761c-3.789 2.762-5.81 3.264-8.421 3.264-3.115 0-5.894-1.088-7.915-3.097-1.937-1.924-3.032-4.77-3.032-7.783 0-6.277 4.632-10.88 11.032-10.88 2.105 0 5.221.335 8.589 3.264zm-21.726-8.955c0 1.506-1.263 2.762-2.779 2.762s-2.779-1.256-2.779-2.762c0-1.507 1.263-2.762 2.779-2.762s2.779 1.255 2.779 2.762zm-.421 26.864h-4.631V25.396h4.631v20.671zm-14.736-9.038v9.122h-4.632V25.479h4.547v2.511a.46.46 0 00.253.419c.169.083.337 0 .421-.168 1.179-1.925 3.368-3.18 5.726-3.18.337 0 .59 0 .758.084v4.686c-.253-.084-.674-.084-1.094-.084-3.706-.083-5.979 2.762-5.979 7.282zm-24.842-1.256c0-3.766 2.864-6.695 6.569-6.695s6.568 2.93 6.568 6.695c0 3.766-2.863 6.695-6.568 6.695-3.705 0-6.569-2.929-6.569-6.695zm.421 7.867h.169c.084 0 .252.084.337.167 1.6 1.842 3.957 2.846 6.652 2.846 5.726 0 10.105-4.77 10.105-10.88 0-3.013-1.01-5.69-2.947-7.783-1.853-2.008-4.463-3.096-7.242-3.096-2.611 0-5.053 1.088-6.653 3.012-.084.084-.252.168-.421.084-.168-.084-.252-.167-.252-.335V16.441h-4.632v29.71h4.632v-2.093c0-.25.084-.334.252-.418zm-19.199-1.172c-3.621 0-6.568-2.929-6.568-6.695 0-3.766 2.863-6.695 6.568-6.695 3.705 0 6.568 2.93 6.568 6.695 0 3.766-2.947 6.695-6.568 6.695zm10.863 3.6V25.395h-4.547v2.092c0 .167-.085.335-.253.335-.168.083-.337 0-.421-.084-1.516-1.841-3.874-2.846-6.653-2.846-5.726 0-10.104 4.771-10.104 10.88 0 6.11 4.463 10.88 10.104 10.88 2.611 0 5.053-1.088 6.653-3.013.084-.167.253-.167.421-.084.168.084.253.168.253.335v2.26h4.547v-.084zm-49.851-3.6c-3.621 0-6.569-2.929-6.569-6.695 0-3.766 2.864-6.695 6.569-6.695 3.62 0 6.568 2.93 6.568 6.695 0 3.766-2.947 6.695-6.568 6.695zm10.863 3.6V25.395H90.38v2.092c0 .167-.084.335-.252.335-.169.083-.337 0-.421-.084-1.516-1.841-3.874-2.846-6.653-2.846-5.726 0-10.105 4.771-10.105 10.88 0 6.11 4.463 10.88 10.105 10.88 2.61 0 5.053-1.088 6.653-3.013.084-.167.252-.167.42-.084.17.084.253.168.253.335v2.26h4.548v-.084zm-35.452-3.6c-3.705 0-6.568-2.929-6.568-6.695 0-3.766 2.863-6.695 6.568-6.695 3.62 0 6.568 2.93 6.568 6.695 0 3.766-2.947 6.695-6.568 6.695zm10.863 3.6V16.44h-4.632v11.13c0 .168-.084.335-.252.335-.169.084-.337 0-.421-.083-1.6-1.841-3.958-2.846-6.653-2.846-5.726 0-10.105 4.77-10.105 10.88 0 3.013 1.01 5.69 2.948 7.783 1.852 2.009 4.463 3.097 7.242 3.097 2.61 0 5.052-1.088 6.652-3.013.084-.084.253-.168.421-.084.168.084.253.167.253.335v2.176h4.547v-.084z" fill="#000"/><path d="M36.555 28.116l-17.291 9.808L.87 27.474 0 27.94v7.59l19.264 10.977 17.291-9.809v4.029l-17.291 9.809L.87 40.084l-.87.468v1.284l19.264 10.977 19.322-10.977v-7.59l-.87-.467-18.452 10.45-17.233-9.808v-3.97l17.233 9.75 19.322-10.976V21.75l-.986-.525-18.336 10.393-16.305-9.284 16.305-9.225 13.462 7.59 1.218-.642v-.934l-14.68-8.29L0 21.75v1.168l19.264 10.977 17.291-9.81v4.03z" fill="#FF3621"/></g><defs><clipPath id="clip0_306_3412"><path fill="#fff" d="M0 0h241v65H0z"/></clipPath></defs></svg>