<svg width="1922" height="989" viewBox="0 0 1922 989" fill="none" xmlns="http://www.w3.org/2000/svg"><g opacity=".3" fill="#286AFF"><path fill-rule="evenodd" clip-rule="evenodd" d="M1526.85 195.616l-1.58 4.461 3.95 2.622 4.46-2.622-1.58-5.507-5.25 1.046zm-376.33 119.096l7.2 5.71 3.32-5.208 1.1-4.305-4-2.503-4.82-.701-2.8 7.007zm-14.04 16.926l2.3 2.901 8.02-4.908-1.8-4.803-5.01-.201-2.81 4.305-.7 2.706zm177.56-74.387l12.1 1.571.52 6.034-4.73 1.312-5.52-3.412-2.37-5.505zm31.83-19.933l2.1 9.701h5l1.05-8.653-5-4.196-3.15 3.148zm11.04 8.127v11.018l12.36-2.622 11.59-6.034-3.95-8.918-7.64-1.049-5.78-1.311-4.21 6.297-2.37 2.619zm3.96-61.368l3.68 7.868 23.66.261 6.85-12.589-4.47-9.704-5 5.511-9.74-.788-2.62 4.456h-5.27l-.78 5.246-6.31-.261zm-9.21-39.342l-1.59 5.771 4.75 1.049 1.83-4.983-4.99-1.837zm-12.64 50.88l5.54 8.394 10.26 2.099.26-11.806-3.42-5.769-12.11-.783-6.3 4.456-9.73-1.574-.79 6.557 5.77 6.035-3.14 3.671-9.22-7.607-11.04 1.051-.79 8.916 1.05 9.179 4.99 6.294 1.85 7.08 10.26 2.885 9.47-.786-.79-9.967 6.84.788 5.26-8.655 6.3 1.31 4.22-4.718-4.22-4.198-9.2-2.622-7.35-8.656 6.03-1.574zm-46.28 22.031l1.57 7.082 6.31 7.343 3.95-1.571-4.74-8.656-7.09-4.198zm272.95-15.599l-3.19 6.165-17.2 9.661-12.5-11.846-12.5-1.245-17.83 11.534-12.19 14.962-4.37 15.271-8.13 2.493-10.01-4.986-9.68.934-5.01 6.547-4.37-3.742-4.07 4.368-5-4.678 7.19-7.168-16.88-1.25-9.69 8.418 5.31 18.078-9.7 9.349v-14.024h-6.55l-6.57 5.922-1.56-7.171 9.69-8.728-10.32.626-30.63 15.583 5.93 7.168-8.75 8.418 3.44 6.232 6.25-3.118.63 9.043 7.5 8.727-11.57 2.803-3.43 4.678 3.12 7.477-9.37 1.561-12.51-3.742-3.75 14.024-21.27-3.739v31.169l-15-2.491-23.14-20.884 8.45-5.923-14.07-20.883-9.07-4.363-13.75 4.673-15.32-5.919-2.19 23.687-27.82 11.844-10.63-7.171 1.56-5.606-28.45-.314-7.49 9.975-1.89 6.547-1.87-9.663-5.31-4.678-6.25 6.547-8.67 4.32-.48 5.939 4.05 5.382.08.11.03.131 1.84 9.601 13.39 18.894.11.152v12.481l6.83 8.177.39.454-16.08 12.731-.9 7.173-.02.139-.08.115-3.65 5.47-2.77 13.317-.11.523-.52-.064-7.65-.899-12.37 10.037-.04.038-.06.029-4.14 2.135 9.8 14.938.08.127.01.145 3.33 41.755.02.24-.17.192-8.62 9.499 5.69 4.362.29.22-2.39 11.452 5.03 5.48.15.163v7.984l5.94 4.098.37.26-.15.425-2.86 7.584-.03.1-.06.074-8.94 10.779-.86 7.718h14.77l.17.129 6.33 4.954 6.78-4.508.45-.293.34.415 3.8 4.74.3.389-.02.029 4.98 7.528.33.492-.51.321-5.64 3.581v6.667l6.26.483 5.2-3.642.55-.375.3.583 6.47 12.355.07.131v.157l-.53 14.679 8.31 4.663.38.213-.1.43-3.73 15.377 4.67 10.321 10.52 3.145.61.189-.25.597-8.04 18.71-1.59 23.277 8.08 8.566 8.75-6.667.14-.108.19-.007 13.13-.521 4.69-8.319.38-.662.54.535 7.09 7.076 9.24-10.736 14.51-31.078.13-.275.3-.052 9.7-1.612.16-.026.15.062 18.85 7.517.25.1.09.256 4.1 12.278 11.27-5.11.3-.134.28.187 6.99 4.835.13.093.07.15 12.69 28.684 16.48 30.464 10.38-6.765.04-.033.05-.02 10.79-4.3.31-.126.27.212 8.24 6.674 4.86-4.317.39.353 6.6 6.07 6.06-6.048.17-.182.26.007 15.08.542.2.007.15.115 9.43 7.317 18.55-6.868.32-.113.26.213 6.18 5.139 25.52-11.664.18-.086.18.04 7.38 1.576 8.01-2.992-.99-5.974-.08-.416.38-.196 19.75-10.239-4.95-13.883-.12-.327.25-.258 6.63-7.088-2.74-6.84-12.63-8.236-.45-.287.25-.463 6.64-12.789-12.36-8.53-.53-.37.43-.484 5.75-6.705v-28.617l.39-.146 24.23-9.183.95-10.918.05-.494.49-.036 14.38-.95 3.27-8.854-.49-9.193-.02-.389 7.29-3.389-5.22-18.446-9.66-6.748-.34-.234.11-.397 6.34-22.372-8.78-23.355-.11-.303.19-.251 4.91-6.375.26-.333.4.136 17.05 5.829 10.89-2.359 3.96-6.884.28-.04 12.9-1.909 2.3-8.25-21.47-44.409-.08-.176.03-.187 2.18-10.857.05-.225.18-.136 14.4-10.13-5.43-10.406-.2-.389.32-.3 13.94-13.029.15-.136.19-.019 12.41-1.28 7.12-7.939 1.26-13.852-8.06-7.186-.17-.164-.02-.242-.42-8.954-5.14-7.687-.27-.41.36-.337 6.12-5.702-6.6-7.832-.36-.423.4-.375 16.11-14.764.08-.072.1-.036 7.25-2.975 5.38-7.834-10.16-21.08h-12.82l-.12-.048-10.01-4.341-.22-.101-.09-.224-5.22-13.463-.13-.322.23-.26 20.32-23.724v-11.655l-26.59-19.89zm31.54-155.305l13.49 15.93 2.95-2.94 3.67-18.377 4.42-8.577-4.91-6.616-12.26.979-7.36 11.027v8.574z"/><path fill-rule="evenodd" clip-rule="evenodd" d="M1805.34 207.049l-3.06-33.748-9.38-5.296 22.19-15.275-3.12-10.285-41.27-3.431-5 6.548-11.25.933-1.26 8.728-9.06-.624v-12.154l10.32-3.431 4.06-8.412-2.19-22.131-4.07-1.557-5 3.114-.31-8.102-9.69 3.737-6.57-7.479 2.5-12.156 8.13 7.17 4.69-3.742 6.88 7.482 4.06-9.351-.93-11.22 7.5-6.235 13.13 1.248 21.88-16.519-5.31-6.237 10.94 1.56-.31-10.598-11.88 2.182-3.44-7.478-15.95-3.119 6.26-7.791-8.13-5.922 7.5-5.299L1768.82 0l-26.57 15.585-1.57 12.78-7.19 9.351 17.83 7.169-9.69 4.365-28.77-7.792-33.44 22.128-50.02 27.117-13.45 21.82 1.25 6.543-9.07 2.492-12.81 11.536 9.07 11.221 8.13-2.493 12.19 6.858-1.25 12.156-11.25 1.245-7.51 4.363-15.95-9.975v20.261l-16.25 12.159-6.28 12.116 26.99 20.18.24.174v12.658l-.14.165-20.25 23.623 5.01 12.911 9.68 4.196h13.32l.16.334 5.09 10.573 8.41 1.262.28.039.13.249 5.4 9.516 11.27-5.409.21-.1.22.069 10.58 3.372 8.02-7.159.15-.136.2-.014 12.41-.853 9.22-9.608-1.69-9.265-.09-.499.49-.158 9.28-2.944 2.53-8.821.1-.377 8.3-.872 2.49-7.462.1-.308.32-.072 14.56-3.417 3.79-6.724.16-.275.31-.021 21.79-1.304.43-.024.15.406 5.03 13.814 15.16-4.615.09-.029.09.002 16.56.425 13.37-38.248.22-.636.6.31 8.06 4.234 10.32-3.118zm102.31 171.167l4.87 4.849 9.48-7.758-4.13-.972-10.22 3.881zm-40.77 204.636l.76 3.641 4.72 3.033 2.27-5.761-2.58-4.246-5.17 3.333zm14.9-6.967l-.76 3.486 5.16 1.965 2.75-3.03-5.03-4.393-2.12 1.972zm-3.2 7.578l-1.21 14.397 5.63 7.278 5.15-2.428-1.06-14.244-4.09-3.789-4.42-1.214zm8.06 31.974l-.76 5.306 2.43 5.306 6.69-3.033.91-3.482-9.27-4.097zm8.6 42.131l-2.48 4.755 3.73 5.377 4.57-4.336-2.91-5.387-2.91-.409zm.42 26.691l2.49 4.138 3.52-1.238.84-6.629-4.57-1.031-2.28 4.76zm3.11 10.758l-3.74 3.928 2.91 7.868 8.71-2.281-2.9-8.068-4.98-1.447zm-5.81 32.693l-4.35 4.345.41 18.623.21 4.349h4.56l3.73-10.765-.83-10.55-3.73-6.002zm-13.07 35.59l4.56.208 1.45 5.996-3.32 5.177-4.36 6.206-.42 6.825-1.24 8.483-.83 6.419-2.07-1.031-1.66-11.174-.41-13.871 5.6-5.793 3.12-2.688-.42-4.757zm-16.47 74.038l2.25-.99.9-16.169 2.8-3.233.53-4.225-2.97-1.883-4.58 2.151-2.52 1.977 2.25 7.097-.81 9.168 2.15 6.107zm17.09-16.261l1.53 3.499 4.58-1.615-.99-4.85-2.51-3.505-2.52 2.426-.09 4.045zm-88.15-475.114l-3.65 10.912 13.88 15.519 1.94-22.308-7.54-3.396-4.63-.727zm91.45 40.739l3.65 5.577 13.87 2.183 5.58-2.908-3.4-5.822-10.21-1.213-9.49 2.183z"/><path fill-rule="evenodd" clip-rule="evenodd" d="M1631.97 509.507l8.37-5.501 5.62-4.678 7.82-1.871-2.5-15.893 13.75-4.365 10.63-9.351 9.69-.313-7.18 10.29 6.87 5.922 10-11.224 2.51-17.765 9.06-3.429 7.19-9.351-7.49-5.612-6.57 8.108-6.88-6.548-1.88-32.105-5.94-19.012 1.88-14.029 11.57-16.519 6.56-.307 3.13-9.351 13.43 18.391 9.39-1.562.62-6.858-2.19-14.027-2.37-9.875-9.03-5.077-.24-.133-.04-.263-1.73-9.003-5.81-5.382-9.4.85-.43.041-.16-.411-5.6-14.583-8.03-1.681-.23-.05-12.99-18.833-9.25 9.637-12.65.87-8.13 7.247-.25.222-.31-.103-10.67-3.402-11.55 5.547-.49.234-.27-.475-5.52-9.736-7.35-1.1 4.76 9.868.14.304-.19.274-5.66 8.252-.1.141-.16.067-7.31 3.002-15.63 14.32 6.96 8.248-.4.375-6.17 5.743 4.95 7.407.09.128.01.165.42 8.881 8.09 7.218.22.192-.02.291-1.31 14.329-.02.194-.12.143-7.41 8.25-.15.167-.22.023-12.43 1.283-13.47 12.592 5.45 10.465.23.451-.41.294-14.62 10.285-2.1 10.444 21.19 43.824 9.78-6.492.23-.158.27.094 22.13 7.354.32.107.07.328 2.45 12.254.04.206-.1.185-5.26 9.545 3.98 7.933 8.79-6.455.15-.112h11.84l.16.291 5.58 9.719zm17.07 377.962l-1.2 36.384 6.57 11.218-25.64 2.187-8.44 18.386 23.76 24.313.62 9.043 13.14-12.466 22.5.309 16.26-13.094 9.7-19.322 4.68-52.995 6.57-27.736-4.37-32.458-6.42-1.818-.35-.093-.07-.351-1.57-7.765-10.68-7.61-11.96 8.944 7.11 7.673 11.31.946.61.047-.08.609-2.57 17.577-.07.483-.48.014-8.03.303 1.21 11.203.04.352-.29.193-11.54 7.672-.13.081-.16.015-18.96 1.258-4.77 6.218 3.7 7.343.33.663-.72.163-9.61 2.111z"/><path fill-rule="evenodd" clip-rule="evenodd" d="M1638.58 848.256l8.32 13.568-3.12 9.98 5.09 14.511 8.79-1.931-3.51-6.999-.16-.33.22-.281 5.13-6.715.16-.215.26-.012 19.08-1.267 11.12-7.391-1.31-12.092.62-.027 8.17-.303 2.4-16.483-10.92-.913-.22-.019-.15-.162-7.7-8.307-.44-.477.52-.383 12.82-9.589.34-.256.34.248 11.22 7.988.19.133.06.23 1.53 7.638 5.71 1.617 2.86-36.766-4.07-11.529-18.14-36.775-5.93-7.171-5.32-25.872-3.61-8.605-1.27-1.396-13.56-5.585-4.69-5.606 4.06-8.109-10-4.051-20.94-3.741-16.26 8.414-5.63 24.629-6.87-8.734-7.82 9.98-6.57-19.014-13.75 8.413-11.57-1.867.63-10.91 15-37.402 3.76-37.401 4.36-18.081-3.74-14.962 4.99-13.398-2.18-14.34 31.57-30.858 10 1.866.95-3.737-2.82-4.363 4.41-2.897-5.44-9.492h-10.78l-9.19 6.751-.55.406-.31-.614-4.42-8.828-.14-.27.15-.267 5.3-9.616-2.36-11.724-21.52-7.156-9.92 6.588-2.4 8.617-.11.363-.37.057-12.99 1.918-3.79 6.622-.13.223-.26.051-11.31 2.455-.16.031-.15-.05-16.81-5.745-4.47 5.781 8.74 23.234.06.18-6.33 22.341 9.49 6.624.18.122.05.194 5.41 19.127.14.47-.45.208-7.02 3.264.47 8.926v.122l-.04.107-3.44 9.315-.12.356-.38.026-14.26.946-.94 10.785-.03.361-.35.129-24.2 9.172v28.248l-5.63 6.538 12.26 8.458.42.296-6.87 13.224 12.34 8.047.15.1 3.02 7.525.13.343-6.89 7.362 4.77 13.401 19.6-10.168.39-.205.31.324 6.73 7.264-.17.359-9.62 20.802 1.06 10.046.04.375-.33.187-7.23 4.119.48 8.221h16.47l.17.253 7.36 11.008 8.08-.504 13.18-12.091 2.11-8.96.1-.449h10.34l3.08-6.124.19-.376.42.062 6.99 1.072.36.053.1.351 6.47 19.869.12.337-.26.246-4.3 4.301-.13.126-.19.033-15.94 2.562 3.98 8.432.16.353-.26.29-6.35 6.856-1.59 8.963-.03.155-.1.122-9.39 10.918 4.02 4.997.27.346-.26.357-6.35 8.435v10.195l16.92 8.43.13.067.08.115 13.61 18.798 8.51-8.055.18-.162.24.008 18.27.314.2.008.15.119 8.09 6.511 24.38-8.207 1.01-.336-.26 1.027-2.55 10.306z"/><path fill-rule="evenodd" clip-rule="evenodd" d="M1569.4 865.171l9.35 14.734 10 8.727 21.27-10.282 2.8-8.733 15.95-17.765 8.69-3.979 2.29-9.171-23.68 7.966-.31.107-.24-.201-8.18-6.585-17.84-.316-8.77 8.303-11.33 17.195zm-170.13-55.389l21.3-10.917 16.26 5.606 19.69-3.111 28.76 28.361 35.63 36.777 14.08-5.606 8.75 4.053 6.25-3.121 11.89 3.741 6.42-.836 11.27-17.116-13.67-18.898-17.12-8.521-.32-.17v-11.288l.11-.155 6.2-8.233-4.33-5.399.31-.363 9.59-11.151 1.6-8.974.03-.174.11-.122 6.19-6.7-4.13-8.771-.33-.697 17.27-2.778 3.93-3.915-6.25-19.187-6.22-.96-3.05 6.061-.16.33h-10.13l-2.05 8.679-.04.174-.13.12-13.47 12.354-.15.132-.2.014-8.96.566-.18-.281-7.37-11.02h-16.94l-.03-.55-.54-9.127-.02-.365.31-.171 7.22-4.112-1.04-9.827-.02-.159.07-.141 9.53-20.595-5.9-6.371-39.63 20.549 1.01 6.028.08.47-.46.168-8.61 3.218-.16.062-.16-.036-7.37-1.569-25.66 11.73-.34.154-.28-.233-6.21-5.16-18.54 6.868-.31.113-.24-.2-9.56-7.402-14.64-.518-6.28 6.265-.39.394-.41-.382-6.62-6.081-4.45 3.942-.37.329-.39-.315-8.35-6.76-10.39 4.143-10.13 6.607 12.79 8.499.5.331-.34.49-3.82 5.32 5.9 5.882 11.18-6.197.29.504 5.11 9.011 8.19-1.936.65-.16.06.683 1.2 16.027 8.34 4.757.55.315-.36.52-4.69 6.622 13.29 19.862zm279.66-106.483l-.45-1.058 18.45 9.978 5.93 15.578 9.07 11.534 10.94 17.457 7.81 12.776 9.07 6.86 2.81 8.102 2.51 7.171 11.25 5.299 1.57 11.218 11.56 14.654.94-12.783-1.57-9.665 9.07-.622 3.43-1.556 8.44 4.365-6.86-14.339h-10.02l-10.63-4.673-12.18-8.732-7.82-19.944-4.38-12.784 9.38-5.299 17.51-.929-39.38-26.498-27.83-24.934-12.82-24.003-17.52-12.152-8.11-10.289-5.63 2.495-1.25 5.925 10.31 7.168 5.64 8.414-3.14 4.051-5-1.247-1.56 7.171 10.01 7.476 10 22.757-.82-.338 1.27 1.396zM171.211 472.173l-5.173 2.223-2.501 4.985-3.755.939-.314 6.23 5.319 3.121-1.295 11.648 6.297 5.401 2.881-1.622.179-.097.201.034 4.002.665.105.352 1.562 5.255 5.798 3.864 8.591 1.794.172.037.125.129 8.514 8.696 3.837-3.467.167-.15h3.528l.177.213 1.61 1.965 1.777-.296.963-2.238-3.846-5.189-.105-.136-.015-.169-.372-5.064-4.076-1.3-.246-.076-.108-.231-1.215-2.625-.052-.122v-4.375l-1.904-2.471-.12-.16v-9.301l-13.677-17.82-17.031-.642zm19.37-41.643l-8.6-.706-6.25-5.922.623-5.612-5.938-1.245-3.444 8.414-12.501 10.595.938 6.861 6.563-.311 5 4.049 1.878 8.729 5.628-.624 6.564 1.246v4.363l-8.162 10.707 15.479.588 19.27-14.065-1.612-2.632v-3.505l.173-.17 2.292-2.289.052-.045.065-.041 3.273-1.924-.373-2.586-3.894-.28-2.119 1.662-.312.239-.335-.191-3.444-1.963-.147-.084-.081-.153-2.131-4.085-.058-.11-.005-.133-.167-3.759-.002-.165.083-.149 1.993-3.44-9.231-.595-.17-.009-.138-.103-.76-.557z"/><path fill-rule="evenodd" clip-rule="evenodd" d="M217.772 377.764l-1.404 2.501-10.318 5.921-5.314 8.417-5.626 11.532-.623 9.348 1.562 5.614-4.064 4.985-.254 3.855.161.116 9.85.633 3.971-1.74.112-.05h.132l7.798.161 4.256-3.925.182-.17.242.015 5.735.327.413.022.112.394 2.416 8.273 2.145-1.256.177-.105.201.028 4.265.655.245.041.141.203 2.102 2.989 11.159-1.096 6.665-4.277 7.393-10.57.285-2.553-5.087-6.182-.105-.129-.024-.163-.764-5.625-12.526-2.214-.132-.024-.112-.081-6.061-4.413-.113-.081-.06-.115-8.033-15.034-.014-.026-.01-.022-2.539-6.017-2.409-1.272-4.859 1.253-.122.031-.11-.017-1.037-.157zm-28.407 94.6l13.598 17.724.12.16v9.299l1.899 2.471.122.16v4.515l1.06 2.284 4.123 1.308 6.311.308 1.954-3.445.057-.1.085-.065 11.948-9.659 1.243-9.767-5.187-4.702-.084-.078-.053-.107-2.623-5.724-.057-.124.005-.132.318-9.935-15.751-8.322-19.088 13.931z"/><path fill-rule="evenodd" clip-rule="evenodd" d="M231.109 498.436l-11.597 9.375-2.081 3.661-.174.313-.354-.019-6.082-.294.341 4.642 3.786 5.102 6.406.39.319.017.156.279 1.818 3.231.079.136v3.828l3.915 1.863.278.128.045.309.977 6.239 10.261 7.937 4.981-2.295 1.322-3.077-.78-4.975-1.442-3.035-.13-.269.149-.263 2.131-3.761.096-.162.168-.077 8.768-4.049 5.163-4.678.153-5.698-1.228-3.823-4.618-3.651-.124-.103-.058-.15-1.511-4.073-4.397-.44-6.904 3.207-.144.062-.161-.014-5.154-.516-.155-.184-4.218-5.113z"/><path fill-rule="evenodd" clip-rule="evenodd" d="M225.365 466.753l-.313 9.84 2.515 5.48 5.323 4.826.224.205-.041.299-1.277 10.045 4.28 5.182 4.519.451 6.903-3.204.141-.065.163.015 4.373.437.403-2.563.023-.145.079-.113 3.116-4.248.019-.023.024-.026 6.239-6.698v-4.428l.17-.167 3.737-3.729-.762-7.614-4.51-2.79-.146-.089-.074-.151-1.959-4.068-9.53.46-2.289 2.744-.324.385-8.715-5.285-2.321-.723-9.99 5.76z"/><path fill-rule="evenodd" clip-rule="evenodd" d="M262.927 487.24l-6.209 6.664-3.015 4.119-.445 2.806 1.528 4.124 4.768 3.766.053.167 1.312 4.085.029.096-.002.096-.109 3.989 6.438.323.328.015.154.286 3.856 7.048 3.906 2.245 2.469-.726 3.951-2.507.329.366 5.966 6.593 4.011 1.382 3.617-.148 11.974-10.65.022-.019.033-.024 6.352-4.479-1.483-3.998-2.44-6.648-12.27-20.605-7.484-.302-2.607 2.294-.339.299-.368-.247-2.953-1.962-.01-.01-2.914-2.034-1.464 1.194-.103.079-.127.033-5.244 1.306-.195.05-.184-.083-2.929-1.312-2.007 1.863-.16.144-.209.01-5.826.312zm-4.326-24.994l1.779-2.215 2.841-4.094v-9.613l-4.45-2.447-.125-.07-.084-.126-3.444-5.394-.065-.108-.019-.119-.848-5.49-6.243 4.007-11.783 1.158-.336.031-.193-.277-2.153-3.061-3.818-.588-2.603 1.528-.639.38-.214-.716-2.505-8.594-5.083-.289-4.418 4.076-8.133-.167-3.811 1.674-2.275 3.933.149 3.462 1.994 3.821 2.953 1.683 1.986-1.557.178-.14.225.019 4.586.327.472.033.062.466.491 3.428.06.385-3.875 2.283-2.076 2.07v2.701l1.63 2.665 15.97 8.435 10.213-5.883.217-.129.244.077 2.625.814.06.019.065.043 7.932 4.807 2.141-2.56.163-.199.256-.009 9.901-.48zm48.637-18.775l-3.191 2.925-6.288 7.233-1.871 5.752 2.695 8.221 3.354 4.301 2.093 1.924.279.258-.124.364-2.13 6.043-.024.074-.039.053-2.917 4.438 11.973 20.108 8.349-4.978.132-.077.151-.004 10.59-.353 11.642-7-2.434-6.796-11.397-14.56-5.637-2.46-.116-.051-.084-.087-4.327-4.678-.329-.354.291-.387 3.175-4.221 1.336-5.326-2.646-2.635-5.721 4.702-.42.346-.373-.394-5.418-5.76-.141-.15-.433-6.471z"/><path fill-rule="evenodd" clip-rule="evenodd" d="M322.678 452.477l.772.767.232.229-.082.323-1.442 5.754-.033.112-.07.096-2.955 3.933 3.92 4.233 5.66 2.47.136.057.089.119 11.548 14.748.06.081.031.083 2.453 6.856 3.76-.747 2.888-4.145.28-.019 6.984-.535.252-.019.187.176 2.732 2.559 4.375-2.495 1.273-15.144-6.884-3.772-.285-.158-.017-.322-.347-6.235-3.183-2.854-5.092 1.694-.234.079-.22-.118-16.806-8.911-9.982 1.105z"/><path fill-rule="evenodd" clip-rule="evenodd" d="M339.767 453.825l10.029 5.317 5.171-1.719.324-.107.251.223 3.607 3.239.179.16.015.241.339 6.153 7.27 3.986-.032.372-1.279 15.204 20.686.174 2.543-1.688.151-.103 6.988.186.402.01.138.373 1.885 5.302 5.495 2.399.106.045.077.079 4.691 4.758 7.818-7.939.246.005 18.556.351.342-11.66.008-.215.144-.163 3.594-3.908-4.064-4.052-9.786 2.437-.227.06-.207-.122-14.795-8.634-.139-.084-.077-.141-8.947-16.409-13.455-8.123-20.587-1.06-7.053 4.923-.134.098-.171.01-7.999.343-2.363 3.704-.072.112-.118.072-9.55 5.791zm-30.892-17.212l8.846-3.991-1.22-4.133-.041-.129.027-.134 2.721-14.933.095-.511.518.033 7.638.528 9.682-9.394-1.266-11.147-9.461.06-.062.609-11.278-10.015-6.471.392-.173-.143-7.47-6.087-.148-.122-.048-.193-1.324-5.478-5.561-3.946-2.041 1.563-.941 5.082-.093.52-14.282-1.223-.189-.014-.146-.132-4.612-4.028-13.424-3.5-.109-.029-.088-.062-7.075-5.105-.031-.022-.038-.038-3.736-3.739-3.627 3.615-2.148 8.928-.052.084-3.973 6.115-.134.208-.24.048-9.323 1.795 2.337 5.53 7.954 14.889 5.844 4.252 12.817 2.267.421.074.055.42.798 5.886 5.14 6.245.158.19-.026.239-.082.728 10.864-1.504 1.502-1.497.296-.294.376.186 2.293 1.146.344.17-.021.382-.309 5.057 12.846 8.219 12.117-.159.275-.005.177.21 5.122 6.037z"/><path fill-rule="evenodd" clip-rule="evenodd" d="M366.147 438.117l-7.557-7.197-.248-.239.093-.334 2.912-10.574-5.614-6.869-4.881.258-.189.007-.153-.101-12.683-8.166-9.741 9.454-.189.181-.256-.02-7.382-.508-2.605 14.285 1.324 4.486.144.485-.462.205-9.429 4.256-.913 4.539.488 7.187 4.895 5.208 5.72-4.692.407-.334.371.37 1.426 1.425 11.09-1.229.182-.021.154.085 5.522 2.925 10.026-6.074 2.454-3.845.165-.256.3-.014 8.131-.351 6.498-4.532zm-14.081 223.074l-.332 7.075 3.748 9.04 4.377-.933 3.126-2.811 6.568 3.119-.315 4.367-1.875 4.05 2.19 2.493 6.25 2.18 2.501 8.728 2.499 10.91-2.811 6.86 2.811 5.607 7.193-4.358 3.125.931 2.189 4.673 1.562 8.11 4.687 3.426 5.633-3.742 5.314.316 10.002 4.359-.315 4.673 2.19 3.742 5.003.941 4.062-4.367 4.378 4.367 5.627 3.425-1.252 8.727 1.252 4.988 5.626 6.23 4.687 1.562 4.692-2.81 3.753 1.248 2.814 5.614 11.566 3.742 5-3.742 5.003-7.168-8.844-19.302-.793-.537-.156-.114-.067-.189-2.062-6.168.323-.251 4.802-3.746 1.161-3.468-2.372-5.129-12.394-3.781-5.768 1.518-2.988 7.018-.17.386-.425-.04-7.481-.721-.209-.021-.146-.149-6.816-6.793-12.602-2.872-.263-.058-.122-.244-2.738-5.276-.187-.364.281-.293 4.916-5.237-3.087-3.248-.178-.18.012-.247.183-3.274.024-.408.392-.115 4.537-1.341.483-7.68-6.482.322-3.155 2.099-.791.523-.11-.938-1.094-9.093-.055-.452.422-.159 2.934-1.141.33-5.393-2.939-3.27-.155-.175.007-.23.361-12.715-3.539-4.932-.109-.158v-17.152l-3.414-7.528-.079-.18.045-.187 1.573-6.801-4.509-5.064-.189.793-.007.033-2.331 7.68-.014.052-.027.054-1.791 3.387-.079.153-.156.088-13.285 7.419-3.434 6.309-.225.069-9.134 2.856-.046.012-.043.007-4.673.693-9.362 8.099-.143.127-.192.014-13.526 1.053-.358.478zm-65.7-5.447l5.968 5.667-.627 6.23-1.56 4.99 3.434 6.237 6.882-3.118 3.436-6.863 4.066-4.358 9.694 1.87 5.313-4.366 3.749-.315 2.814 2.188 9.692-.624 7.189-1.871 4.833-1.065.293-.39.168-4.231-.513-3.57-4.754-6.846-.12-.174.014-.209.702-8.342-5.408-6.781-.079-.101-.033-.12-1.967-7.679-.014-.048-.002-.052-.335-4.439-4.462-1.484-.058-.02-.036-.019-13.254-7.143-.299-.159-.007-.338-.167-7.201-12.965-2.239-.103-.022-.091-.045-13.792-8.041-.287-.169v-4.821l-1.925-3.356-6.685-.689-.283-.026-.148-.235-9.815-15.404-13.05 6.71-.077.043-.086.012-7.563 1.308-.594 9.691-.182.154-2.089 1.866.604 7.516 3.925 5.118 5.865 1.227.166.034.119.119 10.56 10.211.178.165v8.113l-.152.17-4.662 5.272-.276 4.969 3.765.267 4.349-1.857.779-.336.344 9.291 2.649 3.813 6.167 1.227.456.096.012.461.335 14.131z"/><path fill-rule="evenodd" clip-rule="evenodd" d="M340.369 617.312l.321 4.357 1.928 7.51 5.473 6.861.146.19-.02.218-.696 8.372 4.795 6.907.017.132.536 3.751.007.046-.005.062-.148 3.808 12.951-1.007 9.346-8.085.126-.115.169-.029 4.79-.705 8.871-2.774 3.287-6.041.079-.15.144-.079 13.285-7.417 1.684-3.186 2.306-7.612.833-3.489-6.619-9.542-2.829-2.514-3.13 2.132-.112.027-2.69.53-.371.081-.218-.316-5.389-7.72-1.629 1.214-6.772 7.111-.055.059-.072.041-3.937 2.319-.206.121-.235-.06-5.013-1.248-.134-.031-.108-.096-7.673-6.76-5.18-3.79-4.788.511-7.976 1.039-3.163 4.48-.139 1.958 2.52 1.254.385.188-.076.423-.894 5.184-.052.308-.292.127-3.378 1.445zm-44.679-84.118l-3.505.148-.107.005-.103-.038-3.885-1.342-6.689 7.911-1.445 8.463-.16 12.863-.002.182-.108.152-2.131 2.94-.081.115-.123.066-1.482.757 9.601 15.084 6.701.684.299.03 2.3 4.005.076.135v4.466l13.41 7.813 13.047 2.261 9.709-9.169.946-2.668-2.39-4.601-.181-.355.265-.297 2.719-3.052v-12.633l-4.656-.316-.34-.026-.152-.308-3.268-7.048-7.492-1.329-2.476 2.138-.525.451-.354-.59-4.658-7.679-.072-.115-.01-.133-.675-8.578h-8.286l-.14-.386-3.577-10.006z"/><path fill-rule="evenodd" clip-rule="evenodd" d="M314.88 517.831l-6.287 4.431-11.816 10.51 3.446 9.653h8.547l.043.538.707 8.966 4.224 6.976 2.171-1.871.211-.183.267.047 8.058 1.429.304.055.126.274 3.255 7.016 4.235.289v-.197l.766.268 12.471 4.319 1.482-2.213 1.409-7.028.028-.14 1.683-2.051 2.587-4.301.151-3.063-3.451-1.975-.245-.139-.043-.282-.495-3.641-2.127-1.194-1.138 1.846-.165.261-.309.011-8.399.344-1.109 2.763-.466-.076-4.298-.715-.284-.048-4.611-8.643-.052-.096-.01-.122-1.233-12.295-9.633-9.723zm39.234 33.702l-.17 3.434-.077.122-2.473 4.112 8.152 9.687.062.069.033.086 1.145 2.816 6.036-1.729.029-.012.057-.007 7.973-1.015.836-6.163.038-.287.254-.14 4.12-2.322.074-.04.072-.022 8.207-2.044.838-6.839-2.249-12.072-15.624-5.02-8.941 2.525-.86 9.248-.022.262-.215.153-7.295 5.198z"/><path fill-rule="evenodd" clip-rule="evenodd" d="M311.556 506.211l2.297 6.249 1.594 4.294 10.182 10.277.019.206 1.243 12.381 4.292 8.046 3.549.59.903-2.246.141-.349.376-.015 8.464-.348 1.272-2.058.292-.475.491.274 2.862 1.609.251.142.043.288.497 3.639 3.192 1.82 7.002-4.991.872-9.374.038-.402.383-.107 9.08-2.56.443-14.064.539-.021 8.202-.357 4.415-3.519.32-.258.35.219 8.838 5.529 7.319-10.216.474.347 8.303 5.981 5.777-2.541 2.526-2.989-4.919-6.39-10.116-10.261-5.626-2.452-.234-.103-.084-.239-1.834-5.158-6.221-.161-2.536 1.682-.144.099-.184-.005-21.334-.173-4.879 2.78-.373.211-.317-.294-2.855-2.677-6.454.494-2.708 3.876-.132.196-.235.044-4.378.875-12.09 7.266-.129.079-.153.008-10.598.35-8.308 4.952z"/><path fill-rule="evenodd" clip-rule="evenodd" d="M393.639 521.773l-8.75-5.47-4.239 3.378-.148.117-.189.012-7.851.337-.407 12.978 15.701 5.046.329.104.067.342 2.325 12.501.019.085-.01.089-.777 6.349 4.229-1.669.06-.026.074-.008 13.134-1.816.132-.019.122.04 9.304 2.908.211.07.115.189 2.912 4.839 4.756-4.424-.351-10.363-2.111-5.082-6.37-7.054-16.403-2.874-.144-.024-.12-.098-3.832-3.095-.156-.127-.043-.195-1.589-7.04z"/><path fill-rule="evenodd" clip-rule="evenodd" d="M424.778 559.294l-4.511 4.191-.523.489-.37-.616-3.168-5.266-8.969-2.802-12.933 1.79-4.754 1.876-.008.055-.389.094-8.529 2.125-3.794 2.14-.855 6.323-.057.437-.443.06-8.363 1.069-5.885 1.681.958 2.369 7.151.332.286.014.165.237 5.748 8.161 10.29.698.497.033.05.497.534 6.077.02.231-.162.189-2.011 2.314 4.715 5.802.036-.029.346.491 5.51 7.9 2.201-.437 3.3-2.252.378-.255 3.564 3.16.046.038.045.062 6.804 9.824.15.214-.059.249-.38 1.583 5.25 5.888.203.222-.071.294-1.593 6.901 3.225 7.123h1.438l2.035-4.568 2.554-5.64.162-.356.393.015 4.378.181.151.004.132.082 5.735 3.536 1.375-1.912-1.028-6.305-4.066-4.052-.203-.208.038-.286.912-6.366.084-.561 11.204 1.325 8.656-2.763 1.13-7.075-3.068-.453-.219-.036-.141-.167-2.009-2.362-.402-.476.505-.367 4.548-3.314.232-1.535-3.956-.471-.414-.052-.086-.405-.549-2.545-.048-.214.108-.189 2.309-4.105-1.483-1.113-7.7 4.191-.186.101-9.329-1.856-.244-.054-.134-.216-3.832-6.184-.041-.067-2.39-7.517-.024-.079-.005-.098-.167-17.044z"/><path fill-rule="evenodd" clip-rule="evenodd" d="M427.331 580.083l1.106 3.474 3.653 5.903 8.672 1.728 7.839-4.265.325-.174.299.222 2.19 1.636.406.301-.246.444-2.446 4.357.413 1.928 4.145.494.602.075-.094.589-.362 2.366-.038.236-.194.139-4.243 3.092 1.465 1.725 3.382.503h5.395l5.482-4.948.189-13.099.609.048 5.01.341 5.209-5.714 3.289-8.551.076-.078 5.029-5.381 5.823-14.947-2.941-2.281-.039-.034-.043-.045-3.432-3.94-4.595.855-.288.052-6.263-5.876-9.417-.334-.16 3.247v.046l-.547 4.548-.028.225-.177.15-6.749 5.639-.285.235-.336-.162-5.369-2.495-4.169-.32-4.247 15.363-.101.363-.373.053-9.156 1.409-4.27 10.858z"/><path fill-rule="evenodd" clip-rule="evenodd" d="M465.89 600.738l-5.676 5.131-.17.148h-5.382l-1.197 7.517-.055.348-.344.108-9.117 2.911-.124.039-.122-.011-10.203-1.208-.791 5.518 3.995 3.976.133.129.028.194 1.095 6.726.038.236-.136.194-1.825 2.543-.32.442-.459-.282-6.073-3.742-3.835-.162-2.393 5.284h-.002l-2.34 5.251h-1.985v16.33l3.542 4.944.114.155-.007.193-.361 12.69 2.95 3.277.161.185-.017.239-.361 6.003-.024.367-3.209 1.249.928 7.706 2.496-1.658.132-.086.162-.007 7.296-.37.652-.026-.592 9.375-.022.401-.392.122-4.532 1.338-.146 2.613 3.293 3.461.379.389-5.387 5.74 2.426 4.673 12.504 2.854.168.031.113.122 6.787 6.767 6.845.662 2.931-6.887.117-.255.276-.072 5.834-1.545.85-5.244.731-5.459.055-.401.391-.088 7.45-1.731.857-5.975.017-.108.06-.099 6.198-10.55.087-.134.133-.079 10.4-5.821.268-.148.279.141 5.167 2.659h2.519l1.887-6.664.086-.31.305-.093 5.187-1.603 2.872-2.258-4.009-4.157-2.343 1.091-3.821 1.998-.222.114-.234-.078-16.597-5.454-.095-.034-.087-.069-3.829-3.095-.108-.083-.058-.131-4.38-9.821-.091-.208.072-.212 2.004-5.822.07-.201.181-.108 7.844-4.728.163-.099.187.019 4.378.363.257.019.157.209 3.468 4.547.112.153.005.189.173 7.545 3.159 2.52 4.054-1.851.142-.067.153.012 3.832.366.158.012.122.094 2.558 1.816.028.026.039.036 5.895 5.7 2.743-1.524 1.948-3.89-3.611-4.802-.089-.119-.024-.148-.549-3.816-.021-.188.083-.168 3.785-7.002.814-5.694-3.075-.461-.077-.015-.069-.023-10.766-4.737-.062-.027-.067-.045-4.558-3.644-.137-.105-.052-.17-1.659-5.115-4.393 1.137-.383.096-2.24-3.045-.086-.115-.021-.141-.731-4.728h.005l-.644-2.882-4.941-1.187-.41-.103-.54-6.818-11.522-.523-.561-.019v-9.056l-5.022.161zm35.488-98.636l-7.695 3.506-.223.099-.227-.085-21.895-8.415-7.39 8.26-.365.41-.431-.346-3.48-2.772-.22-.18v-13.348l-1.811-4.281-.139-.337.244-.274 17.537-19.548-.733-8.445-5.088-6.156-6.892 1.086-9.951 6.486-.155.103-.187-.007-8.867-.369-1.245 3.107 6.285 5.898.428.401-.414.425-7.721 7.952-.01.014-3.812 4.146-.356 12.015-.014.578-.572-.014-18.877-.354-7.485 7.596 4.707 4.776.014.012.031.042 5.521 7.16-.299.358-2.92 3.452-.094.103-.117.055-6.507 2.863-.271-.193-8.102-5.841-6.801 9.499 1.539 6.825 3.552 2.87 16.456 2.881.198.034.135.153 6.564 7.274.067.071.036.094 2.192 5.279.041.093.004.107.364 10.731.007.263-.007.007.182 18.017.664 2.087 3.868-9.838.124-.313.331-.05 9.112-1.395 4.278-15.466.13-.461.471.041 4.749.36.098.007.103.048 5.136 2.393 6.286-5.258.52-4.303.182-3.789.026-.571.575.019 10.219.365.215.005.159.148 5.987 5.621 4.64-.86.32-.059.218.253 3.607 4.133 2.817 2.185 4.804-5.385 3.736-5.05-4.252-3.708-.196-.175v-6.738l.354-.15 16.195-6.796-.545-8.694-9.662-12.742zm361.445-173.411l4.356.48.805-2.892-2.905-3.219-3.545 1.128 1.289 4.503zm13.872 22.348l5.159 1.932 5.324-.967-2.259-7.878-6.454 3.537-1.77 3.376z"/><path fill-rule="evenodd" clip-rule="evenodd" d="M888.854 354.959l-6.299.371-3.128 11.22-10.315-9.35-2.817 9.66 10.948 11.845.625 10.284-20.009-17.765-.623-11.221 8.437-10.284 1.25-16.52-3.439 1.559-4.064 11.221-6.251 5.609-6.564 1.872-6.254 9.351.312 24.622-15.318 23.999.938 14.65h15.634l12.816 15.273v14.649l-9.07 10.91 2.503 4.987 7.192 4.052-13.441 3.116-3.752-14.026 10.001-17.453-4.373-13.093-15.321-2.183-8.442 8.107-.937 18.389-14.069 14.337-12.817 4.678-8.753 9.35-29.383-18.08v-8.728l19.693 9.038 10.318-4.048 16.568-10.599 11.254-22.444-1.875-12.153 19.071-45.198 2.184-7.789-2.184-10.287 12.504-11.844 2.502-16.52-9.692-12.779 9.954-1.296-1.459-12.026-9.872-.731-.73 8.747 2.107 5.306-6.255-2.493-9.379 7.171-11.254 14.336-8.754 8.413-13.129 3.121-6.881 6.543 6.881 9.038-7.501 13.403-10.317 3.118-.314 4.676 9.067 9.35-3.127 8.726 1.565 5.611 3.437 4.989-11.567 10.594-3.751-5.919-3.127-13.403-12.208-19.533-6.99 5.805 4.107 7.281.158.284-.158.286-8.567 15.178 3.303 10.826.084.258-.149.222-5.42 8.348-.193.067-8.529 2.834-5.686 6.614-.165.189-.251.012-21.512.955-10.952 9.017-.153.126-.207.002-7.046.113-.63 18.239-.004.174-.103.145-8.42 11.818 5.455 11.48 20.731 1.565.172.014.141.108 9.896 7.638.216.168.01.275.309 9.937 3.494 3.195 24.002 1.278.158.205 7.343 9.229.122.148.004.192.631 15.093 4.037 5.263.127.167-.005.203-.303 9.903h15.91l.162.157 14.301 12.98 19.698 8.559.172.076.095.152 7.272 11.978 12.849 7.813 13.053 1.242 10.674-7.827.386-.29.357.33 9.719 9.067 9.981-.308.315-.014.179.267 7.501 10.905 3.875.297.216.021 7.35 7.329 14.887-18.86.934-12.157.014-.169.094-.127 9.85-13.568-1.819-10.917-11.525-8.617 2.876-16.238-7.47-10.242-.131-.177.024-.221 2.356-22.072-9.372-12.149-.191-.246.095-.289 3.739-11.179-3.72-8.814-.258-.616 12.731-3.418 5.117-12.954-2.68-15.272-12.641-3.15-.199-.05-.125-.163-11.618-15.289-.167-.217.067-.272 2.324-9.267.069-.27 17.653-7.878 1.746-6.936-7.348-15.564-.082-.166.036-.183 1.854-10.194.081-.401 8.006-1.33-7.107-15.058-.043-.088-.125-1.336zM628.378 726.086l8.775-.16 7.187 12.159 5.803.914.181-.196 1.908-5.083.053-.134.096-.089 10.27-9.603 1.589-7.281.034-.151.103-.115 6.184-6.804.22-.249.318.067 7.743 1.543 2.009-3.145 1.239-5.566-2.126-5.755-6.582-2.5-.273-.108-.079-.283-.978-3.569-.078-.286.191-.234 3.138-3.758.96-9.549.022-.208.153-.146 11.055-10.698.412-.403.405.403 6.177 6.164.347.341-.283.404-3.382 4.773 4.314.807.127.019.103.074 11.194 7.974 8.548-1.269.194-.026.172.1 8.008 4.468 7.798.316 10.552-7.219-18.859-14.103-.113-.086-.061-.115-9.105-17.832-.012-.026-6.713-14.977-5.244-1.235-.037-.007-.05-.017-11.055-4.541-.101-.038-.081-.077-5.542-5.237-1.643 4.373-.149.389-.416-.014-8.825-.313-2.097 2.388-.071.079-.094.052-5.528 2.918-.186.093-.206-.04-4.286-.917-2.716 2.104-.158.122h-5.845l-.115-.046-6.981-3.032-3.003 5.688-.129.245-.275.055-9.897 1.932-6.368 10.965-.17.301-.352-.014-17.634-.576-4.804 10.132.292 9.881.014.448-.44.127-4.687 1.301-1.612 7.828 4.011 9.255.01.031.016.055 1.636 6.108 7.42 2.262.127.04.093.086 6.876 6.211.184.168.008.243.203 6.39 10.126 8.825.168.145.026.23.645 5.781.004.041v.012z"/><path fill-rule="evenodd" clip-rule="evenodd" d="M544.827 715.312l17.608 4.069 10.002 6.237 5.942-4.676 8.753 4.676 29.386 5.613 10.682-4.862.012-.247-.618-5.519-10.141-8.85-.187-.164-.009-.249-.206-6.399-6.596-5.953-7.606-2.321-.309-.095-.084-.309-1.707-6.377-4.064-9.387-.075-.17.036-.182 1.629-7.905-8.359-3.965-6.189 3.086-.421.208-.296-.375-5.05-6.5-10.825-3.741-12.315 3.755.664 3.508-.003.067-.212 11.132-.005.289-.231.167-16.75 12.479-.392 6.017 12.583 7.525.485.293-.277.49-4.855 8.635z"/><path fill-rule="evenodd" clip-rule="evenodd" d="M475.709 745.883l3.569-4.679 11.883-.94.934-8.416 5.626-3.111 5.944.309 7.19 5.612 4.373-4.05-5.312-8.732-2.5-8.725 5.937-6.237 5.314-1.555 8.129 8.723 16.861 1.06.002-.045.017-.108.055-.096 4.66-8.295-12.401-7.416-.307-.182.024-.348.432-6.639.019-.267.213-.163 16.743-12.469.209-10.789-1.462-7.686-4.478-4.272-2.414 1.477-.206.125-.237-.052-4.297-1.075-.132-.03-.105-.089L522.18 641.5l-3.099.779-.859 5.982-.012.1-3.792 7.013.501 3.489 3.744 4.976.215.281-.165.323-2.19 4.365-.079.16-.158.089-3.659 2.024-.307-.304-6.171-5.966-2.395-1.706-3.516-.331-4.565 2.085-.276-.223-3.649-2.91-.216-.175v-.267l-.18-7.634-3.194-4.183-3.937-.328-7.499 4.518-1.866 5.413 4.23 9.478 3.635 2.934 16.271 5.347 3.61-1.887.024-.004 3.111-1.45.292.297 4.742 4.909.446.46-.506.397-3.465 2.731-.086.065-.106.036-4.984 1.54-2.041 7.211h-3.679l-.129-.062-5.012-2.588-9.992 5.595-6.059 10.306-.895 6.259-.059.396-.387.086-7.454 1.728-.674 5.061-.005.008-.829 5.147 12.318 3.756.251.079.107.236 2.578 5.566.098.207-.074.216-1.345 4.023-4.756 3.716 1.677 5.014z"/><path fill-rule="evenodd" clip-rule="evenodd" d="M600.47 520.033l-3.049 5.213-2.19 4.995-.033.067-.038.052-10.042 13.253-.024.033-.033.036-15.067 14.726-.079.073-.091.041-12.674 5.748-.272 5.673 4.065 7.811.18.351-.259.294-5.491 6.345-.865 8.361-.019.168-.108.136-3.547 4.417-.163.201-.261.014-11.965.571-1.727 7.754-.201.126-5.439 3.508-.333-.367-4.805-5.321-6.677 10.542-.153.244-.28.026-10.993 1.154-9.419 11.11 1.671 5.17 4.357 3.475 10.629 4.67 3.456.514 3.949-.992.223.194 17.941 15.333 3.923.976 2.586-1.588.381-.227.325.309 4.941 4.705.136.136.036.18.628 3.328 12.377-3.774.177-.056.177.063 11.176 3.853.165.053.103.143 4.864 6.257 6.017-2.999.256-.127.253.119 8.825 4.194 4.384-1.223-.284-9.564-.001-.138.059-.122 5.02-10.602.163-.342.385.008 17.671.575 6.145-10.574-4.527-6.774-.112-.169.019-.201.59-6.485v-.026l1.719-11.711-12.09-7.753-.158-.101-.072-.173-2.188-5.619.215-.263 6.914-8.329-1.427-7.096v-.005l-2.359-12.668-.048-.243.146-.201 5.793-8.088-.285-9.415-6.679-15.924-11.357-6.682-.216-.124-.052-.251-1.739-7.787-3.149-3.194zm-329.7-200.32l-2.824 2.251-1.705 4.423.356 14.639.015.431-.414.133-10.84 3.487-.673 5.031-.06.461-.465.04-3.565.327-.977 3.567-.039.156-.11.103-1.574 1.573 3.703 3.702 6.955 5.016 13.448 3.505.134.034.102.093 4.573 3.992 13.041 1.118.884-4.781.043-.216.177-.139 2.552-1.96.343-.266.349.251 6.091 4.319.175.125.055.215 1.329 5.497 7.138 5.821 6.257-.379.244-.012.177.157 9.765 8.671.462-4.447-1.696-5.456-4.737-5.141 4.46-6.879-.755-7.152-3.882-7.56-.094-.184.041-.196 1.054-5.284-4.095-.557-.096-.381-.874-3.501-6.967-.191-.158-.289-1.966-3.536-.154-.275.147-.274 1.687-3.186-.346-4.164-5.13-1.713-1.519 2.023-.199.265-.331-.036-3.536-.393-.185-.019-.139-.122-3.535-3.162-5.628.75-.389.049-.193-.338-3.25-5.729-3.71-1.762-6.421 3.209-.612.304-.201-.655-1.713-5.403z"/><path fill-rule="evenodd" clip-rule="evenodd" d="M338.3 403.827l12.679 8.164 4.988-.26.291-.016 6.179 7.559.189.235-.082.283-2.9 10.529 7.661 7.295 20.717 1.067.149.01 13.83 8.35.137.076.077.143 8.945 16.409 14.449 8.43 9.874-2.459.323-.077.231.227 4.272 4.264 6.911-7.12-6.432-6.036.146-.368 1.547-3.854.156-.382 9.5.396 9.63-6.282v-6.653l-6.631-3.31-.467-.231 2.289-6.091-6.166-2.054-4.048 1.836-.561.253-.222-.572-4.886-12.363-11.989-.375-.256-.009-.166-.191-7.675-8.799-7.274-4.581-.048-.033-.041-.035-6.959-6.555-.015-.01-.021-.026-20.491-23.134-.177-.198.033-.258 1.547-11.567.024-.171 7.659-8.731-4.967-1.651-.404-.134v-8.31l-6.159.074-4.157 3.961-.177.175-.246-.01-8.646-.391-.233-.014-.165-.168-4.055-4.241-3.88-.093-5.714 1.904-9.238 6.919-6.03 12.637-.172.362-.401-.033-10.051-.773-5.609 2.989-3.995 6.175 4.213 4.575.086.098.043.127 1.767 5.693.034.111-.014.117-.52 5.051 9.853-.062.523-.002.057.518 1.331 11.671zm-69.298-112.769l-6.054.686-9.69 7.481-5.628 7.791-10.941-.623-6.565 10.91-7.814.936-.314 8.413-11.565 7.481.625 10.91 4.689 5.922-5.314 6.548 1.25 5.298 7.499 1.87 1.564 7.792-2.364 4.207.491.071 4.962-1.275.216-.055.196.103 2.606 1.375 9.584-1.84 3.782-5.832 2.143-8.892.039-.168 6.139-6.12 1.041-3.805.108-.388.402-.038 3.506-.317.662-4.935.045-.367.349-.112 10.778-3.464-.352-14.318-.002-.112.04-.108 1.806-4.682.055-.145.122-.098 3.471-2.771 3.474-10.73-4.55-7.331-.079-.127-.008-.152-.404-8.989z"/><path fill-rule="evenodd" clip-rule="evenodd" d="M328.302 275.778l-10.33.383-12.82 4.675-.623 10.285 1.245 4.675-3.748 3.119-2.817-7.171-5-.311-7.815-7.483-9.687 6.237-6.548.74.405 8.916 4.61 7.432.144.228-.087.254-3.551 10.976 1.704 5.39 6.072-3.03.256-.127.254.122 4.127 1.963.163.074.088.165 3.149 5.549 5.509-.738.263-.031.199.177 3.595 3.214 3.022.334 1.818-2.423.398.131 5.897 1.965.366.117.031.385.406 4.877-.081.149-1.621 3.063 1.652 2.969 6.742.191.444.007.105.429.888 3.546 3.928.533.616.086-1.256 6.299 3.83 7.475.052.097.01.105.697 6.602 5.136-2.733.15-.084.166.014 9.821.754 5.918-12.4.06-.123.117-.089 9.508-7.125.088-.031 5.893-1.963.096-.028h.098l8.243.19 4.304-3.438-7.968-10.366-5.087-.943-.347-.064-.106-.34-2.417-7.987-3.18.303-.534 4.833-.075.648-.634-.144-2.555-.59-.247-.06-.124-.216-1.935-3.337-2.513.741-.364 5.681-.045.675-.661-.147-3.54-.784-.276-.062-2.124-4.434-9.844.188-.313.007-.18-.26-3.949-5.831h-9.596l-.175-.212-2.556-3.145-.299-.368.299-.366 15.975-19.265-.929-19.719zm137.741-38.812l2.608-15.977 3.756 5.299-1.567 11.222 4.689 9.975 1.25 16.519 6.565 9.974 1.56 10.285 24.387 14.652 15.005-2.806 11.255-15.273 3.121-16.209-4.998-19.325.625-28.053-3.123-10.284-7.817-12.469-1.25-9.664 3.437-2.18 4.692 6.546 4.689-3.117-4.378-8.412-16.569-11.225-23.758-2.181-4.692 3.429-11.878 6.858.311 9.349-8.128 13.09-15.942.313-5.311 6.659 11.824 15.715-.056.253-1.841 9.202 9.651 4.814.156.075.086.15 1.641 2.796z"/><path fill-rule="evenodd" clip-rule="evenodd" d="M436.899 301.844l-.76-5.112.939-4.363-4.068-5.611 3.756-6.859 11.563-14.336 9.696-3.119 5.622-9.663 2.116-14.01-2.274-3.866-9.902-4.933-.398-.201.089-.434 1.882-9.385-11.321-15.053-13.328 16.716-6.876-.313-8.755 5.921-6.249-.312-2.503 6.235-2.811 5.298-5.004 3.742 2.812 5.299-3.437 3.426-11.57-1.87-3.123 10.908-2.192 16.519-6.878 2.809-30.634-4.053-13.828.511.416 8.895 7.494-1.48.094-.017.098.014 9.824 1.374.25.035.143.203 3.93 5.496.113.158-.005.194-.196 6.872-.005.205-.137.158-3.386 3.945.381 7.624.007.06-.009.05-.982 6.676-.031.232-.193.142-4.979 3.827-1.422 3.734 1.933 4.041 2.595.578.348-5.411.029-.407.392-.111 3.339-.985.436-.123 2.263 3.904 1.672.386.517-4.654.053-.468.474-.048 4.127-.391.474-.041.136.452 2.455 8.105 5.173.957.136.174 7.801 10.156 1.169-3.202-.781-9.695-.009-.16.076-.151 3.538-6.869.036-.069.055-.06 12.772-13.74.232-.253.329.076 7.464 1.769.255.058.122.232 2.358 4.316.096.175-.034.194-1.178 7.456-.033.197-.134.134-5.497 5.291-9.317 10.478-2.509 8.942 6.203-.071.589-.01v8.651l5.041 1.674 3.612-3.961.175-.191h4.811l1.835-8.408.033-.16.115-.119 8.584-8.931-2.091-3.477-.005-.007-2.706-4.627-.12-.211.063-.231 1.935-6.939.043-.151.103-.107 8.375-8.353.743-4.437.107-.63.618.162 5.762 1.536 3.55.707 4.416-4.771.074-.082.803-.377zm131.656 63.14l-11.532 14.84 4.023 6.206.187.29-.158.3-2.601 4.817 1.88 7.885.1.415-.375.22-7.344 4.24-.308.177-.295-.191-9.515-6.07-9.099.377-.481.022-.11-.475-1.495-6.732-22.929-17.613-2.542 3.807 6.381 10.478.12.198-1.981 9.086-.038.171-5.602 5.586 2.479 4.24.069.117.01.127.385 4.626.053.601-.61.027-9.004.372-7.072 9.279-.351 5.583 8.502 3.532 3.587-4.298.108-.127.158-.053 8.121-2.698.477-.155.225.447 5.235 10.442-.366.293-18.738 14.869-.376 8.218-.012.271-.218.163-6.569 5.014-.266.199-8.493-3.466-5.886 4.767-17.432 19.43 1.713 4.057.05.112-.002.112v12.906l2.826 2.262 7.291-8.152.268-.299.375.143 22.043 8.473 7.686-3.5 4.486-11.064.432.043 14.614 1.39.224.019.156.172 10.83 12.178 11.872 6.146 16.64 1.82 6.57-3.613.344-.191 18.274 14.948 11.05 1.542 20.035-34.206.069-.062 14.951-13.3 2.319-8.329.124-.113 15.362-13.636.366.576 3.063 4.801 8.277-.435 9.764-8.617.158-.146.213-.002 14.995-.234 10.94-9.017.152-.119.196-.01 21.458-.953 5.629-6.542.105-.122.153-.05 8.488-2.822 5.048-7.78-3.299-10.807-.072-.242.122-.213 3.942-6.986-4.126-.75-2.683 4.015-.175.257h-5.389l-6.591 6.098-.222.211-.304-.07-7.86-1.842-6.039 6.948-.158.184-.239.017-17.85 1.442-.21.019-.173-.127-77.443-55.152-7.448 2.321-.11.035-.118-.014-33.464-3.584zm-118.252-84.742l2.409 2.641 3.262-2.173-.932-3.802-2.485-1.862-1.94 2.636-.314 2.56zm232.517 8.696l4.024-2.918v-6.557l-4.754-1.094.73 10.569z"/><path fill-rule="evenodd" clip-rule="evenodd" d="M747.209 382.47l-5.957-10.934-15.631-16.832h-11.879l-1.559 6.856-.314 10.289-8.445 4.986-4.692-.934-3.12 4.673-5.939-4.673 6.875-6.235v-6.855l-22.194-.313-10.943-8.104-16.881 1.559-5.94-8.105 10.006-.935 5.315-10.285-13.445-3.118-6.252 7.483-3.127-5.614-34.385-8.414-4.378 4.364-5.003-4.678-18.13 10.601-9.38-9.044 2.814-8.099-2.814-8.107 11.253-3.739 10.317 7.168 5.001-8.102-.313-14.652-13.754-14.957-4.063 14.649-18.759 12.152-1.56 9.351-8.964 8.071 3.519 18.692 9.838 14.714 9.276 1.155.146.22 4.871 7.101 33.4 3.577 7.604-2.37.274-.086.239.167 77.502 55.197 17.406-1.408 6.114-7.032.234-.268 8.241 1.934 6.697-6.199h5.22l2.724-4.069.208-.317.376.067 4.9.89 3.983-7.053-4.184-7.415-.235-.417.369-.311 7.518-6.242z"/><path fill-rule="evenodd" clip-rule="evenodd" d="M719.736 350.158l-6.945.728-5.48-9.11 1.461-8.381 8.771-2.188 2.557 9.476-.364 9.475zm-107.318-42.946l5.382 7.059 12.669.334 1.461-4.705-.788-7.055-6.727-7.281-9.64 3.363-2.357 8.285zm94.16 9.42l2.927-27.694 2.192-10.569 9.134-9.838 10.968-3.644 4.383-6.197-2.558-7.652 8.041 5.105 7.309-.73 1.832-5.467 4.749.364.362-5.466 5.851 2.187 1.097-5.466 4.384 4.737 3.292-4.371 1.094-6.563 6.217 4.375 4.017-3.644 8.408 1.823 6.946-8.017 53.359-1.096 12.794-6.92 1.459-9.477-5.48-6.558-12.793 3.277-2.194 4.74-21.928-1.823-9.501-8.018-8.409 4.738-8.407-3.644-10.598 6.924h-8.772l-4.382 3.642-5.851-6.194-2.927 12.756-6.579.365-.728 5.098-16.444 5.103-5.851-2.548-3.655 4.371 4.752 4.737-6.581 6.197-10.601-4.373-1.461 8.017-7.673-.364-.364 6.194-10.6 5.466-6.579-2.187-7.311 5.466-.363 8.016 6.942 6.925.363 10.566-6.576 6.562 5.115 11.294 5.848.731.367 5.101 6.579 1.459 4.385 2.184zm-166.617 6.223l-9.412 8.475-4.378-8.107 6.253-1.244-7.817-14.65-11.876 1.868-11.882-4.05-14.691 2.182-8.129 20.261-5.942-3.429-8.44-19.64 1.256-15.273-13.757 1.562-3.752 13.09 5.939 7.171-5.628 7.477-9.063-4.987-1.564-10.52-.277.128-4.785 5.173-4.19-.836-.031-.007-5.185-1.382-.668 3.997-.029.186-.129.131-8.402 8.377-1.825 6.552 2.582 4.418 2.318 3.847.226.377-.307.319-8.778 9.135-1.896 8.706-.101.458h-5.24l-3.693 4.047-.021.029-7.976 9.086-1.485 11.129 20.288 22.903 6.909 6.504 7.298 4.594.074.048.053.067 7.568 8.672 12.116.378.383.014.144.354 4.8 12.149 3.903-1.767.216.074 6.961 2.311.571.192-2.347 6.241 6.492 3.239.322.157v7.006l6.675-1.051.327-.05 5.624 6.806.117.143.019.176.674 7.775 5.333-4.316.265-.218.319.129 8.2 3.342 6.094-4.646.373-8.207.014-.265.206-.165 18.578-14.743-4.591-9.155-7.487 2.491-4.033 4.828-.395-.162-9.28-3.859-.384-.158.03-.41.385-6.168.012-.172.107-.144 7.344-9.637.17-.217.27-.015 8.672-.358-.328-3.896-2.637-4.509-.23-.389.319-.312 5.678-5.667 1.847-8.472-6.45-10.596-.191-.317.2-.305 3.095-4.623.35-.518 24.076 18.496.168.132.045.204 1.443 6.465 8.796-.366.177-.007.156.098 9.369 5.979 6.663-3.849-1.835-7.677-.05-.215.105-.193 2.546-4.709-4.065-6.266-.227-.346.251-.323 11.729-15.087-4.639-6.757-9.018-1.126-.268-.034-.146-.22-10.116-15.13-.024-.122-3.403-18.109zM852.609 110.13l3.884 3.63 5.337-4.594-2.666-3.868-3.882.967-2.673 3.865zm8.492 3.15l2.91 2.415 5.096-2.658 1.457-6.049-3.887-.965-5.576 7.257zm13.826-.728l5.095 4.596 10.185-5.081-1.94-5.802-7.034-2.902-6.063 5.077-.243 4.112zm10.912-10.884l4.368 2.175 2.912-3.383-3.639-3.388-3.641 4.596zm19.165-12.09l1.458 4.594 4.366-1.693-1.701-5.56-4.123 2.659zM890.45 78.212l2.428 2.175 3.149-2.419-4.605-4.353-2.424 1.937 1.452 2.66zm-13.096 2.901l.726 3.627 4.854 3.145 2.905-4.353-2.666-5.32-5.819 2.901zm-9.463 3.869l9.221 8.223-1.217 7.011-9.218-3.144-6.06-7.009 7.274-5.081zm25.715 26.361l1.211 5.321 10.187-.242 4.123-6.772-3.396-5.563-4.366 6.289-6.548-1.69-1.211 2.657zm-27.897 12.091l2.669 3.87 2.428-3.145-2.428-4.107-2.669 3.382zm-25.227-26.602l4.125 7.011 4.852-4.592-2.431-5.805-6.546 3.386zm11.885-2.175l.972 4.11 2.666-1.934-2.182-4.594-1.456 2.418zm-4.364-22.973l3.155 4.35 2.91-2.901-4.853-4.353-1.212 2.904zm-28.621-8.709l1.453 5.805 4.369 3.384 6.305-.48 3.882 3.142 2.424-2.904-4.852-4.352-4.366 1.329-9.215-5.924zm1.209 14.752l-.482 5.08 4.608 4.593 4.61 5.805 1.451-2.662-1.211-5.561 6.309-1.45 8.003 2.66 5.096-5.079-4.612-5.322-3.879-1.45-4.125 3.142-5.581.729-3.39 1.452-6.797-1.937zm9.948 19.105l-.972 3.384 3.64 2.177.242-4.594-2.91-.967zM111.244 248.091l21.155 45.597 13.15-6.837 1.143-25.083-6.287-9.687-2.862 11.4-6.289-3.992-5.14-14.82-6.294 3.993-8.576-.571zm139.578 427.395l10.564-3.478 1.562-8.102 9.069-4.991 9.69-2.493 3.488-1.06-.315-13.253-5.944-1.187-.227-.045-.134-.195-2.879-4.146-.098-.138-.005-.168-.288-7.768-3.702 1.584-.132.052-.139-.014-4.478-.315-.573-.038.036-.571.318-5.74.007-.204.138-.152 4.648-5.251v-7.197l-10.255-9.917-5.911-1.242-.213-.045-.132-.169-4.155-5.426-.105-.134-.017-.166-.609-7.602-8.605-3.063-.215-.079-.108-.21-3.614-7.208-4.646 1.449-.122.031-.127-.012-9.026-1.199-.88 6.127-.038.268-.233.144-8.547 5.205 1.693 15.649.043.357-.304.195-9.687 6.297 1.266 12.205.017.166-.077.151-3.908 7.792-.146.3-.337.022-6.949.434-.261.014-.186-.188-3.157-3.144-8.191 4.668 3.995 5.974.148.215-.069.26-3.401 12.289 6.201 8.658 15.354 1.655 1.581-4.339.15-.416.444.034 5.642.47.088.43 1.651 7.818 5.898.786 5.231-3.294.201-.129.228.055 18.552 3.824.263.052 4.979 8.858z"/><path fill-rule="evenodd" clip-rule="evenodd" d="M205.306 746.681l9.814 3.565 26.259-.626-2.189-10.289 6.565-1.246 5.005-28.053-4.381-5.922-6.566-1.554.941-5.299 8.128-7.486-7.243-10.032 3.493-1.811 4.593-2.016-4.639-8.258-18.061-3.722-4.809 3.026 3.306 8.65.06.154-.038.167-3.431 16.244 4.238 7.606.129.229-.084.239-4.292 12.407 1.703 7.627.172.79-.807-.085-7.659-.853-4.045 1.762-.445.195-3.038-4.548-2.473 2.965 4.023 9.564.163.394-.333.277-5.439 4.468-.048.038-.045.021-4.855 2.56 6.328 8.852z"/><path fill-rule="evenodd" clip-rule="evenodd" d="M184.733 750.659l9.754.208 9.322-4.287-6.546-9.152.587-.316 5.388-2.843 5.057-4.15-3.992-9.492-.138-.322.229-.268 3.197-3.827.498-.597.436.642 2.929 4.379 3.736-1.624.146-.067.148.022 7.013.778-1.562-7.008-.036-.162.048-.146 4.261-12.314-4.213-7.565-.105-.196.045-.205 3.434-16.285-3.288-8.609-6.166-.826-.413-.052-.084-.404-1.648-7.798-4.334-.356-1.583 4.338-.158.43-.452-.048-15.376-1.654.352 4.887 7.369.865.479 5.229.021.251-.167.187-7.817 8.665-.172.188h-12.507l-2.441 4.459-.148.267-.302.033-8.253.865-.364.043-.192-.315-3.472-5.626-.086-.144v-7.59l-6.178-2.871-.335-.152v-8.212l-4.39-1.822-2.344 3.897-.249.413-.456-.165-6.571-2.454-3.755 4.303 4.251 5.198 4.44-.805.364-.067.215.311 2.92 4.157 5.879 1.676.286.079.103.277 2.586 6.874 6.165 10.536-.038.208-1.706 10.186 6.417 11.515.043.074.014.073 2.174 9.096.017.072-.002.081-.421 9.267 9.805 9.781.083.086.048.119 2.201 5.781z"/><path fill-rule="evenodd" clip-rule="evenodd" d="M124.348 783.072l-3.328 3.326.628 9.348 8.753 12.467-.625 13.091-1.567 6.239 7.816 9.664 3.752-1.564 2.189-3.735 4.687 2.488 5.006 1.562 5.939-3.742V815.7l4.064-23.38 15.005-14.34 1.252-14.962-1.566-6.545 7.271-5.458-2.134-5.607-9.541-9.508-3.502 2.715-.165.126-.216-.007-10.205-.423-5.536 4.342 1.956 3.903.235.475-.449.276-4.928 3.049 6.261 8.921 6.718 1.253.363.069.094.354 2.302 8.717-5.684 2.358-.124.052-.14-.007-5.263-.403-6.771 13.078-.33.642-.561-.468-5.212-4.393-3.096 3.474-.192.214-.294-.026-12.862-1.119z"/><path fill-rule="evenodd" clip-rule="evenodd" d="M121.617 771.388l2.219 5.97.927 4.58 12.258 1.072 3.281-3.675.375-.43.434.37 5.087 4.294 6.615-12.778.172-.341.386.033 5.508.423 4.613-1.918-1.95-7.386-6.584-1.232-.232-.04-.141-.194-8.952-12.758-6.965-.409-3.336 1.479 3.794 14.236.127.471-17.636 8.233z"/><path fill-rule="evenodd" clip-rule="evenodd" d="M117.439 765.414l.141 2.595 3.304 2.441 16.993-7.936-3.62-13.591-3.053 1.347-2.94 9.274-.05.168-.146.107-4.339 3.467-.082.062-.098.034-6.11 2.032z"/><path fill-rule="evenodd" clip-rule="evenodd" d="M104.291 745.784l.472 10.69 12.506 5.922.101 1.817 5.714-1.898 4.119-3.286 2.965-9.349.08-.245.244-.108 6.967-3.085-5.461-4.394-2.05 3.529-.218.375-.421-.107-14.169-3.422-10.609 3.386-.24.175z"/><path fill-rule="evenodd" clip-rule="evenodd" d="M95.058 724.295l6.582 7.244.311 9.972 1.995 3.085.045-.031.089-.036 10.859-3.459.153-.055.161.04 13.904 3.36 4.432-7.625-1.964-6.277h-6.744l-.168-.156-12.871-11.545-9.136-.415-7.648 5.898z"/><path fill-rule="evenodd" clip-rule="evenodd" d="M78.96 694.406l7.67 12.822v7.794l7.648 8.415 8.058-6.217.212.007 8.921.403-.407-9.322-.014-.329 5.046-3.353-6.823-12.828-2.317 4.621-.182.36-.402-.041-8.248-.864-.257-.033-.155-.2-4.52-6.152-14.23 4.917z"/><path fill-rule="evenodd" clip-rule="evenodd" d="M76.174 681.075l-.43-7.358-.037-.558-.028-.554.555-.055.558-.053 7.633-.764v-4.579h-.002v-.586l.237-.174 8.849-6.519-5.494-3.427h-.005l-.074-.048-.072-.048-.06-.063-.062-.074v-.008l-6.95-8.223-.166-.194-.167-.196.036-.253.033-.256.867-6.489.099-.72.093-.703.675.236.676.239 6.08 2.165.187.069.19.067.11.175.107.167 4.867 7.684h7.838l.035.552.031.542.404 6.859 4.821 4.006.22.188.228.179-.015.291-.012.282-.435 9.527-.017.364-.22.286-7.813 10.222-.86 1.132-.181-1.411-.178-1.408-.984-7.888-10.89 11.983-.295.322-.29.315-.382-.181-.393-.18-8.248-3.896-.312-.151-.311-.146-.024-.341-.022-.348zm-11.112-57.689l-3.44 4.05 1.564 4.675 5.001 3.742-.311 7.792 2.814 12.469-.937 11.527-2.191 19.014 2.503 3.431 5-2.185 3.286 5.492 14.863-5.136.405-.141.254.341 4.622 6.29 7.594.798 5.569-11.097 6.049-2.416-2.21-3.3-.191-.286 3.425-6.398-4.032-3.57.441-.434 4.201-4.191.41-3.689.033-.329.304-.134 4.776-2.169.481-.216 3.396 5.926 4.048-3.301.417-7.108.009-.112.055-.114 1.569-3.128-7.147-8.804-.241-.295.174-.336 5.472-10.488-6.969-8.577h-6.596l-.16-.323-3.794-7.471-11.438-10.375-1.563 14.962-6.252-3.118-11.883.623-4.376 5.614-8.38-17.604-7.252 9.186.628 10.913z"/><path fill-rule="evenodd" clip-rule="evenodd" d="M133.273 661.042l-4.326 3.534-.534.429-.34-.59-3.214-5.604-3.99 1.807-.42 3.777-.146.142-3.906 3.889 3.449 3.056.34.304-.215.401-3.313 6.192 2.814 4.205-.665.26-6.311 2.516-2.589 5.163 7.458 14.031.249.461-.441.289-4.933 3.278.407 9.389 12.678 11.376h7.155l.127.409 2.172 6.927.071.241-.127.222-2.136 3.682 6.198 4.982 7.197.425.278.019.163.226 2.05 2.926 4.531-2.804-1.935-3.856-.21-.423.373-.296 6.076-4.759.168-.137.215.015 10.213.422 3.527-2.735.415-9.174-2.134-8.938-6.471-11.618-.096-.181.029-.196 1.703-10.186-5.974-10.214-.022-.033-.019-.055-2.502-6.645-5.796-1.657-.197-.052-.122-.175-2.826-4.023-4.411.804-.336.06-.215-.267-9.184-11.241zm-56.369 12.606l.436 7.358 8.251 3.896 11.738-12.916.852-.936 1.303 10.392 6.946-9.096.435-9.519-5.015-4.165-.196-.167-.014-.25-.42-7.107h-7.383l-.168-.27-5.041-7.961-6.079-2.158-.869 6.492 6.945 8.221h.003v.007l6.945 4.328-.682.501-9.3 6.856-.005.005v5.625l-.524.055-8.157.809zM1053 901.668l26.5 10.649 24.39 5.614 4.99 19.327 17.82 9.349 12.51-.316 17.82-10.594 13.76 4.364 14.37-.938 3.76 6.543 8.27.358 2.71-10 .07-.248.23-.12 7.93-4.138-8.5-9.255-.42-.456.48-.383 8.29-6.693-3.15-9.429-.26-.765h16.58l9.67-8.032.2-.163 8.93 1.214 16.19-21.386.16-.208.26-.022 10.36-.79 3.11-5.062.11-.155.18-.074 8.87-3.62 6.76-8.325.78-8.878-7.1-4.716-.25-.174v-9.174l.23-.174 15.45-11.756 5.26-12.118.1-.237.24-.079 13.52-4.753-.77-10.773-8.31-7.49-9.25-1.605-.35-.059-.11-.334-7.74-23.144-4.81-4.393-.38-.344.3-.414 4.79-6.773-.66-6.634-5.89 6.6-.31-.045-4.81-.741-2.74 10.524-.08.329-.33.086-25.81 6.941-.38.108-.24-.322-4.33-5.887h-5.99l-.14-.076-5.58-2.97-3.04 7.182-.1.244-.24.079-12.31 4.086-.18.064-.19-.064-6.34-2.236-1.5 7.116-.08.411-.42.046-12.5 1.56 1.08 6.138 7.63 6.397.44.378-.38.441-6.44 7.627-1.19 11.521 4.15 9.738.67-1.946 2.54-15.861.01-.1.06-.093 4.14-7.319.21-.334.37.038 5.42.64.44.053.07.436.96 6.05.01.099-.01.086-2.54 14.254.95 13.88 2.21 7.572.06.189-.08.181-2.91 7.443-4.5 4.164-1.44 2.57 1.54 4.855.06.192-.08.197-1.93 4.776-.11.274-.28.074-4.69 1.165-.29 5.306-.02.141-.07.126-6.07 9.867-.12.187-.2.069-9.08 2.8-5.95 8.124-.19.268-.32-.029-6.82-.597-1.81 10.303-.04.161-.1.122-5.11 5.733-.09.092-.12.048-16.35 7.214-2.16 7.378-.09.29-.28.099-10.54 3.502-.59.193-.15-.602-1.51-6.008-11.12-2.161-.42-.081-.05-.423-.95-8.113-7.7-9.831h-10.45l-.16-.129-21.39-16.865-.07-.055-.04-.06-6.68-9.082-10.71 7.618-.16.115-.19-.007-6.11-.139.31 1.346.07.309-.22.229-3.28 3.274 1.19 4.766.08.296-.2.229-4.54 5.115 4.06 7.828z"/><path fill-rule="evenodd" clip-rule="evenodd" d="M901.722 946.729l40.231-15.084 14.379-.931 2.501 3.733 21.571 4.676 1.564 9.664 8.128 4.05 22.814 2.498 9.07 1.248 4.69 4.361 7.2-2.495 6.55-5.612 4.7-11.529-7.82-9.348.94-14.339 5.01-1.562.31-6.546 6.56-.307 1.83-7.027-4.22-8.158-.18-.356.26-.293 4.59-5.184-1.29-5.118.23-.226 3.3-3.281-.78-3.341-9.4.605-.2.014-.17-.122-23.55-16.369-1.41 6.471-.09.423-.43.033-28.636 2.515-1.815 7.543-.079.344-.338.088-5.58 1.459.582 5.235.041.353-.305.196-7.731 4.933-.299 5.119-.024.43-5.721 1.34-9.468 7.866-.196.166-.254-.031-22.024-2.862-.143-.022-.116-.079-13.527-9.498-6.224-.476-4.035 10.571-.137.346-.374.029-15.65 1.005.981 10.777 9.377 16.609.261.467-.439.3-6.514 4.501 1.499 10.228zm-19.236-58.212l6.933-2.476 5.106-2.543 8.589-8.563-1.969-5.396-.06-.17.041-.175 1.535-6.129-2.057-8.217-.072-.279.172-.222 5.71-7.235 2.931-8.766-8.373-2.951-.277-.093-.087-.283-1.573-5.232-.084-.281.178-.234 6.611-8.618-3.61-8.751.04-.175 1.573-6.793.062-.275 9.071-4.26 4.351-4.331-9.237-17.914-.1-.186.045-.203 1.336-6.218-9.972 4.263-.232.099-.233-.099-12.952-5.681-14.816 2.037-5.621 6.621-.172.208H865l-15.239-.076-.316 40.908 5.528-.712.576-.071.072.582 1.025 8.169 7.733 8.221.085.096.039.105 2.559 7.152 7.188 5.114.512.369-.404.48-5.44 6.408 4.584 5.077-.074.301-2.093 8.358-.06.221-.194.127-5.513 3.5-.467 9.798 12.726.382.252.008.17.188 4.237 4.816z"/><path fill-rule="evenodd" clip-rule="evenodd" d="M814.876 915.001l1.095 10.721 9.998 5.614.315 10.598 10.005 2.178 4.062 4.99 11.257-5.925 2.186 7.794 7.19 10.602 11.259 1.237 3.434-7.475 15.01-.629 9.948-7.374-1.619-11.021-.051-.355.3-.207 6.375-4.401-9.172-16.261-.06-.107-.012-.127-.958-10.45-8.069 6.156-.462.349-.352-.456-7.338-9.401-.167-.222.059-.26 2.558-11.228-4.124-4.688-12.5-.37-.004.17-.445.086-7.864 1.569-.261.053-.213-.168-6.488-5.083-.433 5.198-.014.148-.079.126-6.292 9.404-.192.288-.344-.035-11.412-1.03-9.137 3.036-3.684 5.05 5.676 2.832.247.119.063.264 1.57 6.793.144.627-.646.084-10.359 1.187z"/><path fill-rule="evenodd" clip-rule="evenodd" d="M735.845 822.285l15.1 72.266 8.126-1.246 5.629-8.103 5.313 2.181 1.565 8.417 17.191 9.356 13.443-4.991 7.189 3.116 5.147 10.593 9.91-1.142-1.368-5.892-6.042-3.019-.615-.303.402-.557 4.196-5.747.107-.149 9.614-3.189.116-.043.122.014 11.179 1.013 6.019-8.998.512-6.118.089-1.079.848.669 7.126 5.58 7.157-1.428.515-10.817.257-.16 5.568-3.536 1.964-7.84-4.848-5.37.328-.382 5.358-6.321-6.824-4.854-.153-.108-.06-.172-2.577-7.204-7.781-8.269-.132-.141-.024-.186-.975-7.779-5.421.689-7.018 6.364-.191.167-.256-.023-13.429-1.278-4.047 3.106-.36.275-.352-.275-4.152-3.251-11.669 11.313-.405.394-.402-.394-9.103-8.751-.13-.122-.036-.161-1.602-6.693-7.473-9.941-30.816 10.565-.212.074-.204-.089-6.536-2.796-2.986 2.084-.316.223-.324-.201-4.907-3.056-6.344 3.715z"/><path fill-rule="evenodd" clip-rule="evenodd" d="M712.259 791.642l16.178.362-6.567 6.861 13.546 22.319 6.493-3.797.306-.173.298.181 4.873 3.045 2.937-2.052.268-.188.294.127 6.622 2.831 31.006-10.623.399-.141.254.341 7.803 10.375.079.101.026.115 1.583 6.638 8.577 8.25 11.632-11.28.361-.358.401.317 4.195 3.286 3.868-2.964.182-.143 13.628 1.294 6.778-6.141.318-41.305h-5.384l-7.64 6.346-.464.388-.366-.478-3.253-4.217-.137-.172.015-.217.939-15.612-22.486-.631-.336-.014-.158-.287-4.059-7.471-11.676.315-.458.014-.117-.444-2.251-8.315-7.319-9.523-39.366-18.679v13.03l-.287.17-7.425 4.317 2.167 8.332.207.777-.805-.055-9.623-.635-7.491 3.11-4.376 7.786.968 22.535.01.119-.052.128-5.115 12.105z"/><path fill-rule="evenodd" clip-rule="evenodd" d="M651.387 739.271l4.524 1.309.309 8.099-2.812 3.121 1.875 5.614-6.251 7.166 1.251 5.299 13.443 3.113.624 7.169 6.565.315 5 1.246 5.002 5.607-7.19 5.922v4.99l7.19-2.179 6.253 3.429 5.626-1.25 4.691-4.049 13.467-2.443 5.297-12.541-.967-22.574-.01-.161 4.63-8.247.103-.175.184-.081 7.804-3.24.129-.052.134.011 8.952.59-2.074-7.971-.112-.422 7.896-4.594v-31.534l-5.373-5.666-.349-.376.325-.389 5.696-6.952-.505-4.309-10.588 7.242-.161.108-.19-.007-8.132-.33-.142-.005-.122-.067-7.952-4.439-8.588 1.268-.227.033-.194-.135-11.276-8.033-5.077-.948-.889-.165.523-.74 3.618-5.108-5.429-5.413-10.494 10.153-.949 9.516-.019.177-.117.131-3.056 3.662.821 2.991 6.55 2.488.249.093.092.25 2.277 6.163.055.153-.036.17-1.3 5.833-.019.1-.06.086-2.276 3.568-.213.337-.39-.079-7.81-1.557-5.849 6.445-1.63 7.484-.13.129-10.312 9.634-1.885 5.017z"/><path fill-rule="evenodd" clip-rule="evenodd" d="M869.613 656.993l-8.464-6.036-16.918 9.682-.325.189-.304-.22-14.222-10.397-20.24-.315-.177-.007-.138-.088-13.34-8.871-9.523-2.756-8.875 6.713-6.795 21.615-.477-.06-7.774-.934-5.997 3.89-1.231 6.438-.051.269-10.959 6.256.604 5.129.027.244-.159.193-5.529 6.734 5.179 5.466.156.169v18.339l39.991 18.974.127.06.084.115 7.48 9.723.071.093.032.108 2.155 7.99 11.577-.311.355-.007.167.311 4.072 7.49 22.75.635.6.015-.998 16.598 2.749 3.56 7.341-6.094.168-.141h6.966v.007l14.967.072 5.59-6.586.143-.174.22-.026 15.201-2.092.161-.019.151.067 12.873 5.645 10.436-4.465.509-10.61.014-.267.211-.163 10.853-8.25 1.373-5.016-9.424-2.964-.137-.046-.103-.1-6.954-6.936-.024-.201-1.048-8.886-.033-.3.233-.204 11.871-10.294.463-6-7.832-.981-.314-.038-.141-.283-8.775-18.021-30.096-4.654-.495-.074v-9.061l.129-.16 4.004-4.988-4.181-14.693zm38.81 146.782l-3.612 1.695-1.462 6.34 3.597 8.708.124.311-.2.262-6.635 8.651 1.403 4.662 8.629 3.035.54.188-3.327 9.946-.029.1-.06.077-5.59 7.094 2.027 8.08.035.141-.035.141-1.531 6.103 2.033 5.58.132.347-9.172 9.141-.062.069-.09.038-5.242 2.618-.045.019-.022.007-7.034 2.509-2.488 10.918 6.813 8.73 9.291-7.082.043.484 15.308-.98 4.213-11.031.434.034 6.413.489 4.548-9.564.101-.214.222-.082 8.16-3.049 2.466-5.421v-6.492l.31-.16 7.525-4.004-.491-6.35-3.118-9.336-.017-.055-.007-.024-1.55-8.773-6.749-10.347-.177-.267.134-.292 2.934-6.336-5.159-3.272-8.71 1.02-.038.007h-9.876l-.136-.396-4.771-14.017zm-14.312-462.543l5.322 6.913 3.71-1.607-1.133-9.65-3.708-1.927-4.191 6.271zm14.837-43.896l2.74 3.539 2.9-3.054-1.287-4.826-3.709 1.127-.644 3.214zm101.932-170.404l11.7 2.139-2.73-8.744-8.19.19-.78 6.415zm9.75 21.97l6.44-8.553-1.56-7.584 6.23-4.081 6.24-6.223 7.02 6.223 3.9 11.077 2.34 4.865-6.43 3.495v6.027l-15.99 7.192-8.19-7.387v-5.051zm-5.84 9.523l12.28 4.666-1.76 5.831-5.66 3.111-8.19-5.637-1.36-5.443 4.69-2.528zm10.91 19.441l5.46-13.417 15.01-7.385 2.73 10.306 3.9-1.168.59-4.47 6.82 6.607-.59 8.747-5.06 8.164 4.28 5.055-1.17 7.582-5.46 2.917-11.11-7.583-9.94-8.554-5.65-2.529.19-4.272zm39.19 7.58l-1.36 17.496-6.64 12.052 2.54 9.135 10.92-8.746 11.5-.778 6.04-6.026.78-13.997-6.43-8.164-5.46 5.444-2.92-3.112.39-8.359-9.36 5.055zm32.16 25.273l.98 4.663 8.58 1.944-.39-3.304-8.58-5.247-.59 1.944zm-65.12 34.989l4.49 3.305 3.31-1.944-2.33-4.859-5.47 3.498zm-39.57-6.413l5.652 3.109.39-4.471-3.7-4.276-2.731 2.33.389 3.308zm34.9 18.661l2.14 2.332 2.73-2.531-3.11-3.299-1.76 3.498zm-95.251 58.673l4.354 4.02 2.902-2.892-1.13-4.503-3.708-.965-2.418 4.34zm10.483 5.147l2.418 1.769 1.608-3.054-2.74-3.054-1.286 4.339zm6.289-11.737l2.419 1.607 1.451-2.734-3.71-2.409-.16 3.536zm4.354-6.43l2.743 2.09 2.578-3.699-4.193-3.054-2.258 1.607 1.13 3.056zm-19.517-22.191l3.069 2.092 4.513-2.736-2.578-4.502-3.873-1.121-3.707 3.211 2.576 3.056zm9.679-15.757l-1.129 2.735 2.419 3.376 2.578-2.732.162-3.059-4.03-.32zm-7.288-110.653l-.707 3.654 3.774 3.776 5.315.118-.24-4.719-3.656-4.836-4.486 2.007zm23.612-28.425l4.955 1.531 5.434-1.412-3.19-7.078-4.016-3.188-2.831 2.716-.59 4.481.238 2.95zM1105.3 871.038l-1.09-5.74-.1-.509 6.07-1.91-2.41-8.398-.15-.509.5-.189 6.67-2.495.49-.186.24.467 5.2 10.357 12.94-7.687.46-.267.31.43 4.47 6.242.01.007 3.83 3.5 5-1.869.11-.041h7.33l.18.275 3.44 5.432.22.342-.25.322-13.46 17.065-.34.438-.45-.315-8.17-5.734-10.02.939-.19.019-.17-.107-5.87-3.694-.03-.019-7.02-5.091-7.23-.604-.43-.034-.09-.437zm56.54-287.114l-3.78 4.186-.14.141-.18.039-8.98 1.883-8.14 3.611.45 9.007 2.34 6.077.09.227-4.73 10.375 4.6 7.328.07.122.01.134.95 10.91.01.168-.07.149-7.14 13.762-.08.145-.13.081-11.89 7.298 4.47 7.572.2.329-.23.306-5.06 6.889 2.68 8.921 10.17 3.224.32.1.08.33 1.43 6.645.07.296-.21.222-7.48 7.911-.42 5.494 5.06 1.373.1.297 2.38 7.123.12.333-.26.256-5.6 5.588-2.34 8.386-.2.734-.65-.383-10.48-6.17-.15-.094-.08-.168-4.99-10.856-9.65 4.372-1.38 9.172-.02.184-.12.124-21.24 23.066.93 10.656.03.422-.39.163-5.72 2.373-.51.215-.24-.504-8.16-17.629-5.59 7.295-.18.219-.27.007-22.04.941-8.72 16.015 9.81 15.369.13.202-.05.235-1.9 8.536-.09.397-.4.054-9.7 1.381-5.52 10.537-1.93 28.951-.59-.062-9.36-.932-6.66 3.092v5.548l16.02 14.303 24.06 16.732 9.7-.631.49-.024.11.482.38 1.622 6.21.148 11.02-7.846.47-.337.34.466 6.97 9.486 21.17 16.691h10.62l.17.223 7.99 10.189.1.129.01.164.92 7.847 11.07 2.146.36.075.09.355 1.44 5.76 9.65-3.207 1.93-6.603h-10.44l-.16-.336-2.46-5.244.45-.268 4.89-2.932.11-.014 6.58-.936 13.19-9.089 4.73-7.223.04-.062.06-.052 9.78-8.806 2.2-6.599.04-.047 5.74-9.871.02-.021 6.99-10.763 6.03-16.486 4.51-13.23-4.78-11.207.02-.148 1.23-11.848.01-.175.12-.141 6.18-7.319-7.34-6.163-.16-.138-.04-.201-1.23-6.951-.1-.604.61-.071 12.7-1.583 1.56-7.358.13-.649.63.22 6.77 2.387 11.86-3.934 3.17-7.525.25-.585.56.301 6.02 3.193h6.29l.17.243 4.28 5.807 25.11-6.755 2.78-10.702.13-.509.52.078 5.01.767 7.23-8.101.91 9.04 15.31 2.347 9-6.244.38-11.651-9.57-6.767-.24-.159-.01-.28-.82-14.707-.02-.303.25-.187 5.32-4.085.15-.114.18-.007 13.08-.381-12.29-27.766-6.58-4.553-11.57 5.237-.58.269-.2-.619-4.22-12.626-18.46-7.357-9.23 1.528-14.42 30.877-.03.067-.06.06-9.69 11.28-.41.475-.45-.439-6.99-6.975-4.47 7.918-.16.282-.33.015-13.28.53-9.01 6.874-.41.315-.36-.384-8.63-9.127-.17-.188.02-.249 1.61-23.632.01-.093.04-.096 7.82-18.2-10.15-3.033-.25-.079-.11-.24-4.85-10.738-.08-.182.04-.194 3.68-15.149-8.24-4.615-.31-.174.01-.357.54-14.885-6.09-11.629-4.84 3.379-.17.122-.2-.015-7.01-.537-.54-.04v-8.375l.27-.169 5.43-3.446-4.49-6.789z"/><path fill-rule="evenodd" clip-rule="evenodd" d="M1105.45 865.586l.91 4.803 6.79.563.16.012.16.015.13.1.13.092 7.02 5.085 5.67 3.574 9.82-.919.21-.016.22-.022.17.126.18.119 7.72 5.414 12.85-16.317-3.05-4.809h-6.5l-4.9 1.832-.33.122-.33.127-.26-.242-.26-.234-3.84-3.503h-.01l-.04-.045-.05-.041-.03-.053-.04-.047-4.15-5.814-12.49 7.409-.54.323-.54.314-.27-.556-.29-.557-4.96-9.885-5.68 2.12 2.27 7.887.32 1.087-.55.167-.54.172-5.08 1.597zm163.59 44.02l2.86-7.354.13-.322.13-.33.35-.04.34-.041 16.17-1.97 4.65-9.638.34-.703.33-.705.58.53.58.528 3.7 3.38 3.87-9.107.12-.286.12-.282.3-.062 8.5-1.697v.007l.22-.046.23-.047.19.121.2.126v-.007l9.83 6.13.34.215.34.208-.15.778-1.23 6.538-.06.371-.08.374-.37.089-.37.086-4.83 1.126 8.22 7.51h.01l.62.576.63.58-.77.368-.76.374-34.03 16.339-.29.141-.28.14-.27-.166-19.94-12.427-.41-.258-.41-.253.17-.452.18-.442zm-70.66 36.463l5.23.222 5.32 9.982 40.95 3.733 27.51-16.518 8.76-.311 2.81-9.037 13.44-12.468 18.75-.938 5.63 5.299 7.82-7.171 33.13 5.306 4.7-12.782 11.25-7.794-4.69-11.529 5-31.171 8.45-8.417-5.64-14.962-11.87-1.247 8.44-15.583 14.89-10.304-13.7-20.481.23-.322 4.56-6.424-8.06-4.587-.26-.156-.03-.307-1.17-15.659-7.95 1.884-.42.101-.22-.383-5.04-8.899-10.56 5.852-.39.211-.31-.311-6.55-6.531-.35-.346.28-.403 3.76-5.232-13.03-8.659-.12-.073-.07-.134-16.62-30.737-13.4.396-4.92 3.783.79 14.124 9.59 6.787.26.18-.01.309-.42 12.547-.23.168-9.43 6.541-.2.126-15.85-2.426-4.41 6.235 4.54 4.145.1.1.05.148 7.68 22.955 9.08 1.576.17.028.12.115 8.61 7.758.17.161.02.228.82 11.441.03.444-.42.146-13.7 4.816-5.28 12.163-.11.096-15.35 11.669v7.988l7.12 4.726.28.19-.85 9.746-.01.171-.11.141-6.97 8.577-.09.115-.14.055-8.84 3.605-3.18 5.153-.15.254-.3.021-10.39.798-16.23 21.445-.21.27-.34-.048-8.76-1.186-9.64 7.999-.16.143h-15.38l3.02 9.038.13.382-.31.251-8.13 6.556 8.6 9.356.5.549-.66.359-8.38 4.372-2.58 9.501z"/><path fill-rule="evenodd" clip-rule="evenodd" d="M1272.98 902.675l-2.86 7.349 19.67 12.258 34.02-16.343-9.03-8.248-.81-.737 1.07-.256 5.89-1.382 1.24-6.538-9.83-6.13-8.2 1.635-4.19 9.865-.33.759-.6-.556-4.31-3.936-4.78 9.924-.14.29-.32.041-16.49 2.005zm-121.7-319.211l-.35.234-6.83-5.354h-15.68l1.03-9.186.02-.174.1-.134 8.98-10.836 2.67-7.078-5.82-4.009-.25-.174v-8.15l-5.08-5.526-.2-.219.06-.292 2.3-11.026-6.4-4.906.43-.467 8.87-9.776-3.3-41.358-10.37-15.915 5.19-2.672 12.5-10.154.2-.154.23.026 7.38.867 2.68-12.916.02-.113.06-.091 3.64-5.446.91-7.273.03-.232.18-.15 15.34-12.14-6.59-7.883-.14-.162v-12.534l-13.36-18.845-.07-.098-.03-.126-1.84-9.597-4.1-5.449-.13-.177.02-.215.44-5.456-8.25 4.109-9.38 7.169-12.81 3.742-5.01 8.725.31-12.467 25.95-26.804 14.39-25.87 6.56-23.065-20.01-22.756-18.75-.62-6.56 9.349-7.51 1.248 5.62-15.898-15.31-1.871 5-7.168-9.38-7.791-8.44 3.118-13.44 19.946 3.12 11.844-14.37.936.31 3.74 5.31 7.794-10.32-2.183-5.31 4.985-11.87-2.179-1.57-5.299-16.88.31.32 9.664-20.331 2.803-13.755 10.908-10.627.316-7.817 6.857-3.438 14.024 6.564 11.846-10.004 2.493-26.572-4.365-15.318-.31-4.689 8.414-.626 21.818 9.69 9.354 4.692 10.907h-13.443l-11.567-21.506-8.483.496.1 1.087 7.394 15.661.323.695-8.713 1.445-1.756 9.609 7.444 15.771-1.906 7.612-.072.273-.259.117-17.394 7.758-2.19 8.723 11.324 14.903 12.81 3.192.367.091.067.375 2.805 15.982-.82 2.067v-.014l-4.526 11.452-.108.277-.287.077-11.726 3.149 3.544 8.401.086.201-.067.205-3.713 11.099 9.332 12.089.144.184-.024.23-2.359 22.078 7.628 10.459-.04.243-2.796 15.779 11.14 8.331.182.132.038.236 1.902 11.378.045.244-.144.2-9.899 13.621-.938 12.172-.015.175-.107.141-15.276 19.353v15.065l12.473 7.148.437.248-.182.463-2.235 5.726-.091.23-.225.099-11.173 4.776-.072.026-.081.012-9.539 1.187 4.129 14.533.082.284-.19.234-4.064 5.062v7.665l29.903 4.63.305.045.132.278 8.77 17.999 8.073 1.006.556.067-.046.549-.525 6.794-.019.243-.179.153-11.821 10.253.989 8.377 6.572 6.552 10.35 3.259-.146.538-1.573 5.745-.051.195-.156.115-10.794 8.202-.509 10.703-.014.36-.061.022-1.465 6.825 9.34 18.104.194.375-.299.3-4.721 4.7-.064.076-.095.039-3.985 1.872 4.673 13.747h8.996l8.869-1.039.203-.026.174.115 6.197 3.927-.219.459-3.008 6.502 6.639 10.182.067.1.022.115 1.566 8.852 3.125 9.356.024.073.003.069.527 6.791.031.378-.338.181-7.553 4.007v6.051l-.051.112-2.62 5.75-.098.22-.23.088-8.162 3.052-4.407 9.274 13.139 9.222 21.632 2.818 9.383-7.801.107-.086.133-.036 5.005-1.173.292-4.976.017-.296.251-.16 7.673-4.895-.653-5.866.486-.13 5.733-1.501 1.83-7.618.098-.411.418-.041 28.62-2.507 1.43-6.571-15.98-14.273-.2-.18v-6.787l.34-.16 7.14-3.321.15-.067.15.014 8.92.893 1.86-27.873.01-.115 5.77-11.025.14-.269.3-.039 9.59-1.368 1.76-7.913-9.86-15.452-.18-.289.16-.303 9.04-16.603.16-.29 22.42-.95 6.02-7.846.59-.766.4.871 8.33 17.994 4.81-1.991-.93-10.489-.02-.256.18-.187 21.3-23.116 1.38-9.215-.06-.296 11.41-5.231.24.53 5.16 11.213 9.66 5.695 2.18-7.808.04-.153.1-.108 5.45-5.437-2.16-6.481-4.93-1.342-.47-.126.04-.478.47-6.168.03-.202.13-.153 7.4-7.84-1.29-6.024-10.14-3.219-.3-.093-.09-.289-2.85-9.487-.08-.277.17-.234 5-6.808-4.56-7.739-.28-.489.48-.301 12.23-7.505 6.99-13.458-.93-10.618-4.69-7.473-.16-.26.13-.282 4.66-10.219-2.29-5.944-.03-.086-.01-.093-.49-9.881.37-.16 8.55-3.795.06-.026.06-.014 8.85-1.858 3.84-4.238-3.17-3.942-6.7 4.446zm732.59-14.313l-2.5-31.171-3.44-14.339-10.32-10.285.93-15.273 5.32-4.365-17.82-20.571.32-14.337 7.5-8.104-1.88-8.102-15.01-4.365-15.31-27.117 3.75-2.495 4.69 6.545 7.5-4.676-11.56-10.907-6.26 3.429-9.98-6.462-.17.189-5.16-12.119h-10.32l-1.25 7.169-6.57-.623-21.25-42.39 1.25-13.403 8.44-1.869-6.26-24.934 13.45 10.597.31-29.925 10.63-10.908 15.94-.31-9.06-22.133-4.33-47.671-10.32 3.119-.23.069-.21-.112-7.68-4.029-13.27 38.015-.15.401-.43-.014-16.88-.43-15.6 4.749-.52.163-5.26-14.444-21.04 1.258-3.76 6.671-.13.223-.25.062-14.49 3.397-2.51 7.511-.12.353-.37.038-7.89.829-2.49 8.742-.09.298-.3.093-9.1 2.887 1.63 8.928 13.08 18.94 8.1 1.701.31.064.12.296 5.55 14.471 9.21-.841.26-.021.19.177 6.15 5.688.14.129.03.188 1.71 8.921 8.48 4.774 5.86-5.462-15.93-19.012 3.74-12.469 15.33-5.299-8.14 12.159 1.88 9.351 12.19 8.415 5.63.31-.31 8.725 5.31 1.252-5 24.934 5.62 9.349 1.89 28.988 4.37 18.701 5.94 18.702-6.88 7.482 2.18 7.168-3.74 4.988 9.69 11.219 1.56 17.765 13.3 14.976v-.002l15.77 17.756 86.29 57.665zM585.068 523.903l-.127-.103-17.795-14.554-6.38 3.514-.163.09-.182-.021-17.529-1.988.02-.118-11.692-6.054-.096-.048-.072-.083-10.752-12.087-13.955-1.326-4.123 10.168 9.855 12.99.102.139.01.176.611 9.687-.384.158-16.218 6.81v5.446l4.452 3.884.404.345-5.093 6.796-.012-.045-4.431 4.963-5.98 15.355-.041.108-.074.079-5.034 5.372-3.241 8.446-.041.101-.072.086-5.471 5.993-.188.211-.285-.015-4.677-.32-.165 11.507 5.236-.16.598-.022v9.141l11.479.519.515.026.041.509.514 6.489 4.876 1.175.355.087.077.35.728 3.279.012.036.708 4.587 1.687 2.296 4.366-1.131 9.661-11.394.146-.182.237-.022 10.942-1.144 6.939-10.96.417-.649.51.571 4.986 5.525 4.404-2.844 1.722-7.72.098-.435.442-.019 12.146-.578 3.275-4.076.869-8.377.019-.18.12-.137 5.352-6.182-3.951-7.602-.072-.144.007-.153.295-6.185.019-.355 13.229-5.994 14.957-14.627 9.985-13.175 1.868-4.267-10.995-1.538z"/><path d="M119.639 602.171l16.386 9.681-5.002 3.425-8.753-5.299-5.015 3.938 2.996 5.9h6.428l.177.216 7.382 9.087.241.301-5.645 10.825 7.143 8.793.237.287-.17.337-1.684 3.36-.413 7.013 4.197 5.138 4.155-4.763.378.143 6.493 2.429 2.615-4.349.462.197 5.212 2.16.359.146v8.247l6.175 2.878.337.155v7.992l3.2 5.179 7.58-.793 2.457-4.498.168-.301h12.676l7.475-8.276-.368-4.045-6.915-.81-.481-.055-.031-.482-.422-5.896-6.421-8.959-.155-.22.072-.269 3.4-12.301-4.193-6.277-.348-.515 9.661-5.507.386-.212.316.307 3.289 3.279 6.351-.395 3.681-7.339-1.286-12.391-.038-.351.299-.193 9.687-6.297-1.643-15.178-7.561-.396-5.479 3.783-.317.222-.327-.208-6.074-3.897-6.988-3.717-.226 3.596-9.762-.512-3.972 5.941-4.966.495-5.458 10.39-10.664 4.253-7.626-11.152-15.956-1.928-7.712 7.688z"/><path d="M186.061 582.128l7.49 3.991.038.019 5.755 3.689 5.327-3.675.163-.115.198.015 8.072.422 8.471-5.16.922-6.43.079-.561.569.072 9.47 1.26 4.998-1.562.473-.14.22.437 3.734 7.449 8.416 2.991 1.866-1.655.569-9.363-5.407-4.057-.219-.163-.019-.268-.388-6.04-3.439-3.241-5.501-4.016.019-.315.589-9.203-10.481-8.093-.181-.148-.999-6.392-4.308-2.048v-4.258l-1.591-2.828-5.949-.358-1.053 2.455-.122.292-.317.05-2.428.406-.336.057-.211-.266-1.648-2.005h-2.538l-3.887 3.512v6.806l-.112.155-2.297 3.179 1.971 1.477.217.161.015.267.206 3.236.036.642-.644-.026-4.306-.187-1.734 2.942 1.233 6.152-.215.219-12.927 13.049 2.883 5.308-.742 11.863z"/><path d="M158.534 508.058l4.515-5.59 6.291 5.398.312.263 3.413-1.918 3.079.514 1.517 5.11.059.203 6.246 4.16.097.059.107.024 8.529 1.783 8.611 8.8v6.459l-2.849 3.945.452.344 2.215 1.654.144 2.329-4.007-.177-.349-.017-2.201 3.742-.113.194.042.214 1.156 5.76-12.457 12.583-9.663-17.787-.159-.19-.294-12.923-11.878-7.481.623-7.171-4.687-2.183-.937-4.673 2.186-3.428zm-90.883 53.218l.968-7.237 3.456-.984v-3.726l2.726.544 1.278-2.548v-3.144l3.17-2.107 3.058-3.483-3.598-2.05 6.205-5.156-5.893-8.323 1.494-3.971-4.079-4.97-5.278 2.392-4.864-.485-3.506 4.495-5.11-.566-2.054-6.659-5.541-4.604-1.982 1.977 2.083 8.826h-5.947l-3.133-6.247-2.692-4.475-2.374 1.973v6.127l6.006 12.103h8.509l8.008 14.874v3.357l2.935 2.438 3.467 10.863 2.688.766zm88.376 5.079l-1.675-2.506-4.196-1.045v-8.874h-9.249l-3.891-4.848-3.787 2.098 1.01 3.526-5.737 2.6-1.561 3.112h-4.499l-3.292-2.814-2.578 2.57-1.452 5.795v8.19l-3.437 2.284-5.421-1.966-6.296 7.174 16.604 5.842 2.426 13.626 7.918-7.896 17.236 2.127 1.001-8.516v-7.11l4.614-6.645 6.262-6.724z"/><path d="M105.959 573.306l-6.99 7.964-4.052-1.795-8.529-11.004-12.733-3.906.522-2.598-5.541-.502.889-6.646 3.55-1.012v-3.26l2.28.454 1.725-3.441v-2.844l2.836-1.885 3.95-4.502-3.41-1.942 5.166-4.292 2.512 1.67.493 2.951 6.065 5.498 2.325-3.477.006-.009 3.383-5.302 5.422-.9 3.823 7.623 1.566 4.683 3.936 1.472.437 4.355-4.7 2.604 4.69 6.753-1.461 5.829v7.779l-2.57 1.709-5.59-2.027zm67.223-25.6l12.401 22.826-.953 15.207-9.258-.486-4.036 6.036-5.045.503-5.553 10.57-9.356 3.731-6.2-9.066.97-10.127v-6.864l4.396-6.33 6.751-7.249-1.994-2.981 9.112-9.086 5.054-1.008 3.711-5.676z"/><path fill-rule="evenodd" clip-rule="evenodd" d="M260.801 518.313l-.024.9-.004.247-.182.164-5.407 4.905-.068.06-8.763 4.044-1.89 3.33 1.347 2.838.033.07.014.091.822 5.231.024.16-.065.155-1.473 3.426-.089.209-.203.093-5.186 2.387-.567 8.84 5.006 3.656.016.012.039.034 3.64 3.44.168.156.014.227.388 6 5.25 3.933 7.685-1.33 15.369-7.904 1.94-2.677.162-12.732v-.045l.005-.041 1.478-8.665.029-.153.098-.119 6.723-7.952-5.399-5.963-3.261 2.071-.075.023-2.787.82-.24.065-.216-.122-4.26-2.452-.141-.082-.079-.143-3.777-6.904-6.094-.303zm61.273 82.439l.163 7.089 12.921 6.961 4.57 1.516 3.269-1.395.769-4.448-2.479-1.232-.347-.174.028-.385.177-2.5.01-.162.096-.134 3.403-4.821.149-.208.253-.033 8.237-1.067.014-.008 5.015-.53.223-.024.184.131 5.37 3.933.014.005.027.029 7.592 6.683 4.651 1.164 3.668-2.162 6.75-7.08.031-.035.041-.034 1.664-1.247-4.991-6.139-.306-.379 2.48-2.859-.469-5.33-10.071-.684-.275-.012-.161-.23-5.747-8.162-7.239-.343-.368-.017-.144-.344-2.653-6.524-7.906-9.396-1.073 1.314-1.406 7.001-.024.114-.065.094-1.786 2.676-.249.378-.428-.151-12.124-4.198v12.804l-.146.16-2.601 2.917 2.323 4.469.118.219-.084.241-1.075 3.04-.047.12-.107.1-9.839 9.289zm356.237-148.831l-6.778.108-9.904 8.746-.203.012-8.813.461-.34.019-.179-.284-2.881-4.516-14.212 12.618-2.274 8.159-.048.17-.124.112-15.011 13.351-16.466 28.117 3.489 3.536.113.12.038.162 1.715 7.707 11.307 6.648.168.098.076.177 6.797 16.205.036.094.005.11.294 9.722.006.193-.114.16-5.764 8.047 2.318 12.417 1.478 7.362.052.275-.177.207-6.873 8.281 1.875 4.809 12.253 7.854.311.2-.05.369-1.773 12.079-.571 6.237 4.401 6.579 9.501-1.851 3.372-6.392 7.858 3.408h5.211l2.771-2.147.213-.168.267.055 4.344.932 5.247-2.77 2.208-2.514.18-.208.275.012 8.689.31 1.801-4.797.309-.817.635.604 6.1 5.762 10.904 4.473 5.492 1.287.28.067.117.26 6.819 15.213 9.047 17.716 19.088 14.279 10.502-5.995 1.227-6.419.048-.241.208-.141 6.565-4.253.206.028 7.503.898 6.557-20.863.051-.176.153-.112 9.254-7.001.238-.182.277.081 9.896 2.87.096.019.064.046 13.268 8.82 20.252.322h.192l.151.108 14.056 10.28 16.909-9.678.323-.187.309.216 8.749 6.234 9.915-1.232 10.87-4.647 1.966-5.038-12.339-7.075-.292-.167v-15.686l-7.338-7.317-3.933-.303-.277-.019-.163-.234-7.482-10.878-9.893.31-.237.004-.178-.16-9.544-8.907-10.467 7.68-.176.129-.223-.022-13.407-1.272-.131-.015-.115-.069-13.089-7.961-.127-.072-.069-.121-7.244-11.937-19.625-8.518-.089-.041-.072-.06-14.195-12.894H745.66l.019-.596.313-10.305-4.028-5.247-.108-.144-.009-.186-.628-15.087-7.062-8.876-23.682-1.26-.206-.01-.153-.141-3.83-3.503-.181-.167-.01-.243-.312-9.91-9.542-7.364-20.892-1.576-.339-.029-.141-.303-5.75-12.097-.144-.308.199-.275 8.514-11.953.623-18.007zM70.152 600.061l-6.99-15.54-12.469-1.064-6.926-11.135 10.814-6.067-1.274-7.656 2.632-6.435-5.246-13.422-1.11-8.604h-8l-4.4 3.502-14.569-6.726-13.73-1.068-1.755 4.292 8.17 8.604-.931 6.844 4.354 4.017-9.838 8.996h-5.82L0 562.669l8.884 13.221 15.262-1.175 8.646 9.806 7.247-1.064 8.017 4.094-.893 6.917 11.023 8.819 11.966-3.226zM256.168 437.77l-.929-6.029 7.407-10.594.081-.12.017-.148.115-1.022 11.354-1.571.197-.029 1.478-1.476 1.573.786-.302 5.015-.022.334.286.186 13.278 8.498.146.093.175-.002 12.019-.159 5.047 5.95-.888 4.443-3.957 3.63-.049.048-6.393 7.354-.075.089-.038.115-1.964 6.045-.059.177.059.181 2.783 8.497.036.1.06.079 3.441 4.412.026.032.041.035 1.851 1.706-1.98 5.613-2.9 4.408-7.698-.313-.234-.009-.173.155-2.452 2.159-2.583-1.717-3.266-2.281-.361-.25-.338.279-1.707 1.389-4.92 1.228-3.094-1.389-.35-.161-.285.268-2.139 1.977-5.242.284v-3.558l3.765-3.756.191-.191-.026-.275-.822-8.173-.026-.286-.242-.149-4.61-2.856-1.902-3.93 1.739-2.166.029-.031 2.948-4.248.105-.15v-10.658l-.304-.161-4.624-2.549-3.293-5.158z"/></g></svg>