<svg width="40" height="40" viewBox="0 0 40 40" fill="none" xmlns="http://www.w3.org/2000/svg">
<path d="M27.2008 31.0402C27.2008 35.1049 23.9772 38.4002 20.0008 38.4002C16.0244 38.4002 12.8008 35.1049 12.8008 31.0402C12.8008 29.0778 13.5519 27.2951 14.7765 25.9756L14.7765 25.9755C15.6885 24.9928 16.1446 24.5014 16.2726 24.1731C16.4008 23.8449 16.4008 23.4106 16.4008 22.5422V21H23.6008V22.5422V22.5422C23.6008 23.4107 23.6008 23.8449 23.7289 24.1731C23.8569 24.5014 24.313 24.9928 25.225 25.9755L25.2251 25.9756C26.4496 27.2951 27.2008 29.0778 27.2008 31.0402Z" fill="#286AFF"/>
<path d="M20.0006 38.3996C24.0654 38.3996 27.3606 35.1044 27.3606 31.0396C27.3606 29.0772 26.5928 27.2945 25.341 25.975C24.4087 24.9923 23.9425 24.5008 23.8116 24.1725C23.6806 23.8443 23.6806 23.41 23.6806 22.5416V5.27961C23.6806 3.2472 22.0331 1.59961 20.0006 1.59961C17.9682 1.59961 16.3206 3.2472 16.3206 5.27961V22.5416C16.3206 23.41 16.3206 23.8443 16.1896 24.1725C16.0588 24.5008 15.5925 24.9923 14.6602 25.975C13.4085 27.2945 12.6406 29.0772 12.6406 31.0396C12.6406 35.1044 15.9359 38.3996 20.0006 38.3996Z" stroke="#286AFF" stroke-width="2" stroke-linecap="round" stroke-linejoin="round"/>
</svg>
