<svg width="20" height="20" viewBox="0 0 20 20" fill="none" xmlns="http://www.w3.org/2000/svg"><path d="M9.14 8.97c-.18-.446-.377-1.133-.592-2.062a46.045 46.045 0 01-.591-3.064A25.846 25.846 0 017.742.669c0-.223.233-.39.699-.502A6.22 6.22 0 019.892 0c.502 0 .986.056 1.452.167.466.112.699.279.699.502 0 .965-.072 2.005-.215 3.12a34.822 34.822 0 01-.538 3.12c-.179.928-.358 1.615-.537 2.06H9.14zm2.58 1.782l-.537-1.616c.287-.222.77-.538 1.451-.947a39.716 39.716 0 012.205-1.337 39.419 39.419 0 012.204-1.114c.681-.297 1.147-.446 1.398-.446.322 0 .591.26.806.78.251.483.43 1.04.538 1.672.143.594.215 1.04.215 1.337 0 .26-.376.501-1.129.724-.717.223-1.541.409-2.473.557-.932.149-1.864.26-2.796.334-.896.037-1.523.056-1.882.056zm-3.44.167c-.251 0-.628-.018-1.13-.056-.501-.037-1.057-.074-1.666-.11a31.413 31.413 0 01-2.527-.335A16.303 16.303 0 01.86 9.916C.287 9.694 0 9.471 0 9.248c0-.297.054-.743.161-1.337.144-.632.34-1.189.592-1.671.25-.52.52-.78.806-.78.251 0 .7.148 1.344.445A24.14 24.14 0 015.108 7.02a31.4 31.4 0 012.258 1.338c.68.408 1.164.724 1.451.947L8.28 10.92zm5.914 8.97a.358.358 0 01-.27-.112c-.537-.706-1.074-1.56-1.612-2.563a67.81 67.81 0 01-1.344-2.952c-.359-.929-.592-1.597-.7-2.006l1.345-1.002c.394.222.932.65 1.613 1.28a29.786 29.786 0 012.204 2.173 19.09 19.09 0 011.99 2.396v.111c.035 0 .053.02.053.056 0 .26-.215.613-.645 1.059-.43.408-.914.78-1.452 1.114-.501.297-.896.446-1.182.446zM5.967 20c-.323 0-.753-.149-1.29-.446A10.375 10.375 0 013.28 18.44c-.395-.408-.592-.743-.592-1.003 0-.074.018-.13.054-.167.61-.78 1.272-1.578 1.99-2.395a39.035 39.035 0 012.15-2.173c.68-.669 1.218-1.133 1.613-1.393l1.344 1.059c-.108.445-.34 1.114-.7 2.005a38.396 38.396 0 01-1.29 2.842 23.556 23.556 0 01-1.612 2.674.358.358 0 01-.27.111z" fill="currentColor"/></svg>