<svg width="18" height="18" viewBox="0 0 18 18" fill="none" xmlns="http://www.w3.org/2000/svg"><path d="M15.811 6.435v5.13c0 .84-.45 1.62-1.177 2.048l-4.455 2.572c-.728.42-1.628.42-2.363 0l-4.455-2.572a2.362 2.362 0 01-1.177-2.048v-5.13c0-.84.45-1.62 1.177-2.048l4.455-2.572a2.372 2.372 0 012.363 0l4.455 2.572a2.371 2.371 0 011.177 2.048z" stroke="currentColor" stroke-width="1.5" stroke-linecap="round" stroke-linejoin="round"/><path d="M7.313 9v-.9c0-1.155.817-1.627 1.815-1.05l.78.45.78.45c.997.578.997 1.523 0 2.1l-.78.45-.78.45c-.998.578-1.816.105-1.816-1.05V9z" stroke="currentColor" stroke-width="1.5" stroke-miterlimit="10" stroke-linecap="round" stroke-linejoin="round"/></svg>