<svg width="32" height="33" viewBox="0 0 32 33" fill="none" xmlns="http://www.w3.org/2000/svg">
<g clip-path="url(#clip0_306_3260)">
<mask id="mask0_306_3260" style="mask-type:luminance" maskUnits="userSpaceOnUse" x="0" y="0" width="156" height="33">
<path d="M155.2 0H0V32.985H155.2V0Z" fill="white"/>
</mask>
<g mask="url(#mask0_306_3260)">
<path d="M17.8753 9.6996L21.3572 10.9314V12.9151L17.8753 11.6835V9.6996ZM3.31646 17.96V13.9652L8.16252 12.2506V11.8322L2.91804 13.6873V17.96H1.97461C1.40551 16.3987 1.09465 14.7155 1.09465 12.9601C1.09465 7.74498 3.83348 3.16342 7.96562 0.544466C7.47224 0.164655 6.784 0.161269 6.28402 0.532341C5.64131 1.00934 4.91205 1.67558 4.38002 2.1848C3.77935 2.7599 3.23205 3.38757 2.76158 4.07114C2.68087 4.18821 2.60182 4.30667 2.52412 4.42606C0.371616 7.34442 0.0279456 12.0346 0.0279456 12.0346C0.0100421 12.3412 0 12.6493 0 12.9601C0 13.2707 0.0100421 13.579 0.0279456 13.8851C0.0279456 13.8851 0.469435 18.9887 2.52412 21.4941C2.8622 22.0148 3.23022 22.5145 3.62586 22.9911L1.31357 26.7503C3.00707 28.5138 5.02187 29.9719 7.26516 31.0337L10.1652 27.696C10.7438 27.92 11.3386 28.1115 11.9476 28.2685L12.3104 32.6539C13.5039 32.8707 14.7336 32.985 15.9903 32.985C17.2471 32.985 18.4768 32.8707 19.6703 32.6539L20.0333 28.2685C20.6421 28.1115 21.2371 27.92 21.8157 27.696L24.7155 31.0337C26.9587 29.9719 28.9736 28.5138 30.6671 26.7503L28.355 22.9911C28.7502 22.5145 29.1186 22.0148 29.4565 21.4941C29.4565 21.4941 31.8336 18.1081 31.9527 13.8851C31.9706 13.579 31.9807 13.2707 31.9807 12.9601C31.9807 12.6493 31.9706 12.3412 31.9527 12.0346C31.9527 12.0346 31.5829 7.44035 29.4565 4.42606C29.4531 4.42071 29.4497 4.41575 29.4463 4.41054C28.8541 3.50002 28.1425 2.67131 27.3483 1.92662C26.7969 1.40985 26.0731 0.778814 25.3147 0.250656C24.8046 -0.104682 24.1176 -0.0801857 23.6353 0.31121C27.9783 2.88575 30.8862 7.58669 30.8862 12.9601C30.8862 14.7155 30.5751 16.3987 30.0061 17.96H29.0625V13.6873L23.8182 11.8322V17.96H22.9544V9.82676L17.4825 7.89103V2.0098L15.9904 0.533751V7.36312V17.96H9.42478V13.0716V10.1046L11.7743 9.27324V8.85465V8.85441V6.31734L10.4627 5.01998V9.31847L9.02638 9.82666V17.96H3.31646ZM14.542 4.64281L13.2266 3.34152V8.75949L14.542 8.29427V4.64281ZM10.6234 12.9151L14.1054 11.6835V9.69965L10.6234 10.9315V12.9151Z" fill="black"/>
</g>
</g>
<defs>
<clipPath id="clip0_306_3260">
<rect width="32" height="33" fill="white"/>
</clipPath>
</defs>
</svg>
