<svg width="227" height="33" viewBox="0 0 227 33" fill="none" xmlns="http://www.w3.org/2000/svg">
<g clip-path="url(#clip0_306_3259)">
<mask id="mask0_306_3259" style="mask-type:luminance" maskUnits="userSpaceOnUse" x="0" y="0" width="156" height="33">
<path d="M155.2 0H0V32.985H155.2V0Z" fill="white"/>
</mask>
<g mask="url(#mask0_306_3259)">
<path d="M17.8753 9.6996L21.3572 10.9314V12.9151L17.8753 11.6835V9.6996ZM3.31646 17.96V13.9652L8.16252 12.2506V11.8322L2.91804 13.6873V17.96H1.97461C1.40551 16.3987 1.09465 14.7155 1.09465 12.9601C1.09465 7.74498 3.83348 3.16342 7.96562 0.544466C7.47224 0.164655 6.784 0.161269 6.28402 0.532341C5.64131 1.00934 4.91205 1.67558 4.38002 2.1848C3.77935 2.7599 3.23205 3.38757 2.76158 4.07114C2.68087 4.18821 2.60182 4.30667 2.52412 4.42606C0.371616 7.34442 0.0279456 12.0346 0.0279456 12.0346C0.0100421 12.3412 0 12.6493 0 12.9601C0 13.2707 0.0100421 13.579 0.0279456 13.8851C0.0279456 13.8851 0.469435 18.9887 2.52412 21.4941C2.8622 22.0148 3.23022 22.5145 3.62586 22.9911L1.31357 26.7503C3.00707 28.5138 5.02187 29.9719 7.26516 31.0337L10.1652 27.696C10.7438 27.92 11.3386 28.1115 11.9476 28.2685L12.3104 32.6539C13.5039 32.8707 14.7336 32.985 15.9903 32.985C17.2471 32.985 18.4768 32.8707 19.6703 32.6539L20.0333 28.2685C20.6421 28.1115 21.2371 27.92 21.8157 27.696L24.7155 31.0337C26.9587 29.9719 28.9736 28.5138 30.6671 26.7503L28.355 22.9911C28.7502 22.5145 29.1186 22.0148 29.4565 21.4941C29.4565 21.4941 31.8336 18.1081 31.9527 13.8851C31.9706 13.579 31.9807 13.2707 31.9807 12.9601C31.9807 12.6493 31.9706 12.3412 31.9527 12.0346C31.9527 12.0346 31.5829 7.44035 29.4565 4.42606C29.4531 4.42071 29.4497 4.41575 29.4463 4.41054C28.8541 3.50002 28.1425 2.67131 27.3483 1.92662C26.7969 1.40985 26.0731 0.778814 25.3147 0.250656C24.8046 -0.104682 24.1176 -0.0801857 23.6353 0.31121C27.9783 2.88575 30.8862 7.58669 30.8862 12.9601C30.8862 14.7155 30.5751 16.3987 30.0061 17.96H29.0625V13.6873L23.8182 11.8322V17.96H22.9544V9.82676L17.4825 7.89103V2.0098L15.9904 0.533751V7.36312V17.96H9.42478V13.0716V10.1046L11.7743 9.27324V8.85465V8.85441V6.31734L10.4627 5.01998V9.31847L9.02638 9.82666V17.96H3.31646ZM14.542 4.64281L13.2266 3.34152V8.75949L14.542 8.29427V4.64281ZM10.6234 12.9151L14.1054 11.6835V9.69965L10.6234 10.9315V12.9151Z" fill="black"/>
</g>
</g>
<path d="M45.54 9.5H53.28C53.92 9.5 54.5 9.59333 55.02 9.78C55.54 9.95333 55.98 10.2 56.34 10.52C56.7 10.84 56.9733 11.22 57.16 11.66C57.36 12.1 57.46 12.58 57.46 13.1C57.46 13.7267 57.3267 14.2733 57.06 14.74C56.7933 15.1933 56.4067 15.5333 55.9 15.76C56.46 16.0267 56.92 16.4533 57.28 17.04C57.6533 17.6267 57.84 18.3 57.84 19.06C57.84 20.54 57.4 21.6533 56.52 22.4C55.64 23.1333 54.3267 23.5 52.58 23.5H45.54V9.5ZM53 14.68C54.12 14.68 54.68 14.22 54.68 13.3C54.68 12.8733 54.5333 12.54 54.24 12.3C53.9467 12.06 53.5333 11.94 53 11.94H48.28V14.68H53ZM52.58 21.06C54.2333 21.06 55.06 20.3733 55.06 19C55.06 18.3333 54.8467 17.8333 54.42 17.5C54.0067 17.1667 53.4 17 52.6 17H48.28V21.06H52.58ZM68.7992 19.52H62.9192L61.1792 23.5H58.2592L64.5792 9.5H67.2192L73.5392 23.5H70.5592L68.7992 19.52ZM63.9592 17.16H67.7592L65.8592 12.86L63.9592 17.16ZM88.0298 9.5V23.5H85.2898V11.94H79.4498V17.26C79.4498 18.5667 79.3832 19.6333 79.2498 20.46C79.1165 21.2733 78.8765 21.9133 78.5298 22.38C78.1965 22.8333 77.7432 23.1467 77.1698 23.32C76.6098 23.48 75.9032 23.56 75.0498 23.56H73.7698V20.98H74.8698C75.2565 20.98 75.5765 20.9333 75.8298 20.84C76.0832 20.7467 76.2765 20.5667 76.4098 20.3C76.5565 20.0333 76.6565 19.66 76.7098 19.18C76.7632 18.6867 76.7898 18.0467 76.7898 17.26V9.5H88.0298ZM103.546 18.56C103.546 19.2267 103.44 19.86 103.226 20.46C103.026 21.06 102.706 21.5867 102.266 22.04C101.826 22.48 101.26 22.8333 100.566 23.1C99.8864 23.3667 99.0731 23.5 98.1264 23.5H91.1064V9.5H93.8464V13.62H98.1264C99.0731 13.62 99.8864 13.7533 100.566 14.02C101.26 14.2867 101.826 14.6467 102.266 15.1C102.706 15.54 103.026 16.06 103.226 16.66C103.44 17.26 103.546 17.8933 103.546 18.56ZM100.766 18.56C100.766 17.8133 100.553 17.2133 100.126 16.76C99.6997 16.2933 98.9931 16.06 98.0064 16.06H93.8464V21.06H98.0064C98.9931 21.06 99.6997 20.8333 100.126 20.38C100.553 19.9133 100.766 19.3067 100.766 18.56ZM105.579 9.5H113.319C113.959 9.5 114.539 9.59333 115.059 9.78C115.579 9.95333 116.019 10.2 116.379 10.52C116.739 10.84 117.012 11.22 117.199 11.66C117.399 12.1 117.499 12.58 117.499 13.1C117.499 13.7267 117.366 14.2733 117.099 14.74C116.832 15.1933 116.446 15.5333 115.939 15.76C116.499 16.0267 116.959 16.4533 117.319 17.04C117.692 17.6267 117.879 18.3 117.879 19.06C117.879 20.54 117.439 21.6533 116.559 22.4C115.679 23.1333 114.366 23.5 112.619 23.5H105.579V9.5ZM113.039 14.68C114.159 14.68 114.719 14.22 114.719 13.3C114.719 12.8733 114.572 12.54 114.279 12.3C113.986 12.06 113.572 11.94 113.039 11.94H108.319V14.68H113.039ZM112.619 21.06C114.272 21.06 115.099 20.3733 115.099 19C115.099 18.3333 114.886 17.8333 114.459 17.5C114.046 17.1667 113.439 17 112.639 17H108.319V21.06H112.619ZM131.049 23.5H128.309V11.94H123.049V9.5H136.309V11.94H131.049V23.5ZM149.318 23.5H138.118V9.5H148.458V11.94H140.858V14.62H149.178V16.98H140.858V21.06H149.318V23.5ZM159.53 13.98L165.01 23.5H161.89L157.37 15.56L154.53 17.7V23.5H151.79V9.5H154.53V14.62L161.51 9.5H165.61L159.53 13.98ZM181.906 11.94H173.866V23.5H171.126V9.5H181.906V11.94ZM186.444 17.5V23.5H183.704V9.5H191.724C192.537 9.5 193.231 9.6 193.804 9.8C194.391 9.98667 194.864 10.26 195.224 10.62C195.597 10.9667 195.864 11.3867 196.024 11.88C196.197 12.3733 196.284 12.9133 196.284 13.5C196.284 14.0867 196.197 14.6267 196.024 15.12C195.864 15.6133 195.597 16.04 195.224 16.4C194.864 16.7467 194.391 17.02 193.804 17.22C193.231 17.4067 192.537 17.5 191.724 17.5H186.444ZM186.444 15.06H191.584C192.211 15.06 192.684 14.94 193.004 14.7C193.337 14.46 193.504 14.06 193.504 13.5C193.504 12.94 193.337 12.54 193.004 12.3C192.684 12.06 192.211 11.94 191.584 11.94H186.444V15.06ZM204.435 21.26C204.009 22.0067 203.522 22.5667 202.975 22.94C202.442 23.3133 201.729 23.5 200.835 23.5H198.675V21.06H200.115C200.409 21.06 200.655 21.0467 200.855 21.02C201.069 20.98 201.249 20.92 201.395 20.84C201.542 20.7467 201.675 20.6267 201.795 20.48C201.915 20.3333 202.042 20.1467 202.175 19.92L202.655 19.1L196.875 9.5H199.935L204.115 16.56L208.035 9.5H211.015L204.435 21.26ZM224.853 9.5V23.5H222.113V11.94H215.253V23.5H212.513V9.5H224.853Z" fill="#212121"/>
<defs>
<clipPath id="clip0_306_3259">
<rect width="32" height="33" fill="white"/>
</clipPath>
</defs>
</svg>
