<svg width="1" height="2152" viewBox="0 0 1 2152" fill="none" xmlns="http://www.w3.org/2000/svg">
<path fill-rule="evenodd" clip-rule="evenodd" d="M1.31134e-07 3L0 4.37114e-08L1 0L1 3L1.31134e-07 3ZM6.55671e-07 15L3.93403e-07 9L1 9L1 15L6.55671e-07 15ZM1.18021e-06 27L9.17939e-07 21L1 21L1 27L1.18021e-06 27ZM1.70474e-06 39L1.44248e-06 33L1 33L1 39L1.70474e-06 39ZM2.22928e-06 51L1.96701e-06 45L1 45L1 51L2.22928e-06 51ZM2.75382e-06 63L2.49155e-06 57L1 57L1 63L2.75382e-06 63ZM3.27835e-06 75L3.01609e-06 69L1 69L1 75L3.27835e-06 75ZM3.80289e-06 87L3.54062e-06 81L1 81L1 87L3.80289e-06 87ZM4.32743e-06 99L4.06516e-06 93L1 93L1 99L4.32743e-06 99ZM4.85196e-06 111L4.5897e-06 105L1 105L1 111L4.85196e-06 111ZM5.3765e-06 123L5.11423e-06 117L1.00001 117L1.00001 123L5.3765e-06 123ZM5.90104e-06 135L5.63877e-06 129L1.00001 129L1.00001 135L5.90104e-06 135ZM6.42558e-06 147L6.16331e-06 141L1.00001 141L1.00001 147L6.42558e-06 147ZM6.95011e-06 159L6.68784e-06 153L1.00001 153L1.00001 159L6.95011e-06 159ZM7.47465e-06 171L7.21238e-06 165L1.00001 165L1.00001 171L7.47465e-06 171ZM7.99918e-06 183L7.73692e-06 177L1.00001 177L1.00001 183L7.99918e-06 183ZM8.52372e-06 195L8.26145e-06 189L1.00001 189L1.00001 195L8.52372e-06 195ZM9.04826e-06 207L8.78599e-06 201L1.00001 201L1.00001 207L9.04826e-06 207ZM9.57279e-06 219L9.31053e-06 213L1.00001 213L1.00001 219L9.57279e-06 219ZM1.00973e-05 231L9.83506e-06 225L1.00001 225L1.00001 231L1.00973e-05 231ZM1.06219e-05 243L1.03596e-05 237L1.00001 237L1.00001 243L1.06219e-05 243ZM1.11464e-05 255L1.08841e-05 249L1.00001 249L1.00001 255L1.11464e-05 255ZM1.16709e-05 267L1.14087e-05 261L1.00001 261L1.00001 267L1.16709e-05 267ZM1.21955e-05 279L1.19332e-05 273L1.00001 273L1.00001 279L1.21955e-05 279ZM1.272e-05 291L1.24577e-05 285L1.00001 285L1.00001 291L1.272e-05 291ZM1.32446e-05 303L1.29823e-05 297L1.00001 297L1.00001 303L1.32446e-05 303ZM1.37691e-05 315L1.35068e-05 309L1.00001 309L1.00001 315L1.37691e-05 315ZM1.42936e-05 327L1.40314e-05 321L1.00001 321L1.00001 327L1.42936e-05 327ZM1.48182e-05 339L1.45559e-05 333L1.00001 333L1.00001 339L1.48182e-05 339ZM1.53427e-05 351L1.50804e-05 345L1.00002 345L1.00002 351L1.53427e-05 351ZM1.58672e-05 363L1.5605e-05 357L1.00002 357L1.00002 363L1.58672e-05 363ZM1.63918e-05 375L1.61295e-05 369L1.00002 369L1.00002 375L1.63918e-05 375ZM1.69163e-05 387L1.6654e-05 381L1.00002 381L1.00002 387L1.69163e-05 387ZM1.74408e-05 399L1.71786e-05 393L1.00002 393L1.00002 399L1.74408e-05 399ZM1.79654e-05 411L1.77031e-05 405L1.00002 405L1.00002 411L1.79654e-05 411ZM1.84899e-05 423L1.82277e-05 417L1.00002 417L1.00002 423L1.84899e-05 423ZM1.90145e-05 435L1.87522e-05 429L1.00002 429L1.00002 435L1.90145e-05 435ZM1.9539e-05 447L1.92767e-05 441L1.00002 441L1.00002 447L1.9539e-05 447ZM2.00635e-05 459L1.98013e-05 453L1.00002 453L1.00002 459L2.00635e-05 459ZM2.05881e-05 471L2.03258e-05 465L1.00002 465L1.00002 471L2.05881e-05 471ZM2.11126e-05 483L2.08503e-05 477L1.00002 477L1.00002 483L2.11126e-05 483ZM2.16371e-05 495L2.13749e-05 489L1.00002 489L1.00002 495L2.16371e-05 495ZM2.21617e-05 507L2.18994e-05 501L1.00002 501L1.00002 507L2.21617e-05 507ZM2.26862e-05 519L2.24239e-05 513L1.00002 513L1.00002 519L2.26862e-05 519ZM2.32107e-05 531L2.29485e-05 525L1.00002 525L1.00002 531L2.32107e-05 531ZM2.37353e-05 543L2.3473e-05 537L1.00002 537L1.00002 543L2.37353e-05 543ZM2.42598e-05 555L2.39976e-05 549L1.00002 549L1.00002 555L2.42598e-05 555ZM2.47844e-05 567L2.45221e-05 561L1.00002 561L1.00002 567L2.47844e-05 567ZM2.53089e-05 579L2.50466e-05 573L1.00003 573L1.00003 579L2.53089e-05 579ZM2.58334e-05 591L2.55712e-05 585L1.00003 585L1.00003 591L2.58334e-05 591ZM2.6358e-05 603L2.60957e-05 597L1.00003 597L1.00003 603L2.6358e-05 603ZM2.68825e-05 615L2.66202e-05 609L1.00003 609L1.00003 615L2.68825e-05 615ZM2.7407e-05 627L2.71448e-05 621L1.00003 621L1.00003 627L2.7407e-05 627ZM2.79316e-05 639L2.76693e-05 633L1.00003 633L1.00003 639L2.79316e-05 639ZM2.84561e-05 651L2.81938e-05 645L1.00003 645L1.00003 651L2.84561e-05 651ZM2.89807e-05 663L2.87184e-05 657L1.00003 657L1.00003 663L2.89807e-05 663ZM2.95052e-05 675L2.92429e-05 669L1.00003 669L1.00003 675L2.95052e-05 675ZM3.00297e-05 687L2.97675e-05 681L1.00003 681L1.00003 687L3.00297e-05 687ZM3.05543e-05 699L3.0292e-05 693L1.00003 693L1.00003 699L3.05543e-05 699ZM3.10788e-05 711L3.08165e-05 705L1.00003 705L1.00003 711L3.10788e-05 711ZM3.16033e-05 723L3.13411e-05 717L1.00003 717L1.00003 723L3.16033e-05 723ZM3.21279e-05 735L3.18656e-05 729L1.00003 729L1.00003 735L3.21279e-05 735ZM3.26524e-05 747L3.23901e-05 741L1.00003 741L1.00003 747L3.26524e-05 747ZM3.31769e-05 759L3.29147e-05 753L1.00003 753L1.00003 759L3.31769e-05 759ZM3.37015e-05 771L3.34392e-05 765L1.00003 765L1.00003 771L3.37015e-05 771ZM3.4226e-05 783L3.39638e-05 777L1.00003 777L1.00003 783L3.4226e-05 783ZM3.47506e-05 795L3.44883e-05 789L1.00003 789L1.00003 795L3.47506e-05 795ZM3.52751e-05 807L3.50128e-05 801L1.00004 801L1.00004 807L3.52751e-05 807ZM3.57996e-05 819L3.55374e-05 813L1.00004 813L1.00004 819L3.57996e-05 819ZM3.63242e-05 831L3.60619e-05 825L1.00004 825L1.00004 831L3.63242e-05 831ZM3.68487e-05 843L3.65864e-05 837L1.00004 837L1.00004 843L3.68487e-05 843ZM3.73732e-05 855L3.7111e-05 849L1.00004 849L1.00004 855L3.73732e-05 855ZM3.78978e-05 867L3.76355e-05 861L1.00004 861L1.00004 867L3.78978e-05 867ZM3.84223e-05 879L3.816e-05 873L1.00004 873L1.00004 879L3.84223e-05 879ZM3.89469e-05 891L3.86846e-05 885L1.00004 885L1.00004 891L3.89469e-05 891ZM3.94714e-05 903L3.92091e-05 897L1.00004 897L1.00004 903L3.94714e-05 903ZM3.99959e-05 915L3.97337e-05 909L1.00004 909L1.00004 915L3.99959e-05 915ZM4.05205e-05 927L4.02582e-05 921L1.00004 921L1.00004 927L4.05205e-05 927ZM4.1045e-05 939L4.07827e-05 933L1.00004 933L1.00004 939L4.1045e-05 939ZM4.15695e-05 951L4.13073e-05 945L1.00004 945L1.00004 951L4.15695e-05 951ZM4.20941e-05 963L4.18318e-05 957L1.00004 957L1.00004 963L4.20941e-05 963ZM4.26186e-05 975L4.23563e-05 969L1.00004 969L1.00004 975L4.26186e-05 975ZM4.31431e-05 987L4.28809e-05 981L1.00004 981L1.00004 987L4.31431e-05 987ZM4.36677e-05 999L4.34054e-05 993L1.00004 993L1.00004 999L4.36677e-05 999ZM4.41922e-05 1011L4.39299e-05 1005L1.00004 1005L1.00004 1011L4.41922e-05 1011ZM4.47168e-05 1023L4.44545e-05 1017L1.00004 1017L1.00004 1023L4.47168e-05 1023ZM4.52413e-05 1035L4.4979e-05 1029L1.00004 1029L1.00005 1035L4.52413e-05 1035ZM4.57658e-05 1047L4.55036e-05 1041L1.00005 1041L1.00005 1047L4.57658e-05 1047ZM4.62904e-05 1059L4.60281e-05 1053L1.00005 1053L1.00005 1059L4.62904e-05 1059ZM4.68149e-05 1071L4.65526e-05 1065L1.00005 1065L1.00005 1071L4.68149e-05 1071ZM4.73394e-05 1083L4.70772e-05 1077L1.00005 1077L1.00005 1083L4.73394e-05 1083ZM4.7864e-05 1095L4.76017e-05 1089L1.00005 1089L1.00005 1095L4.7864e-05 1095ZM4.83885e-05 1107L4.81262e-05 1101L1.00005 1101L1.00005 1107L4.83885e-05 1107ZM4.8913e-05 1119L4.86508e-05 1113L1.00005 1113L1.00005 1119L4.8913e-05 1119ZM4.94376e-05 1131L4.91753e-05 1125L1.00005 1125L1.00005 1131L4.94376e-05 1131ZM4.99621e-05 1143L4.96999e-05 1137L1.00005 1137L1.00005 1143L4.99621e-05 1143ZM5.04867e-05 1155L5.02244e-05 1149L1.00005 1149L1.00005 1155L5.04867e-05 1155ZM5.10112e-05 1167L5.07489e-05 1161L1.00005 1161L1.00005 1167L5.10112e-05 1167ZM5.15357e-05 1179L5.12735e-05 1173L1.00005 1173L1.00005 1179L5.15357e-05 1179ZM5.20603e-05 1191L5.1798e-05 1185L1.00005 1185L1.00005 1191L5.20603e-05 1191ZM5.25848e-05 1203L5.23225e-05 1197L1.00005 1197L1.00005 1203L5.25848e-05 1203ZM5.31093e-05 1215L5.28471e-05 1209L1.00005 1209L1.00005 1215L5.31093e-05 1215ZM5.36339e-05 1227L5.33716e-05 1221L1.00005 1221L1.00005 1227L5.36339e-05 1227ZM5.41584e-05 1239L5.38961e-05 1233L1.00005 1233L1.00005 1239L5.41584e-05 1239ZM5.4683e-05 1251L5.44207e-05 1245L1.00005 1245L1.00005 1251L5.4683e-05 1251ZM5.52075e-05 1263L5.49452e-05 1257L1.00005 1257L1.00006 1263L5.52075e-05 1263ZM5.5732e-05 1275L5.54698e-05 1269L1.00006 1269L1.00006 1275L5.5732e-05 1275ZM5.62566e-05 1287L5.59943e-05 1281L1.00006 1281L1.00006 1287L5.62566e-05 1287ZM5.67811e-05 1299L5.65188e-05 1293L1.00006 1293L1.00006 1299L5.67811e-05 1299ZM5.73056e-05 1311L5.70434e-05 1305L1.00006 1305L1.00006 1311L5.73056e-05 1311ZM5.78302e-05 1323L5.75679e-05 1317L1.00006 1317L1.00006 1323L5.78302e-05 1323ZM5.83547e-05 1335L5.80924e-05 1329L1.00006 1329L1.00006 1335L5.83547e-05 1335ZM5.88792e-05 1347L5.8617e-05 1341L1.00006 1341L1.00006 1347L5.88792e-05 1347ZM5.94038e-05 1359L5.91415e-05 1353L1.00006 1353L1.00006 1359L5.94038e-05 1359ZM5.99283e-05 1371L5.9666e-05 1365L1.00006 1365L1.00006 1371L5.99283e-05 1371ZM6.04529e-05 1383L6.01906e-05 1377L1.00006 1377L1.00006 1383L6.04529e-05 1383ZM6.09774e-05 1395L6.07151e-05 1389L1.00006 1389L1.00006 1395L6.09774e-05 1395ZM6.15019e-05 1407L6.12397e-05 1401L1.00006 1401L1.00006 1407L6.15019e-05 1407ZM6.20265e-05 1419L6.17642e-05 1413L1.00006 1413L1.00006 1419L6.20265e-05 1419ZM6.2551e-05 1431L6.22887e-05 1425L1.00006 1425L1.00006 1431L6.2551e-05 1431ZM6.30755e-05 1443L6.28133e-05 1437L1.00006 1437L1.00006 1443L6.30755e-05 1443ZM6.36001e-05 1455L6.33378e-05 1449L1.00006 1449L1.00006 1455L6.36001e-05 1455ZM6.41246e-05 1467L6.38623e-05 1461L1.00006 1461L1.00006 1467L6.41246e-05 1467ZM6.46491e-05 1479L6.43869e-05 1473L1.00006 1473L1.00006 1479L6.46491e-05 1479ZM6.51737e-05 1491L6.49114e-05 1485L1.00006 1485L1.00007 1491L6.51737e-05 1491ZM6.56982e-05 1503L6.5436e-05 1497L1.00007 1497L1.00007 1503L6.56982e-05 1503ZM6.62228e-05 1515L6.59605e-05 1509L1.00007 1509L1.00007 1515L6.62228e-05 1515ZM6.67473e-05 1527L6.6485e-05 1521L1.00007 1521L1.00007 1527L6.67473e-05 1527ZM6.72718e-05 1539L6.70096e-05 1533L1.00007 1533L1.00007 1539L6.72718e-05 1539ZM6.77964e-05 1551L6.75341e-05 1545L1.00007 1545L1.00007 1551L6.77964e-05 1551ZM6.83209e-05 1563L6.80586e-05 1557L1.00007 1557L1.00007 1563L6.83209e-05 1563ZM6.88454e-05 1575L6.85832e-05 1569L1.00007 1569L1.00007 1575L6.88454e-05 1575ZM6.937e-05 1587L6.91077e-05 1581L1.00007 1581L1.00007 1587L6.937e-05 1587ZM6.98945e-05 1599L6.96322e-05 1593L1.00007 1593L1.00007 1599L6.98945e-05 1599ZM7.04191e-05 1611L7.01568e-05 1605L1.00007 1605L1.00007 1611L7.04191e-05 1611ZM7.09436e-05 1623L7.06813e-05 1617L1.00007 1617L1.00007 1623L7.09436e-05 1623ZM7.14681e-05 1635L7.12059e-05 1629L1.00007 1629L1.00007 1635L7.14681e-05 1635ZM7.19927e-05 1647L7.17304e-05 1641L1.00007 1641L1.00007 1647L7.19927e-05 1647ZM7.25172e-05 1659L7.22549e-05 1653L1.00007 1653L1.00007 1659L7.25172e-05 1659ZM7.30417e-05 1671L7.27795e-05 1665L1.00007 1665L1.00007 1671L7.30417e-05 1671ZM7.35663e-05 1683L7.3304e-05 1677L1.00007 1677L1.00007 1683L7.35663e-05 1683ZM7.40908e-05 1695L7.38285e-05 1689L1.00007 1689L1.00007 1695L7.40908e-05 1695ZM7.46153e-05 1707L7.43531e-05 1701L1.00007 1701L1.00007 1707L7.46153e-05 1707ZM7.51399e-05 1719L7.48776e-05 1713L1.00007 1713L1.00008 1719L7.51399e-05 1719ZM7.56644e-05 1731L7.54022e-05 1725L1.00008 1725L1.00008 1731L7.56644e-05 1731ZM7.6189e-05 1743L7.59267e-05 1737L1.00008 1737L1.00008 1743L7.6189e-05 1743ZM7.67135e-05 1755L7.64512e-05 1749L1.00008 1749L1.00008 1755L7.67135e-05 1755ZM7.7238e-05 1767L7.69758e-05 1761L1.00008 1761L1.00008 1767L7.7238e-05 1767ZM7.77626e-05 1779L7.75003e-05 1773L1.00008 1773L1.00008 1779L7.77626e-05 1779ZM7.82871e-05 1791L7.80248e-05 1785L1.00008 1785L1.00008 1791L7.82871e-05 1791ZM7.88116e-05 1803L7.85494e-05 1797L1.00008 1797L1.00008 1803L7.88116e-05 1803ZM7.93362e-05 1815L7.90739e-05 1809L1.00008 1809L1.00008 1815L7.93362e-05 1815ZM7.98607e-05 1827L7.95984e-05 1821L1.00008 1821L1.00008 1827L7.98607e-05 1827ZM8.03853e-05 1839L8.0123e-05 1833L1.00008 1833L1.00008 1839L8.03853e-05 1839ZM8.09098e-05 1851L8.06475e-05 1845L1.00008 1845L1.00008 1851L8.09098e-05 1851ZM8.14343e-05 1863L8.11721e-05 1857L1.00008 1857L1.00008 1863L8.14343e-05 1863ZM8.19589e-05 1875L8.16966e-05 1869L1.00008 1869L1.00008 1875L8.19589e-05 1875ZM8.24834e-05 1887L8.22211e-05 1881L1.00008 1881L1.00008 1887L8.24834e-05 1887ZM8.30079e-05 1899L8.27457e-05 1893L1.00008 1893L1.00008 1899L8.30079e-05 1899ZM8.35325e-05 1911L8.32702e-05 1905L1.00008 1905L1.00008 1911L8.35325e-05 1911ZM8.4057e-05 1923L8.37947e-05 1917L1.00008 1917L1.00008 1923L8.4057e-05 1923ZM8.45815e-05 1935L8.43193e-05 1929L1.00008 1929L1.00008 1935L8.45815e-05 1935ZM8.51061e-05 1947L8.48438e-05 1941L1.00008 1941L1.00009 1947L8.51061e-05 1947ZM8.56306e-05 1959L8.53683e-05 1953L1.00009 1953L1.00009 1959L8.56306e-05 1959ZM8.61552e-05 1971L8.58929e-05 1965L1.00009 1965L1.00009 1971L8.61552e-05 1971ZM8.66797e-05 1983L8.64174e-05 1977L1.00009 1977L1.00009 1983L8.66797e-05 1983ZM8.72042e-05 1995L8.6942e-05 1989L1.00009 1989L1.00009 1995L8.72042e-05 1995ZM8.77288e-05 2007L8.74665e-05 2001L1.00009 2001L1.00009 2007L8.77288e-05 2007ZM8.82533e-05 2019L8.7991e-05 2013L1.00009 2013L1.00009 2019L8.82533e-05 2019ZM8.87778e-05 2031L8.85156e-05 2025L1.00009 2025L1.00009 2031L8.87778e-05 2031ZM8.93024e-05 2043L8.90401e-05 2037L1.00009 2037L1.00009 2043L8.93024e-05 2043ZM8.98269e-05 2055L8.95646e-05 2049L1.00009 2049L1.00009 2055L8.98269e-05 2055ZM9.03514e-05 2067L9.00892e-05 2061L1.00009 2061L1.00009 2067L9.03514e-05 2067ZM9.0876e-05 2079L9.06137e-05 2073L1.00009 2073L1.00009 2079L9.0876e-05 2079ZM9.14005e-05 2091L9.11383e-05 2085L1.00009 2085L1.00009 2091L9.14005e-05 2091ZM9.19251e-05 2103L9.16628e-05 2097L1.00009 2097L1.00009 2103L9.19251e-05 2103ZM9.24496e-05 2115L9.21873e-05 2109L1.00009 2109L1.00009 2115L9.24496e-05 2115ZM9.29741e-05 2127L9.27119e-05 2121L1.00009 2121L1.00009 2127L9.29741e-05 2127ZM9.34987e-05 2139L9.32364e-05 2133L1.00009 2133L1.00009 2139L9.34987e-05 2139ZM9.40232e-05 2151L9.37609e-05 2145L1.00009 2145L1.00009 2151L9.40232e-05 2151ZM9.45477e-05 2163L9.42855e-05 2157L1.00009 2157L1.00009 2163L9.45477e-05 2163ZM9.49411e-05 2172L9.481e-05 2169L1.00009 2169L1.00009 2172L9.49411e-05 2172Z" fill="#286AFF"/>
</svg>