<svg width="13" height="14" viewBox="0 0 13 14" fill="none" xmlns="http://www.w3.org/2000/svg">
<path d="M11.4989 6.08333C11.4924 4.90521 11.4404 4.26713 11.0239 3.85113C10.5483 3.375 9.78183 3.375 8.25 3.375H6.625C5.09317 3.375 4.32671 3.375 3.85113 3.85113C3.375 4.32671 3.375 5.09317 3.375 6.625V9.33333C3.375 10.8652 3.375 11.6316 3.85113 12.1072C4.32671 12.5833 5.09317 12.5833 6.625 12.5833H8.25C9.78183 12.5833 10.5483 12.5833 11.0239 12.1072C11.5 11.6316 11.5 10.8652 11.5 9.33333V8.79167" stroke="currentColor" stroke-width="1.5" stroke-linecap="round"/>
<path d="M0.75 5.08333V8.33333C0.75 8.76431 0.921205 9.17763 1.22595 9.48238C1.5307 9.78713 1.94402 9.95833 2.375 9.95833M8.875 2.375C8.875 1.94402 8.7038 1.5307 8.39905 1.22595C8.0943 0.921205 7.68098 0.75 7.25 0.75H5.08333C3.04071 0.75 2.01913 0.75 1.38483 1.38483C1.03058 1.73854 0.874042 2.2125 0.80525 2.91667" stroke="currentColor" stroke-width="1.5" stroke-linecap="round"/>
</svg>
