<?xml version="1.0" encoding="utf-8"?><svg viewBox="0 0 60 60" xmlns="http://www.w3.org/2000/svg" xmlns:xlink="http://www.w3.org/1999/xlink"><style>:root>svg{display:none}:root>svg:target{display:block}</style><svg fill="none" viewBox="0 0 13 13" id="btn_chevron" xmlns="http://www.w3.org/2000/svg"><path fill-rule="evenodd" clip-rule="evenodd" d="M4.727 11.553l-.793-.794 4.09-4.09-4.09-4.09.793-.794L9.61 6.669l-4.884 4.884z" fill="currentColor"/></svg><svg fill="none" viewBox="0 0 7 12" id="card_chevron" xmlns="http://www.w3.org/2000/svg"><path fill-rule="evenodd" clip-rule="evenodd" d="M.978 12L0 11.025 5.044 6 0 .975.978 0 7 6 .978 12z" fill="currentColor"/></svg><svg fill="none" viewBox="0 0 18 18" id="catalog" xmlns="http://www.w3.org/2000/svg"><rect x="3" y="3" width="5.25" height="5.25" rx="2" fill="currentColor"/><rect x="3" y="9.75" width="5.25" height="5.25" rx="2" fill="currentColor"/><rect x="9.75" y="3" width="5.25" height="5.25" rx="2" fill="currentColor"/><rect x="9.75" y="9.75" width="5.25" height="5.25" rx="2" fill="currentColor"/></svg><svg fill="none" viewBox="0 0 18 18" id="clock" xmlns="http://www.w3.org/2000/svg"><path d="M6.375 14.25h5.25c1.748 0 2.625-.877 2.625-2.625v-5.25c0-1.747-.877-2.625-2.625-2.625h-5.25c-1.747 0-2.625.878-2.625 2.625v5.25c0 1.748.878 2.625 2.625 2.625zM12 1.5H6M12 16.5H6" stroke="currentColor" stroke-width="1.5" stroke-miterlimit="10" stroke-linecap="round" stroke-linejoin="round"/><path d="M8.625 7.125v2.25h2.25" stroke="currentColor" stroke-width="1.5" stroke-miterlimit="10" stroke-linecap="round" stroke-linejoin="round"/></svg><svg fill="none" viewBox="0 0 32 32" id="close" xmlns="http://www.w3.org/2000/svg"><path d="M12.227 19.773l7.546-7.546M19.773 19.773l-7.546-7.546M12 29.333h8c6.666 0 9.333-2.666 9.333-9.333v-8c0-6.667-2.667-9.334-9.334-9.334h-8c-6.666 0-9.333 2.667-9.333 9.334v8c0 6.666 2.667 9.333 9.333 9.333z" stroke="currentColor" stroke-width="1.5" stroke-linecap="round" stroke-linejoin="round"/></svg><svg fill="none" viewBox="0 0 13 14" id="copy" xmlns="http://www.w3.org/2000/svg"><path d="M11.499 6.083c-.007-1.178-.059-1.816-.475-2.232-.476-.476-1.242-.476-2.774-.476H6.625c-1.532 0-2.298 0-2.774.476s-.476 1.242-.476 2.774v2.708c0 1.532 0 2.299.476 2.774.476.476 1.242.476 2.774.476H8.25c1.532 0 2.298 0 2.774-.476.476-.475.476-1.242.476-2.774v-.541M.75 5.083v3.25a1.625 1.625 0 001.625 1.625m6.5-7.583A1.625 1.625 0 007.25.75H5.083c-2.042 0-3.064 0-3.698.635-.354.354-.511.827-.58 1.532" stroke="currentColor" stroke-width="1.5" stroke-linecap="round"/></svg><svg fill="none" viewBox="0 0 32 32" id="download" xmlns="http://www.w3.org/2000/svg"><path d="M12.426 15.573l3.413 3.414 3.413-3.414M15.84 5.333v13.56" stroke="currentColor" stroke-width="1.5" stroke-miterlimit="10" stroke-linecap="round" stroke-linejoin="round"/><path d="M26.665 16.24c0 5.894-4 10.667-10.666 10.667-6.667 0-10.667-4.773-10.667-10.667" stroke="currentColor" stroke-width="1.5" stroke-miterlimit="10" stroke-linecap="round" stroke-linejoin="round"/></svg><svg fill="none" viewBox="0 0 18 18" id="filter" xmlns="http://www.w3.org/2000/svg"><path d="M16.5 4.875H12M4.5 4.875h-3M7.5 7.5a2.625 2.625 0 100-5.25 2.625 2.625 0 000 5.25zM16.5 13.125h-3M6 13.125H1.5M10.5 15.75a2.625 2.625 0 100-5.25 2.625 2.625 0 000 5.25z" stroke="currentColor" stroke-width="1.5" stroke-miterlimit="10" stroke-linecap="round" stroke-linejoin="round"/></svg><svg fill="none" viewBox="0 0 22 22" id="filter_chevron" xmlns="http://www.w3.org/2000/svg"><path d="M3.74 13.796l5.976-5.977a1.82 1.82 0 012.567 0l5.977 5.977" stroke="currentColor" stroke-width="1.5" stroke-miterlimit="10" stroke-linecap="round" stroke-linejoin="round"/></svg><svg fill="none" viewBox="0 0 18 18" id="handset" xmlns="http://www.w3.org/2000/svg"><path d="M16.477 13.748c0 .27-.06.547-.187.817-.127.27-.292.525-.51.765a3.381 3.381 0 01-1.23.885c-.45.188-.938.285-1.463.285-.764 0-1.582-.18-2.444-.547a13.173 13.173 0 01-2.58-1.486 21.563 21.563 0 01-2.46-2.1A21.31 21.31 0 013.51 9.915c-.615-.855-1.11-1.71-1.47-2.557-.36-.855-.54-1.673-.54-2.453 0-.51.09-.998.27-1.448.18-.457.465-.877.862-1.252.48-.473 1.006-.705 1.56-.705.21 0 .42.045.608.135.195.09.368.225.503.42l1.74 2.453c.135.187.232.36.3.524.067.158.104.316.104.458 0 .18-.052.36-.157.532-.098.173-.24.353-.42.533l-.57.593a.401.401 0 00-.12.3c0 .06.008.112.022.172.023.06.045.105.06.15.136.248.368.57.698.96.338.39.697.787 1.087 1.185.405.398.795.765 1.193 1.103.39.33.713.554.967.69.038.014.083.037.135.06.06.022.12.03.188.03a.413.413 0 00.308-.128l.57-.563c.187-.187.367-.33.54-.42a.999.999 0 01.532-.157c.143 0 .293.03.457.098a2.9 2.9 0 01.526.292l2.482 1.762c.195.136.33.293.413.48.075.188.12.375.12.585z" stroke="currentColor" stroke-width="1.5" stroke-miterlimit="10"/><path d="M13.875 6.75c0-.45-.352-1.14-.877-1.702-.48-.518-1.118-.923-1.748-.923M16.5 6.75a5.246 5.246 0 00-5.25-5.25" stroke="currentColor" stroke-width="1.5" stroke-linecap="round" stroke-linejoin="round"/></svg><svg fill="none" viewBox="0 0 29 23" id="main_burger" xmlns="http://www.w3.org/2000/svg"><path fill="currentColor" d="M29 .215v3H0v-3zM29 9.785v3H0v-3zM29 19.785v3H0v-3z"/></svg><svg fill="none" viewBox="0 0 20 20" id="note_snowflake" xmlns="http://www.w3.org/2000/svg"><path d="M9.14 8.97c-.18-.446-.377-1.133-.592-2.062a46.045 46.045 0 01-.591-3.064A25.846 25.846 0 017.742.669c0-.223.233-.39.699-.502A6.22 6.22 0 019.892 0c.502 0 .986.056 1.452.167.466.112.699.279.699.502 0 .965-.072 2.005-.215 3.12a34.822 34.822 0 01-.538 3.12c-.179.928-.358 1.615-.537 2.06H9.14zm2.58 1.782l-.537-1.616c.287-.222.77-.538 1.451-.947a39.716 39.716 0 012.205-1.337c.824-.445 1.559-.817 2.204-1.114.681-.297 1.147-.446 1.398-.446.322 0 .591.26.806.78.251.483.43 1.04.538 1.672.143.594.215 1.04.215 1.337 0 .26-.376.501-1.129.724-.717.223-1.541.409-2.473.557-.932.149-1.864.26-2.796.334-.896.037-1.523.056-1.882.056zm-3.44.167c-.251 0-.628-.018-1.13-.056-.501-.037-1.057-.074-1.666-.11a31.413 31.413 0 01-2.527-.335A16.303 16.303 0 01.86 9.916C.287 9.694 0 9.471 0 9.248c0-.297.054-.743.161-1.337.144-.632.34-1.189.592-1.671.25-.52.52-.78.806-.78.251 0 .7.148 1.344.445A24.14 24.14 0 015.108 7.02a31.4 31.4 0 012.258 1.338c.68.408 1.164.724 1.451.947l-.537 1.615zm5.914 8.97a.358.358 0 01-.27-.112c-.537-.706-1.074-1.56-1.612-2.563a67.81 67.81 0 01-1.344-2.952c-.359-.929-.592-1.597-.7-2.006l1.345-1.002c.394.222.932.65 1.613 1.28a29.786 29.786 0 012.204 2.173 19.09 19.09 0 011.99 2.396v.111c.035 0 .053.02.053.056 0 .26-.215.613-.645 1.059-.43.408-.914.78-1.452 1.114-.501.297-.896.446-1.182.446zM5.967 20c-.323 0-.753-.149-1.29-.446A10.375 10.375 0 013.28 18.44c-.395-.408-.592-.743-.592-1.003 0-.074.018-.13.054-.167.61-.78 1.272-1.578 1.99-2.395a39.035 39.035 0 012.15-2.173c.68-.669 1.218-1.133 1.613-1.393l1.344 1.059c-.108.445-.34 1.114-.7 2.005a38.396 38.396 0 01-1.29 2.842 23.556 23.556 0 01-1.612 2.674.358.358 0 01-.27.111z" fill="currentColor"/></svg><svg fill="none" viewBox="0 0 32 32" id="plus" xmlns="http://www.w3.org/2000/svg"><path d="M8 16h16M16 24V8" stroke="currentColor" stroke-width="1.5" stroke-linecap="round" stroke-linejoin="round"/></svg><svg fill="none" viewBox="0 0 22 22" id="price_arrow" xmlns="http://www.w3.org/2000/svg"><path d="M16.564 13.227L11 18.793l-5.564-5.565M11 3.208v15.428" stroke="currentColor" stroke-width="1.5" stroke-miterlimit="10" stroke-linecap="round" stroke-linejoin="round"/></svg><svg fill="none" viewBox="0 0 13 13" id="select_chevron" xmlns="http://www.w3.org/2000/svg"><path fill-rule="evenodd" clip-rule="evenodd" d="M1.447 4.728l.793-.793 4.09 4.09 4.092-4.09.793.793L6.33 9.612 1.447 4.728z" fill="currentColor"/></svg><svg fill="none" viewBox="0 0 60 60" id="slider_next" xmlns="http://www.w3.org/2000/svg"><path d="M20 52.5L42.5 30 20 7.5" stroke="currentColor" stroke-linecap="round" stroke-linejoin="round"/></svg><svg fill="none" viewBox="0 0 60 60" id="slider_prev" xmlns="http://www.w3.org/2000/svg"><path d="M40 7.5L17.5 30 40 52.5" stroke="currentColor" stroke-linecap="round" stroke-linejoin="round"/></svg></svg>