<?xml version="1.0" encoding="utf-8"?><svg viewBox="0 0 32 32" xmlns="http://www.w3.org/2000/svg" xmlns:xlink="http://www.w3.org/1999/xlink"><style>:root>svg{display:none}:root>svg:target{display:block}</style><svg fill="none" viewBox="0 0 13 13" id="btn_chevron" xmlns="http://www.w3.org/2000/svg"><path fill-rule="evenodd" clip-rule="evenodd" d="M4.727 11.553l-.793-.794 4.09-4.09-4.09-4.09.793-.794L9.61 6.669l-4.884 4.884z" fill="currentColor"/></svg><svg fill="none" viewBox="0 0 7 12" id="card_chevron" xmlns="http://www.w3.org/2000/svg"><path fill-rule="evenodd" clip-rule="evenodd" d="M.978 12L0 11.025 5.044 6 0 .975.978 0 7 6 .978 12z" fill="currentColor"/></svg><svg fill="none" viewBox="0 0 32 32" id="close" xmlns="http://www.w3.org/2000/svg"><path d="M12.227 19.773l7.546-7.546M19.773 19.773l-7.546-7.546M12 29.333h8c6.666 0 9.333-2.666 9.333-9.333v-8c0-6.667-2.667-9.334-9.334-9.334h-8c-6.666 0-9.333 2.667-9.333 9.334v8c0 6.666 2.667 9.333 9.333 9.333z" stroke="currentColor" stroke-width="1.5" stroke-linecap="round" stroke-linejoin="round"/></svg><svg fill="none" viewBox="0 0 13 14" id="copy" xmlns="http://www.w3.org/2000/svg"><path d="M11.499 6.083c-.007-1.178-.059-1.816-.475-2.232-.476-.476-1.242-.476-2.774-.476H6.625c-1.532 0-2.298 0-2.774.476s-.476 1.242-.476 2.774v2.708c0 1.532 0 2.299.476 2.774.476.476 1.242.476 2.774.476H8.25c1.532 0 2.298 0 2.774-.476.476-.475.476-1.242.476-2.774v-.541M.75 5.083v3.25a1.625 1.625 0 001.625 1.625m6.5-7.583A1.625 1.625 0 007.25.75H5.083c-2.042 0-3.064 0-3.698.635-.354.354-.511.827-.58 1.532" stroke="currentColor" stroke-width="1.5" stroke-linecap="round"/></svg><svg fill="none" viewBox="0 0 22 22" id="filter_chevron" xmlns="http://www.w3.org/2000/svg"><path d="M3.74 13.796l5.976-5.977a1.82 1.82 0 012.567 0l5.977 5.977" stroke="currentColor" stroke-width="1.5" stroke-miterlimit="10" stroke-linecap="round" stroke-linejoin="round"/></svg><svg fill="none" viewBox="0 0 18 18" id="handset" xmlns="http://www.w3.org/2000/svg"><path d="M16.477 13.748c0 .27-.06.547-.187.817-.127.27-.292.525-.51.765a3.381 3.381 0 01-1.23.885c-.45.188-.938.285-1.463.285-.764 0-1.582-.18-2.444-.547a13.173 13.173 0 01-2.58-1.486 21.563 21.563 0 01-2.46-2.1A21.31 21.31 0 013.51 9.915c-.615-.855-1.11-1.71-1.47-2.557-.36-.855-.54-1.673-.54-2.453 0-.51.09-.998.27-1.448.18-.457.465-.877.862-1.252.48-.473 1.006-.705 1.56-.705.21 0 .42.045.608.135.195.09.368.225.503.42l1.74 2.453c.135.187.232.36.3.524.067.158.104.316.104.458 0 .18-.052.36-.157.532-.098.173-.24.353-.42.533l-.57.593a.401.401 0 00-.12.3c0 .06.008.112.022.172.023.06.045.105.06.15.136.248.368.57.698.96.338.39.697.787 1.087 1.185.405.398.795.765 1.193 1.103.39.33.713.554.967.69.038.014.083.037.135.06.06.022.12.03.188.03a.413.413 0 00.308-.128l.57-.563c.187-.187.367-.33.54-.42a.999.999 0 01.532-.157c.143 0 .293.03.457.098a2.9 2.9 0 01.526.292l2.482 1.762c.195.136.33.293.413.48.075.188.12.375.12.585z" stroke="currentColor" stroke-width="1.5" stroke-miterlimit="10"/><path d="M13.875 6.75c0-.45-.352-1.14-.877-1.702-.48-.518-1.118-.923-1.748-.923M16.5 6.75a5.246 5.246 0 00-5.25-5.25" stroke="currentColor" stroke-width="1.5" stroke-linecap="round" stroke-linejoin="round"/></svg><svg fill="none" viewBox="0 0 29 23" id="main_burger" xmlns="http://www.w3.org/2000/svg"><path fill="currentColor" d="M29 .215v4.849H0V.214zM29 8.7v4.848H0V8.7zM29 17.185v4.85H0v-4.85z"/></svg><svg fill="none" viewBox="0 0 13 13" id="select_chevron" xmlns="http://www.w3.org/2000/svg"><path fill-rule="evenodd" clip-rule="evenodd" d="M1.447 4.728l.793-.793 4.09 4.09 4.092-4.09.793.793L6.33 9.612 1.447 4.728z" fill="currentColor"/></svg></svg>