<?xml version="1.0" encoding="utf-8"?><svg viewBox="0 0 13 14" xmlns="http://www.w3.org/2000/svg" xmlns:xlink="http://www.w3.org/1999/xlink"><style>:root>svg{display:none}:root>svg:target{display:block}</style><svg fill="none" viewBox="0 0 13 13" id="btn_chevron" xmlns="http://www.w3.org/2000/svg"><path fill-rule="evenodd" clip-rule="evenodd" d="M6.727 11.553l-.793-.793 4.09-4.091-4.09-4.09.793-.794 4.884 4.884-4.884 4.884z" fill="currentColor"/></svg><svg fill="none" viewBox="0 0 13 14" id="copy" xmlns="http://www.w3.org/2000/svg"><path d="M11.499 6.083c-.007-1.178-.059-1.816-.475-2.232-.476-.476-1.242-.476-2.774-.476H6.625c-1.532 0-2.298 0-2.774.476s-.476 1.242-.476 2.774v2.708c0 1.532 0 2.299.476 2.774.476.476 1.242.476 2.774.476H8.25c1.532 0 2.298 0 2.774-.476.476-.475.476-1.242.476-2.774v-.541M.75 5.083v3.25a1.625 1.625 0 001.625 1.625m6.5-7.583A1.625 1.625 0 007.25.75H5.083c-2.042 0-3.064 0-3.698.635-.354.354-.511.827-.58 1.532" stroke="currentColor" stroke-width="1.5" stroke-linecap="round"/></svg><svg fill="none" viewBox="0 0 13 13" id="select_chevron" xmlns="http://www.w3.org/2000/svg"><path fill-rule="evenodd" clip-rule="evenodd" d="M1.447 4.728l.793-.793 4.09 4.09 4.092-4.09.793.793L6.33 9.612 1.447 4.728z" fill="currentColor"/></svg></svg>